<svg xmlns="http://www.w3.org/2000/svg" width="20" height="20" viewBox="0 0 20 20">
  <g>
    <rect width="20" height="20" fill="none"/>
    <path d="M5.92661,7.58751h.72495v4.45h-.9V9.15h-1.125V8.475h.16251a1.23127,1.23127,0,0,0,.3-.03746A1.29714,1.29714,0,0,0,5.47655,8.3a1.085,1.085,0,0,0,.3-.28755A1.00308,1.00308,0,0,0,5.92661,7.58751ZM11.44534,7.5h-1.1L9.43286,8.95,8.54533,7.5H7.38284L8.84532,9.66248l-1.575,2.375H8.38282l1.0125-1.575.98747,1.575h1.18752l-1.58745-2.375Zm1.82811,3.76251a1.90072,1.90072,0,0,1,.375-.4c.15-.11253.28755-.225.45006-.325l.45-.3a2.11719,2.11719,0,0,0,.4-.33752,1.41711,1.41711,0,0,0,.28747-.425,1.3884,1.3884,0,0,0,.11254-.575,1.4493,1.4493,0,0,0-.125-.58754,1.32274,1.32274,0,0,0-.33752-.43747,1.33659,1.33659,0,0,0-.48744-.275,1.73437,1.73437,0,0,0-.575-.1,1.80994,1.80994,0,0,0-.71251.13748,1.42928,1.42928,0,0,0-.51247.3875,1.52721,1.52721,0,0,0-.3.56251,1.7753,1.7753,0,0,0-.0875.525V9.3h.8625a1.88447,1.88447,0,0,1,.03746-.36255,1.00356,1.00356,0,0,1,.11253-.32493.58558.58558,0,0,1,.225-.2375.55664.55664,0,0,1,.325-.1.65921.65921,0,0,1,.48744.18753.65021.65021,0,0,1,.18753.5.68318.68318,0,0,1-.1.36255,1.27293,1.27293,0,0,1-.225.28747,1.34425,1.34425,0,0,1-.3.225c-.11246.075-.21248.15-.3125.21248-.18753.125-.375.26253-.55.3875a2.75309,2.75309,0,0,0-.43747.41252,1.66039,1.66039,0,0,0-.3125.51247,1.86929,1.86929,0,0,0-.1.48752v.18753h3.26249v-.775Z" fill="#fff" fill-rule="evenodd"/>
  </g>
</svg>
