<svg height="16" viewBox="0 0 16 16" width="16" xmlns="http://www.w3.org/2000/svg"><g fill="none" fill-rule="evenodd"><path d="m0 0h16v16h-16z"/><path d="m.80974 10.96215c.79739217 1.9224318 2.32832625 3.4476254 4.25374 4.23779-1.70634.11815-3.09379-.1724-3.58724-.66585-.49194-.49194-.78173-1.8728-.6665-3.57194zm7.6206-9.71985c3.4131034.22044362 6.1272685 2.94911965 6.32951 6.36335-.4758326 1.70135189-1.3706078 3.2562633-2.6025 4.52254-1.2861242 1.2512528-2.86860044 2.1558537-4.59941 2.62919-3.37665752-.2241132-6.07091082-2.9039715-6.31311-6.27938.47211627-1.74060367 1.37975111-3.33229344 2.63733-4.625 1.27288318-1.23821156 2.8370124-2.13603709 4.54818-2.6107zm.60793 4.03033c-.19579772-.19188157-.50959761-.19029668-.70344715.00355285-.19384953.19384954-.19543442.50764943-.00355285.70344715l.49634.49634-.82243.82231-.49618-.49638c-.19579772-.19188157-.50959761-.19029668-.70344715.00355285-.19384953.19384954-.19543442.50764943-.00355285.70344715l.49614.49638-.82231.82218-.49609-.49626c-.19579772-.19188157-.50959761-.19029668-.70344715.00355285-.19384953.19384954-.19543442.50764943-.00355285.70344715l.496.49622-.34172.34167c-.19188157.1957977-.19029668.5095976.00355285.7034471.19384954.1938496.50764943.1954345.70344715.0035529l.34159-.34155.48588.48608c.12585989.1284286.31099389.1793738.48484074.1334185.17384685-.0459554.30962241-.1817309.35557771-.3555778.04595531-.1738468-.00498985-.3589808-.13341845-.4848407l-.48584-.486.82235-.82222.4858.48595c.12585989.1284286.31099389.17937376.48484074.13341845.17384685-.0459553.30962241-.18173086.35557771-.35557771.04595531-.17384685-.00498985-.35898085-.13341845-.48484074l-.48572-.48592.82255-.82243.48611.48606c.0937404.09377964.2209033.14646779.3535.14646779s.2597596-.05268815.3535-.14646779c.0937927-.09374817.1464778-.22092686.1464778-.35353829 0-.13261142-.0527145-.25978415-.1465178-.35352171l-.486-.486.37076-.37072c.1284286-.12585989.1793738-.31099389.1334185-.48484074-.0459554-.17384685-.1817309-.30962241-.3555778-.35557771-.1738468-.04595531-.3589808.00498985-.4848407.13341845l-.37081.37073zm1.86452-4.48475c1.74221-.132 3.16236.16112 3.66044.65922.49935.49934.79224 1.92553.65784 3.67362-.790833-1.97108159-2.3498715-3.53537674-4.31828-4.33284z" fill="currentColor"/></g></svg>