<svg height="16" viewBox="0 0 16 16" width="16" xmlns="http://www.w3.org/2000/svg"><g fill="none" fill-rule="evenodd"><path d="m0 0h16v16h-16z"/><path d="m2.73572967 10.8745275-.00152998-.001529c-.52522113-.5252213-.45080442-1.39689322.15584591-1.82548308l6.54359766-4.62296635.72323404.7232345-5.72701201 5.72676303c-.46783095.4678103-1.22631506.4678017-1.69413562-.0000191zm6.00895027-7.13894105-.723234-.7232345-7.36670666 3.59584414c-.71942254.35116501-.8790945 1.30624723-.31301766 1.87232416l.00350998.00351019c.40142651.4014262 1.03362167.45539854 1.49728496.12782801zm.6418648 11.60030945 3.59472716-7.36371779-.723234-.7232345-4.87541108 6.90034919c-.32822451.4645477-.27415993 1.0979725.12804414 1.5001766l.0000014.0000019c.56714221.5671418 1.52401906.407189 1.87587238-.3135754zm-2.44069826-2.2325121 4.62322812-6.54340291-.723234-.7232345-5.72696767 5.72673681c-.46784412.4678246-.46785171 1.2263366-.00001717 1.6941707l.00153567.0015366c.52520755.525207 1.39685131.4508106 1.82545505-.1558067zm8.04002032-7.19258078c1.3521776-1.35217764 1.3521776-3.54449142 0-4.89666926-1.3521777-1.35217785-3.5444917-1.35217805-4.8966703 0zm-.6775446.67777917-4.89690437-4.89690456-.67766157.67766148 4.89690444 4.89690446z" fill="currentColor"/></g></svg>