<svg height="16" viewBox="0 0 16 16" width="16" xmlns="http://www.w3.org/2000/svg"><g fill="none" fill-rule="evenodd"><path d="m0 0h16v16h-16z"/><path d="m14.0448 10.78811c1.0798271 0 1.9552.8753729 1.9552 1.9552s-.8753729 1.9552-1.9552 1.9552-1.9552-.8753729-1.9552-1.9552.8753729-1.9552 1.9552-1.9552zm-7.53845.46775.81147 1.95156c.02928.07808.06928.16475.11328.25347-.33444504.471826-.87257799.7573913-1.45078.76987h-5.31226c-.17837811.002716-.35100495-.063082-.48232-.18384-.08110967-.0759084-.14023437-.1722961-.17114-.279-.03064649-.1117093-.01089917-.2312345.05405-.32715.25581-.38877.60187-.91948.81587-1.24736.32838563-.5244646.90387106-.8426737 1.52266-.84194h3.84117c.0934751-.0060681.18314437-.0392979.258-.09561zm-1.48852-9.65576s3.85485 8.80881 4.149 9.29281c.2486.4098177.49519527.4545161.56518671.4585696l1.72201329.0001204c-.503857.8986124-.4840106 1.9990895.05192 2.87895h-1.48629c-.82210225-.0769827-1.52757068-.6177837-1.81543-1.39168l-4.67323-11.23877zm7.45117-.0001-3.1018 7.45977c-.23717-.52564-.5252-1.16997-.842-1.88252 1.15009-2.59092 2.45708-5.57725 2.45708-5.57725z" fill="currentColor"/></g></svg>