<svg height="16" viewBox="0 0 16 16" width="16" xmlns="http://www.w3.org/2000/svg"><g fill="none" fill-rule="evenodd"><path d="m0 0h16v16h-16z"/><path d="m13.1669323 12.0816145c.4421873 0 .7999992.3578119.7999992.8000002 0 .4421873-.3578121.7999992-.7999994.7999992h-10.3335941c-.441797 0-.8000002-.3578119-.8000002-.7999992 0-.4421883.3582032-.8000002.8000002-.8000002zm-3.2000007-4.8812504c.4421883 0 .8000002.3578129.8000002.8000002s-.3578122.8000002-.8000005.8000002h-7.1335933c-.441797 0-.8000002-.3578129-.8000002-.8000002s.3582032-.8000002.8000002-.8000002zm3.2000007-4.882031c.4421873 0 .7999992.3578124.7999992.8s-.3578121.8-.7999994.8h-10.3335941c-.441797 0-.8000002-.3578124-.8000002-.8s.3582032-.8.8000002-.8z" fill="currentColor"/></g></svg>