<svg height="16" viewBox="0 0 16 16" width="16" xmlns="http://www.w3.org/2000/svg"><g fill="none" fill-rule="evenodd"><path d="m0 0h16v16h-16z"/><path d="m7.9437499.7957334c2.227344 0 4.2177243 1.009912 5.5420413 2.5953612-.7616701.3487306-1.3988771.898242-1.8778324 1.5796385l-.2270994-.1265621c-.2292967-.1257815-.5238286-.0460939-.6527348.1859374-.1292963.2312498-.046093.5242186.1855469.6531248l.2109375.1175294c-.2388669.5305176-.3836909 1.1132327-.440136 1.7223144h-.262989c-.265234 0-.4800777.2148439-.4800777.4796878s.2148437.4796877.4800777.4796877h.2574711c.0485354.6152343.1853514 1.2062988.4202147 1.744482l-.2159662.1203613c-.2316408.1289062-.3148442.421875-.1855469.6531248.0874997.1578131.2511711.2468758.4195309.2468758.079297 0 .1593752-.0203133.2332029-.0609379l.2223148-.1238766c.475439.6949701 1.1138668 1.2569332 1.8784177 1.6151847-1.3243169 1.5626955-3.298584 2.5572271-5.5073733 2.5572271-2.2088378 0-4.1831052-.9945316-5.5074215-2.5572271.7672851-.3595696 1.4078124-.9240227 1.8837402-1.6224604l.2354002.1311522c.0738282.0406246.1539063.0609379.2332034.0609379.1683592 0 .3320312-.0890627.4195313-.2468758.1292968-.2312498.0460934-.5242186-.1855469-.6531248l-.2312989-.1288576c.2328124-.5359859.3688965-1.1238765.4171872-1.7359857h.2574711c.265234 0 .4800777-.2148438.4800777-.4796877s-.2148437-.4796877-.4800777-.4796877h-.2629886c-.0561523-.605957-.1992187-1.1861329-.435986-1.7144041l.2251463-.1254396c.2316408-.1289063.3148437-.421875.1855469-.6531249-.1281252-.2312503-.421094-.3125-.6527343-.1859374l-.2401855.133789c-.4794922-.6848144-1.1187499-1.236963-1.8831542-1.5868654 1.3243161-1.5854492 3.3147455-2.5953612 5.5420895-2.5953612zm-6.1006834 3.3708496c.0257811.0175781.0470214.03999.0768554.052588.6050293.2572752 1.1170897.6935058 1.5135254 1.2330566l-.1510255.0841308c-.2316406.1289062-.3148436.421875-.1855468.6531248.0875001.1578126.2511718.2468753.4195313.2468753.0789063 0 .1593749-.0203128.2332032-.0609375l.1666014-.0928225c.1665041.3875975.2755859.8061037.3261721 1.2404785h-.1982422c-.2652345 0-.4800782.2148437-.4800782.4796876s.2148437.4796877.4800782.4796877h.2047849c-.042285.4446287-.1437988.8703127-.304492 1.2642088l-.1643555-.0915527c-.2304687-.1265621-.5238283-.0460939-.6527345.1859379-.1292968.2312498-.0460937.5242186.1855469.6531248l.1650879.0919428c-.393457.5516119-.9101074.9979496-1.5311036 1.2682133-.0299804.0129881-.0513183.0357418-.0771484.0537109-.7218262-1.1239748-1.1456054-2.457715-1.1456054-3.892725 0-1.4166011.4140136-2.7338376 1.1189454-3.8487301zm12.2013184 0c.7049312 1.1149411 1.1189451 2.4321289 1.1189451 3.8487301 0 1.43501-.4237795 2.7687502-1.1456051 3.8926764-.0258303-.0179691-.0471191-.0406742-.0770998-.0536623-.6183109-.2690916-1.1331052-.7127934-1.5259771-1.261035l.1779299-.0991211c.2316408-.1289062.3148442-.421875.1855469-.6531248-.1281252-.2320318-.421484-.3125-.6527338-.1859379l-.1793947.0999508c-.162549-.3961906-.264844-.8249015-.3074217-1.2726068h.2047844c.2652349 0 .4800787-.2148438.4800787-.4796877s-.2148438-.4796877-.4800787-.4796877h-.1982422c.0509282-.4374022.1607428-.8589353.3291512-1.2488279l.181591.101172c.0738287.0406246.1539068.0609374.2332039.0609374.1683588 0 .3320313-.0890627.4195309-.2468753.1292972-.2312498.0460939-.5242186-.1855469-.6531248l-.163867-.0913086c.3958006-.5362306.9060545-.9697266 1.508398-1.2258788.0297851-.0125981.051074-.0350099.076807-.052588z" fill="currentColor"/></g></svg>