<svg height="16" viewBox="0 0 16 16" width="16" xmlns="http://www.w3.org/2000/svg"><g fill="none" fill-rule="evenodd"><path d="m0 0h16v16h-16z"/><path d="m7.8670363 7.1662164c2.5021176-3.2034242 1.3611712-6.2662616 1.3611712-6.2662616 2.7832899.3006766 5.6454058 3.2830632 5.8859463 5.9062624-3.5634232-1.0816226-6.2061262 1.4213066-6.2061262 1.4213066zm1.7217393 1.7717976s2.237196-2.2818913 5.5852709-1.0661826c.2852354 3.0181432-1.8617573 5.0302377-2.4622984 5.5860829-.8703365-2.1778736-3.1229725-4.5199003-3.1229725-4.5199003zm-7.0069825-5.6155817c2.5825679-2.5622516 4.5044596-2.482613 5.6259019-2.5224323.8004503 2.7426579-.3404961 4.7246852-1.1011262 5.6852245-2.2428846-2.3623426-4.5247757-3.1627922-4.5247757-3.1627922zm-1.7817931 4.8447935s.0601352-2.4826131 1.2213972-4.0843258c1.941395 1.0011721 3.2830625 1.902389 4.3443699 3.0433345-.3006769.2998643-1.9023891 1.9218927-5.5657671 1.0409913zm7.0770323 7.0169783c-.8305173-3.1530409.4306984-4.734437 1.0109234-5.5958347 1.0808105 1.1612616 2.5825672 3.3236942 3.0230188 4.4646416-1.7016678 1.240899-4.0339422 1.1311931-4.0339422 1.1311931zm-6.936852-5.9359245c4.0436935.8004503 6.1858106-1.4213057 6.1858106-1.4213057s.2803607.2998629 1.0816231 1.061307c-2.1421175 2.4622965-1.6017118 5.0245485-1.4213066 6.2061272-5.3252253-1.141759-5.8461271-5.8461285-5.8461271-5.8461285z" fill="currentColor"/></g></svg>