<svg height="16" viewBox="0 0 16 16" width="16" xmlns="http://www.w3.org/2000/svg"><g fill="none" fill-rule="evenodd"><path d="m0 0h16v16h-16z"/><path d="m12.1785115 13.2910003c.7101564 0 1.0921879.3539066 1.3710938.6121092.2398443.2222662.3843756.3562498.71875.3562498.2648439 0 .4796877.2148438.4796877.4800787 0 .264844-.2148437.4796877-.4796876.4796877-.7109375 0-1.092968-.3539066-1.3718748-.6121101-.2390623-.2218742-.3843746-.3558588-.7179689-.3558588-.3343744 0-.4789057.1339846-.717968.3562498-.2789068.2585936-.6609383.6117191-1.3710938.6117191-.7109375 0-1.0929689-.3539066-1.3718758-.6121101-.2390623-.2218742-.3843746-.3558588-.7179685-.3558588-.3335934 0-.4789062.1339846-.7179685.3558588-.2789063.2582035-.6609378.6121101-1.3718753.6121101-.710156 0-1.0921874-.3531256-1.3710938-.6117191-.2398434-.2222652-.3843746-.3562498-.7187498-.3562498s-.4789064.1339846-.7179687.3562498c-.2789063.2585936-.6609375.6117191-1.3710939.6117191-.2648437 0-.4796875-.2148438-.4796875-.4796877 0-.2652349.2148438-.4800787.4796875-.4800787.334375 0 .4789063-.1339836.7179688-.3562498.2789061-.2582026.6609375-.6121092 1.3710938-.6121092.7109373 0 1.0929687.3539066 1.371875.6125002.2390623.2218752.3843751.3558588.7179685.3558588.3343754 0 .4789066-.1339836.71875-.3562498.2789063-.2582026.6609378-.6121092 1.3710938-.6121092s1.0921874.3539066 1.3710942.6121092c.2398434.2222662.3843746.3562498.71875.3562498.3343744 0 .4789057-.1339836.717968-.3562498.2789068-.2582026.6609383-.6121092 1.3710938-.6121092zm-4.178564-12.5106929c3.9878902.0021973 7.2195797 3.2356444 7.2195797 7.2235351-.0009766 1.7797365-.6488276 3.4060545-1.7172852 4.6641111-.2705565-.1515141-.6089354-.2750492-1.0254879-.3174801.1563968-.1609383.3102054-.3246584.4488277-.501709l-.7825193-1.1524906c-.0626955-.1003904-.1854982-.1455078-.2982416-.1095705l-1.4812994.4715824c-.0500002.0159178-.0939942.0466795-.1261721.0881834l-.9725094 1.2548828c-.0504885.0651369-.0528813.144043-.0336428.2192869-.3199701-.1633301-.7214842-.2894039-1.2315917-.2894039-.5620117 0-.994287.1516113-1.3279781.3393068l.0177732-.0180664c.041162-.0426273.0447269-.1089849.0084472-.1558113l-1.0458984-1.3496094c-.0324707-.0418453-.076953-.0728025-.1275387-.0885248l-1.5115724-.472168c-.1139161-.0356445-.2375001.0112305-.2991211.1135254l-.6952636 1.0748529c.1539061.2026367.3221679.3934574.4986815.5760261-.4139648.0428219-.7505372.1658688-1.0199218.3166504-1.0689943-1.2589359-1.7168946-2.8865729-1.7168946-4.6675296 0-3.9872553 3.2323241-7.2195797 7.2196288-7.2195797zm.1528807 5.2235836c-.0916014-.0679197-.2168455-.0679197-.3084469 0l-1.7621584 1.3056641c-.0883298.0654788-.1257324.1794924-.0933103.2845215l.6186032 2.0049806c.0334964.1085443.1338868.1826658.2475586.1826658h2.1937499c.1099615 0 .2079592-.0694828.2444334-.1732425l.7058602-2.0094233c.0376463-.1071778.0010738-.2264161-.0902348-.2940431zm5.1194334-1.3613767-1.5357904.2489743c-.1262207.0235352-.2161131.136084-.21128.2644043l.0595703 1.5837893c.0020027.0526853.0200195.1034665.0516119.1456542l.9530764 1.2708011c.0707026.0942383.1960449.1289063.3051262.0844231l1.3514166-.5040035c-.0481939-1.1353026-.3971681-2.1923828-.973731-3.0940428zm-10.5349605-.0189453c-.577832.8973632-.9289551 1.9503417-.9820312 3.0817871l1.2384766.5229001c.1092773.0450688.2351563.0105467.3061035-.084033l.9525389-1.2700686c.0316406-.0421872.0496583-.0930662.0516601-.1456542l.0596195-1.5854493c.0048337-.1275878-.0841308-.2397461-.2095218-.2640624zm5.2621581-2.8832522c-.5604977.0000489-1.1013183.0811036-1.6186523.2200196l-.1178708 1.4032226c-.0145511.1263673.0647459.2446289.1871581.2790527l1.5137205.4262698c.0518065.0145507.1069336.0125976.157568-.0054688l1.4869633-.5326174c.111084-.0397949.1812496-.1496093.1706543-.2671387l-.0924807-1.2849609c-.5375977-.1511718-1.101904-.2380859-1.6870604-.2383789z" fill="currentColor"/></g></svg>