<svg height="16" viewBox="0 0 16 16" width="16" xmlns="http://www.w3.org/2000/svg"><g fill="none" fill-rule="evenodd"><path d="m0 0h16v16h-16z"/><path d="m12.1785299 13.268611c.7105465 0 1.0925779.3539066 1.3710938.6121092.2398434.2218752.3843746.3558598.718359.3558598.2652349 0 .4800787.2148438.4800787.4800777 0 .2652349-.214844.4800787-.4800789.4800787-.7105465 0-1.0921869-.3535157-1.3707027-.6117192-.2398443-.2222652-.3843756-.3562498-.71875-.3562498-.3339844 0-.4785156.1339846-.7183599.3558598-.2785149.2582026-.6601562.6121092-1.3707027.6121092s-1.0921879-.3539066-1.3710938-.6121092c-.2398434-.2218752-.3843746-.3558598-.7187643-.3558598-.3343606 0-.4788918.1339846-.7187357.3558598-.2789063.2582026-.6605468.6121092-1.3710938.6121092s-1.0921874-.3539066-1.3710938-.6121092c-.2398438-.2218752-.3843751-.3558598-.71875-.3558598-.3335936 0-.4785156.1339846-.7179687.3558598-.2785156.2582026-.6601562.6121092-1.3707031.6121092-.2652344 0-.4800781-.2148438-.4800781-.4800787 0-.265234.2148438-.4800777.4800781-.4800777.3339843 0 .4785155-.1339846.7183594-.3558598.2785156-.2582026.6601562-.6121092 1.3703125-.6121092.710547 0 1.0921874.3539066 1.3710938.6121092.2398438.2218752.3843751.3558598.71875.3558598s.4789062-.1339846.71875-.3558598c.2789063-.2582026.6605468-.6121092 1.3710794-.6121092.7105608 0 1.0922022.3539066 1.3711081.6121092.2398434.2218752.3843746.3558598.71875.3558598.3339844 0 .4785156-.1339846.718359-.3558598.2785158-.2582026.6601562-.6121092 1.3707037-.6121092zm-4.1181386-5.1214534c1.0264645.2387208 2.0019036.6219234 2.8934565 1.1443357-.7478513 1.2375488-1.7581539 2.2583008-2.9371576 3.0183592-.0061035-.0000487-.01128-.0011225-.0174322-.0011225-1.0867186 0-1.6960936.5644532-2.0234375.8675776-.0218749.0207034-.0437498.0421877-.0656247.0632811l-.0664062-.0636711c-.327344-.3031254-.936719-.8671875-2.0234376-.8671876-.603467 0-1.0554199.1751947-1.3979492.3819332-.3639651-.4246578-.6761232-.8855953-.929297-1.3753414 1.1693358-.1416512 2.3019042-.4668465 3.3641114-.9557133.0215821-.0083494.0448241-.0055179.0654783-.0172853.0153322-.0086422.0243163-.0231447.0383301-.0331545 1.1366701-.5373039 2.1853027-1.2624998 3.0993657-2.1620111zm3.6963379 1.6685057c.8378906.6016598 1.5793943 1.3323727 2.2082033 2.1632328-.1505375.228076-.3164558.4424315-.4893074.6500969-.3291502-.1790523-.7531738-.3202629-1.2966795-.3202629-1.0874997 0-1.6968747.5644532-2.0242186.8675776l-.0656252.062891c-.0218744-.0207033-.0437498-.0421877-.0656252-.062891-.1712398-.1585932-.4224119-.3873044-.776123-.5707026.9849129-.7611332 1.8427248-1.6947756 2.5093756-2.7899418zm-3.583106-5.9468749c2.5751467.5608399 4.9703617 1.754834 6.9694824 3.4832032.1125489 1.277978-.115283 2.5582028-.6700191 3.7264643-.7243166-.8878899-1.5742188-1.6544914-2.5231934-2.2816887-.031787-.0314942-.0624514-.0641604-.1037598-.0864754-.0172367-.0092277-.0358887-.009326-.0536137-.0163078-1.048584-.6682129-2.2063961-1.1653323-3.4395991-1.4610352-.2463865-1.1139651-.3020019-2.2487793-.1792973-3.3641604zm-4.8537594-1.478418c-.6680665 2.4224124-.4252443 5.0016603.7146974 7.2873535-.9349122.380908-1.9250491.6160641-2.9383792.7108402-.6702636-1.9026375-.5571289-4.0712404.5062013-5.9638185.4429687-.7874024 1.0322753-1.4701662 1.7174805-2.0343752zm4.6551757-1.6569824c-.3175783.7813477-.5427246 1.5943849-.6793948 2.4229004-.004199.0147948-.0138669.026416-.0166988.0418944-.0052738.0284181.0015135.0551272.001318.0830078-.2104492 1.3702152-.1682615 2.777539.1356936 4.1543949-.7485352.7423339-1.5929199 1.3645997-2.5104981 1.8416505-1.2234864-2.4334474-1.3206055-5.2403321-.2762208-7.7476077.5247073-.2687012 1.079834-.4823731 1.6629882-.6173828.5567875-.1284669 1.1210937-.1825196 1.6828127-.1788575zm1.0227536.0736328c.8633795.1291504 1.7039557.4129395 2.4803715.8497558 1.3445311.7558594 2.3945312 1.8945313 3.0359373 3.2921875 0 .0003906.0007811.0007816.0007811.0011721l.1312771.31052156c.0817492.20886857.1526261.42108631.2166234.63449764-1.9379397-1.4537105-4.1685057-2.4681639-6.541894-2.9766111.1485834-.7245605.3756342-1.43125.6769036-2.1115235z" fill="currentColor"/></g></svg>