<svg height="16" viewBox="0 0 16 16" width="16" xmlns="http://www.w3.org/2000/svg"><g fill="none" fill-rule="evenodd"><path d="m0 0h16v16h-16z"/><path d="m8 15.2c-.40563379 0-.74929569-.144231-1.03098568-.4326924-.28169057-.2884614-.42253527-.6288461-.42253527-1.021154h2.87323952c0 .4153846-.13521184.7615387-.40563437 1.0384618s-.60845041.4153846-1.0140842.4153846zm4.3267605-8.1000003v3.6692311l1.4535209 1.4884614v.7269232h-11.56056283v-.7269232l1.45352095-1.4884614v-3.6692311c0-1.15384615.28732401-2.15769186.86197203-3.01153831.57464745-.85384645 1.36901413-1.4076926 2.38309833-1.66153846v-.51923062c0-.3000003.10140831-.55961561.30422549-.77884653.20281661-.21923032.46197168-.32884578.77746463-.32884578s.57464802.10961546.77746463.32884578c.20281718.21923092.30422549.47884623.30422549.77884653v.51923062c1.01408418.25384586 1.80845088.80769201 2.38309828 1.66153846.5746481.85384645.8619721 1.85769216.8619721 3.01153831zm1.4197185-.38076908c-.1126763-1.98461538-.9577468-3.56538447-2.5352116-4.74230784l1.0140848-1.03846124c1.8704222 1.47692308 2.8619715 3.40384571 2.9746478 5.78076908zm-8.92394344-4.74230784c-1.60000025 1.15384616-2.45633826 2.73461524-2.56901461 4.74230784h-1.45352095c.11267634-2.37692337 1.10422562-4.303846 2.97464783-5.78076908z" fill="currentColor"/></g></svg>