<svg height="16" viewBox="0 0 16 16" width="16" xmlns="http://www.w3.org/2000/svg"><g fill="none" fill-rule="evenodd"><path d="m0 0h16v16h-16z" fill="#c8cad0" fill-rule="nonzero" opacity="0"/><path d="m14.07527 13.93141c-.0556622.5417392-.5101121.954781-1.05469.95859h-10.04116c-.54457795-.003809-.99902776-.4168508-1.05469-.95859zm.40031-1.91988c-.0549606.5424334-.5097326.9563508-1.05493.96016h-10.8413c-.5452012-.0038041-.99997894-.4177228-1.05494-.96016zm-.72958-10.90117c.631841 0 1.144.51229902 1.144 1.14414v7.65313c0 .631841-.512159 1.14414-1.144 1.14414h-11.492c-.63184097 0-1.144-.512299-1.144-1.14414v-7.65313c0-.63184098.51215903-1.14414 1.144-1.14414zm-8.766 3.31964h-1.68v3.57h1.73c.1600008 0 .31583257-.0199998.4675-.06.15166742-.0400002.28666607-.10166625.405-.185.11833392-.08333375.21249965-.19083267.2825-.3225.07000035-.13166732.105-.2874991.105-.4675 0-.22333445-.05416613-.41416587-.1625-.5725-.08666632-.12666617-.20906394-.22293166-.36719538-.28879819l-.12529871-.04370011c.16180284-.07814305.28143873-.17589995.36249409-.2950017.08166707-.1200006.1225-.2699991.1225-.45 0-.1666675-.02749973-.3066661-.0825-.42-.05500028-.1133339-.1324995-.20416632-.2325-.2725-.1000005-.06833367-.2199993-.11749985-.36-.1475s-.29499915-.045-.465-.045zm4.51 0h-2.67v3.57h2.71v-.66h-1.925v-.875h1.73v-.61h-1.73v-.765h1.885zm3.215 0h-2.925v.66h1.07v2.91h.785v-2.91h1.07zm-7.765 1.98c.17000085 0 .30666615.03916628.41.1175.10333385.07833373.155.20916575.155.3925 0 .0933338-.01583318.1699997-.0475.23-.03166683.0600003-.0741664.10749983-.1275.1425-.0533336.03500018-.11499965.05999993-.185.075l-.10749999.01687503-.11250001.00562497h-.84v-.98zm-.12-1.37c.07000035 0 .13749967.00583328.2025.0175.06500032.01166673.12249975.03249985.1725.0625s.08999985.0716664.12.125.045.12166625.045.205c0 .15000075-.04499955.258333-.135.325-.06750034.05000025-.14906228.08125013-.24468727.09375005l-.10031273.00624995h-.795v-.835z" fill="currentColor"/></g></svg>