<svg xmlns="http://www.w3.org/2000/svg" width="20" height="20" viewBox="0 0 20 20">
  <g>
    <rect width="20" height="20" fill="none"/>
    <path d="M7.7,10.25627a1.07583,1.07583,0,0,0-.6-.3875.99337.99337,0,0,0,.43747-.375.94716.94716,0,0,0,.1625-.55.95994.95994,0,0,0-.125-.5,1.24865,1.24865,0,0,0-.325-.35,1.16751,1.16751,0,0,0-.45-.17494,5.40984,5.40984,0,0,0-.75-.03754H4.35v4.23752H5.8c.55,0,.88753-.01251,1.03752-.025a1.366,1.366,0,0,0,.575-.2,1.23958,1.23958,0,0,0,.36247-.43755,1.32953,1.32953,0,0,0,.13748-.56244A1.00451,1.00451,0,0,0,7.7,10.25627Zm-2.48748-1.675H5.7c.41244,0,.64994.01251.73745.01251a.60707.60707,0,0,1,.325.15.52982.52982,0,0,1,.1.325.40662.40662,0,0,1-.125.325A.57443.57443,0,0,1,6.4,9.55627c-.08751,0-.28755.01252-.625.01252H5.21252ZM6.9,11.20628a.463.463,0,0,1-.3125.175A4.63865,4.63865,0,0,1,6,11.40625h-.7875V10.26878H5.9a3.04086,3.04086,0,0,1,.76248.06249.43047.43047,0,0,1,.26253.2.51854.51854,0,0,1,.1.3125A.47463.47463,0,0,1,6.9,11.20628Zm4.96254.2v.71251H8.6375V7.88124H11.775v.71251H9.4875v.9375h2.125v.725H9.4875v1.15ZM15.65,7.88124v.71251H14.4v3.525h-.86251v-3.525H12.275V7.88124Z" fill="#fff" fill-rule="evenodd"/>
  </g>
</svg>
