<svg height="16" viewBox="0 0 16 16" width="16" xmlns="http://www.w3.org/2000/svg"><g fill="none" fill-rule="evenodd"><path d="m0 0h16v16h-16z"/><path d="m12.17586 8.96388c0 .2678581-.2171419.485-.485.485h-7.38168c-.2678581 0-.485-.2171419-.485-.485v-.44638c0-.64765354.3614143-1.2411702.93682-1.53843l1.66762-.86149 1.57721 1.57721 1.56572-1.56572 1.66207.85128c.5783953.29624256.94224.89138327.94224 1.54123zm-4.18597-7.85388c-.54052232-.01686507-1.06249127.19804804-1.43443835.59060908-.37194709.39256103-.55841997.92535282-.51245165 1.46418092 0 1.32048.87165 2.7271 1.94689 2.7271s1.94689-1.40662 1.94689-2.7271c.04596832-.5388281-.14050456-1.07161989-.51245165-1.46418092-.37194708-.39256104-.89391603-.60747415-1.43443835-.59060908zm-4.94972 13.14347.65469.40607c.1586243.0983839.361015.0909778.51202439-.0187365.15100939-.1097142.22059591-.2999104.17604561-.4811735l-.18389-.74814.58851-.49717c.14259071-.1204579.19809197-.3152347.14041085-.4927596-.05768111-.1775249-.21706922-.3024802-.40323085-.3161204l-.76834-.0563-.291-.71334c-.07049837-.1728376-.23859261-.2858136-.425255-.2858136s-.35475663.112976-.425255.2858136l-.291.71334-.76834.0563c-.18616163.0136402-.34554974.1385955-.40323085.3161204-.05768112.1775249-.00217986.3723017.14041085.4927596l.58851.49717-.18389.74814c-.0445503.1812631.02503622.3714593.17604561.4811735.15100939.1097143.35340009.1171204.51202439.0187365zm4.96689 0 .65469.40607c.1586243.0983839.361015.0909778.51202439-.0187365.15100939-.1097142.22059591-.2999104.17604561-.4811735l-.18389-.74814.58851-.49717c.14259071-.1204579.19809197-.3152347.14041085-.4927596-.05768111-.1775249-.21706922-.3024802-.40323085-.3161204l-.76834-.0563-.291-.71334c-.07049837-.1728376-.23859261-.2858136-.425255-.2858136s-.35475663.112976-.425255.2858136l-.291.71334-.76834.0563c-.18616163.0136402-.34554974.1385955-.40323085.3161204-.05768112.1775249-.00217986.3723017.14041085.4927596l.58851.49717-.18389.74814c-.0445503.1812631.02503622.3714593.17604561.4811735.15100939.1097143.35340009.1171204.51202439.0187365zm4.98612 0 .65469.40607c.1586243.0983839.361015.0909778.5120244-.0187365.1510094-.1097142.2205959-.2999104.1760456-.4811735l-.18389-.74814.58851-.49717c.1425907-.1204579.198092-.3152347.1404109-.4927596-.0576812-.1775249-.2170693-.3024802-.4032309-.3161204l-.76834-.0563-.291-.71334c-.0704984-.1728376-.2385926-.2858136-.425255-.2858136s-.3547566.112976-.425255.2858136l-.291.71334-.76834.0563c-.1861616.0136402-.3455497.1385955-.4032309.3161204-.0576811.1775249-.0021798.3723017.1404109.4927596l.58851.49717-.18389.74814c-.0445503.1812631.0250362.3714593.1760456.4811735.1510094.1097143.3534001.1171204.5120244.0187365z" fill="currentColor"/></g></svg>