<svg height="16" viewBox="0 0 16 16" width="16" xmlns="http://www.w3.org/2000/svg"><g fill="none" fill-rule="evenodd"><path d="m0 0h16v16h-16z"/><path d="m13.9155336 8.48795066-2.5414704 2.54147034c-.9277882.9277874-2.02696387 1.6646838-3.2294611 2.1650007l-.68842928.286411-2.15568785 2.1556879c-.26919926.2691988-.70968859.2691988-.97888774.0000485l-1.72348738-1.7234872 3.28421721-3.284217c.1872349-.1872349.1872349-.4907116 0-.67794649-.1872349-.18723491-.49071162-.18723491-.67794652 0l-3.28421702 3.28421699-1.71461335-1.7146133c-.27412358-.2741232-.27402612-.7228049.00004873-.9969282l2.18884431-2.18884413c-.19142827-.63416072-.20615362-1.32931917.00048751-2.01082506l1.41289194-4.65966237c.308011-1.01589564 1.38129618-1.58983892 2.39728938-1.28177899v.00004873c.95411791.28923908 1.50831394 1.2534501 1.31829968 2.21127375l.02355055-.02355075-.71953793 3.23799366.19040421-.19040422c.59598227-.59598227 1.56297305-.59378808 2.15622449.0048759l1.04802806 1.02881674.8705449.87054453c.6474227.64742354 1.5107509 1.00394965 2.4310301 1.00394965.133161 0 .2615926-.02335583.3918775-.03808068zm-2.8672173-8.34860436c-.6355262 0-1.27105232.24106489-1.75318259.72319486-.96424716.96423538-.96424716 2.54210364 0 3.50633942l2.47532849 2.47535275c.4821303.48212977 1.1176565.7231701 1.7531816.7231701.6355262 0 1.2710523-.24104033 1.7531702-.7231701v-.00002486c.9642482-.96423528.9642482-2.54210365 0-3.50633892l-2.4753285-2.47532849c-.4821303-.48212977-1.1176441-.72319476-1.7531692-.72319476z" fill="currentColor"/></g></svg>