<svg height="14" viewBox="0 0 14 14" width="14" xmlns="http://www.w3.org/2000/svg"><g fill="none" fill-rule="evenodd" transform="translate(-1 -1)"><path d="m0 0h16v16h-16z"/><path d="m14.0629069 4.5-1.7733561-.78886719-.7895508-1.77403972-1.9298991.20154625-1.5701009-1.13863934-1.57101236 1.13863934-1.92898764-.20154625-.78898111 1.77324222-1.77403972.78966469.20166014 1.9298991-1.13863931 1.5701009 1.13863931 1.57101239-.20166014 1.92898761 1.77335611.7888672.78966472 1.7740397 1.9298991-.2015462 1.5701009 1.1386393 1.57101236-1.1386393 1.92898764.2015462.7888672-1.7733561 1.7740397-.7895508-.2016602-1.92989907 1.1387533-1.57010093-1.1387533-1.57101236zm-2.6441458 2.24695966-3.5823731 3.58203124c-.13671875.1367188-.31582033.2050782-.49492184.2050782s-.35820316-.0683594-.49492184-.2050782l-2.22714842-2.22714841c-.2734375-.2734375-.2734375-.71640625 0-.98984375s.71640625-.2734375.98984375 0l1.73222658 1.73222658 3.08745117-3.08710934c.2734375-.2734375.7164062-.2734375.9898437 0s.2734375.71640618 0 .98984368z" fill="currentColor"/></g></svg>