<svg height="16" viewBox="0 0 16 16" width="16" xmlns="http://www.w3.org/2000/svg"><g fill="none" fill-rule="evenodd"><path d="m0 0h16v16h-16z"/><path d="m8.0000244.78041992c-3.98730472 0-7.21962888 3.23232424-7.21962888 7.21953128 0 3.9873047 3.23232424 7.2196289 7.21962888 7.2196289 3.9872558 0 7.2195801-3.2323243 7.2195801-7.2196289 0-3.98720704-3.2323243-7.21953128-7.2195801-7.21953128zm3.8673828 6.11484376-4.09414064 4.09375002c-.15625.15625-.36093752.234375-.56562496.234375s-.40937504-.0781249-.56562496-.234375l-2.54531248-2.5453125c-.3125-.3125-.3125-.81875 0-1.13125s.81875-.3125 1.13125 0l1.97968752 1.97968752 3.52851562-3.52812496c.3125-.3125.81875-.3125 1.13125 0s.3124999.81874992-.0000001 1.13124992z" fill="currentColor"/></g></svg>