<svg height="16" viewBox="0 0 16 16" width="16" xmlns="http://www.w3.org/2000/svg"><g fill="none" fill-rule="evenodd"><path d="m0 0h16v16h-16z"/><path d="m5.91834 4.00524v6.07637h6.07554c-.5334296 2.297541-2.57887045 3.9251502-4.93752 3.92891l-.0457-.0002c-2.74306597-.0696809-4.95049779-2.276484-5.02096-5.01953-.01722415-2.37600424 1.61448396-4.44668579 3.92864-4.98555zm1.13156-1.72812h-.00034c-1.77706171.00366854-3.47927706.7159209-4.72940559 1.97890959-1.25012852 1.2629887-1.94492282 2.97240422-1.93040441 4.74941041.075692 3.6167052 2.99008285 6.5302447 6.60681 6.60488l.05979.0002c3.677686-.0039711 6.6590296-2.9824794 6.6665-6.66016-.00594-.2622399-.2214431-.471065-.48374-.46875h-5.72077v-5.7207c.0023022-.26217727-.20631487-.47763498-.46843-.48379zm8.56064 4.77588c-.0053862-3.67793492-2.9856051-6.65814479-6.66354-6.66352-.26250301.00615402-.47147468.22185379-.46932667.48442v6.64837693h6.64841667c.2625588.00216472.478269-.20678179.48445-.46927693z" fill="currentColor"/></g></svg>