<svg height="16" viewBox="0 0 16 16" width="16" xmlns="http://www.w3.org/2000/svg"><g fill="none" fill-rule="evenodd"><path d="m0 0h16v16h-16z" fill-rule="nonzero" opacity="0"/><path d="m8 2.24c3.2 0 5.76 2.56 5.76 5.76s-2.56 5.76-5.76 5.76-5.76-2.56-5.76-5.76c0-3.2 2.56-5.76 5.76-5.76zm0-2.24c-4.48 0-8 3.52-8 8s3.52 8 8 8 8-3.52 8-8-3.52-8-8-8zm2.56 10.56c.48-.48.48-1.12 0-1.6l-1.44-1.44v-1.92c0-.64-.48-1.12-1.12-1.12s-1.12.48-1.12 1.12v2.4c0 .32.16.64.32.8l1.76 1.76c.32.32 1.12.32 1.6 0z" fill="currentColor"/></g></svg>