<svg height="16" viewBox="0 0 16 16" width="16" xmlns="http://www.w3.org/2000/svg"><g fill="none" fill-rule="evenodd"><path d="m0 0h16v16h-16z"/><path d="m9.1313038 7.9999738 4.3163567-4.3160157c.3125-.3125.3125-.8187499 0-1.1312499s-.8187494-.3125-1.1312494 0l-4.3164063 4.3160643-4.3164065-4.3160644c-.3125-.3125-.8187499-.3125-1.1312499 0s-.3125.8187499 0 1.1312499l4.3163576 4.3160157-4.3163576 4.3160157c-.3125.3125-.3125.8187494 0 1.1312494.15625.15625.3609376.2343751.565625.2343751.2046876 0 .409375-.0781251.565625-.2343751l4.3164064-4.3160638 4.3164062 4.3160639c.15625.15625.3609371.234375.5656252.234375.2046871 0 .4093742-.078125.5656242-.234375.3125-.3125.3125-.8187494 0-1.1312494z" fill="currentColor"/></g></svg>