<svg height="16" viewBox="0 0 16 16" width="16" xmlns="http://www.w3.org/2000/svg"><g fill="none" fill-rule="evenodd"><path d="m0 0h16v16h-16z"/><path d="m7.9999756.78041992c-3.98725584 0-7.21958008 3.23222656-7.21958008 7.21953128 0 3.9873047 3.23232424 7.2196289 7.21958008 7.2196289 3.9873047 0 7.2196289-3.2323243 7.2196289-7.2196289 0-3.98730464-3.2323243-7.21953128-7.2196289-7.21953128zm3.1322266 9.22031248c.3125.3125.3125.81875 0 1.13125-.15625.15625-.3609376.234375-.565625.234375s-.409375-.0781249-.565625-.234375l-2.00097652-2.00087888-2.00097664 2.00087888c-.15625.15625-.36093752.234375-.56562496.234375s-.40937504-.0781249-.56562496-.234375c-.3125-.3125-.3125-.81875 0-1.13125l2.0009276-2.0007812-2.00092768-2.00078128c-.3125-.3125-.3125-.81875 0-1.13125s.81875-.3125 1.13125 0l2.00097656 2.00078128 2.0009766-2.00078128c.3125-.3125.81875-.3125 1.13125 0s.3125.81875 0 1.13125l-2.0009278 2.00078128z" fill="currentColor"/></g></svg>