<svg height="16" viewBox="0 0 16 16" width="16" xmlns="http://www.w3.org/2000/svg"><g fill="none" fill-rule="evenodd"><path d="m0 0h16v16h-16z" fill="currentColor" fill-rule="nonzero" opacity="0"/><path d="m13.1722057 7.67337143c-1.2446095.00298402-2.3399346.82192301-2.6948571 2.01485714-.53821773-.11234157-1.08356083-.18732428-1.63212574-.22441143v-4.28419428l3.86826284-1.52342857c.1894905-.07463349.3140529-.25757008.3140529-.46122858 0-.20365849-.1245624-.38659508-.3140529-.46122857l-3.8913257-1.53259428c-.05175686-.39212107-.38456936-.68613624-.78008-.6891429-.21302111 0-.4173366.08452608-.56796528.23515476s-.23522144.35494417-.23515472.56796528v8.15258286c-1.50650911.07984099-2.97945031.47522622-4.32342857 1.16054854l-1.68595429-1.02482283c-.37926814-.23040372-.87350483-.10972527-1.10390856.26954286-.23040373.37926817-.10972528.87350487.26954285 1.10390857l7.22968 4.3945486c.25759633.1560461.58077789.155142.83749714-.0023429l3.65928003-2.2466743c1.0574982.4242189 2.2663127.1718978 3.0658037-.6399386.7994909-.8118364 1.0332605-2.0243752.5928879-3.0752492-.4403725-1.05087399-1.4687407-1.73450938-2.6081545-1.73384074zm-5.93325713 5.58319997-2.64789714-1.6095657c.85265435-.3061837 1.74389754-.4917672 2.64789714-.5513714zm1.60626286-2.1564457c.55484802.0459501 1.10544603.1336344 1.64711997.2623086.0738288.2404069.1796248.4698039.3145486.6820343l-1.96166857 1.2042971z" fill="currentColor"/></g></svg>
