<svg height="16" viewBox="0 0 16 16" width="16" xmlns="http://www.w3.org/2000/svg"><g fill="none" fill-rule="evenodd"><path d="m0 0h16v16h-16z"/><path d="m13.6426667 7.66562667-7.0546667.00136666v-2.59824l3.7450667-1.475c.1824824-.07185683.3024426-.2480195.3024426-.44414s-.1199602-.37228317-.3024426-.44414l-3.7450667-1.47500666v-.33671334c0-.44355461-.35957206-.80312666-.80312667-.80312666s-.80312666.35957205-.80312666.80312666v7.39358l-3.33748667 6.45016667c-.1317417.2548304-.11752564.5605868.03729312.8020936.15481876.2415069.42671956.3820736.71328001.36875.28656045-.0133235.54424519-.1785132.67598687-.4333436l1.50962-2.917c2.22064815-.3361249 4.22742056-1.5121909 5.6059067-3.28533333l3.4563466-.00078c.4435546 0 .8031267-.35957206.8031267-.80312667s-.3595721-.80312667-.8031267-.80312667z" fill="currentColor"/></g></svg>