<svg height="16" viewBox="0 0 16 16" width="16" xmlns="http://www.w3.org/2000/svg"><g fill="none" fill-rule="evenodd"><path d="m0 0h16v16h-16z" fill="currentColor" fill-rule="nonzero" opacity="0"/><path d="m15.61238 13.952-6.77188-4.15864v-4.61387l3.86831-1.52344c.1895091-.07467076.3140758-.25764049.3140758-.46133s-.1245667-.38665924-.3140758-.46133l-3.8914-1.53239c-.05190726-.39196682-.38462298-.68581026-.78-.68887004-.21302446 0-.41734381.08452413-.56797486.23515518s-.23522414.3549504-.23515514.56797486v8.476l-1.56355.95074c.00757-.08437.02539-.16582.02539-.25215.00068443-1.41956392-1.05121231-2.61962011-2.45862962-2.80492712-1.40741731-.18530702-2.73409002.70157583-3.10087166 2.0729377-.36678165 1.37136192.34002116 2.80211392 1.65203128 3.34413942l-1.39814.85c-.2456001.1487941-.39302873.4174326-.38663923.7045184.00638951.2870858.16562408.5488991.41760096.6866189.25197687.1377198.55832286.1303731.80340827-.0192673l1.68584-1.02487c1.58848058.8010774 3.34616827 1.2088085 5.1251 1.18887h.02968c1.76377066.0241474 3.5076906-.374329 5.08594-1.16211l1.62031.99492c.3778791.2307456.8712245.1121484 1.1029362-.2651391.2317116-.3772874.1143771-.8709346-.2623162-1.1036109zm-7.54609-.07031h-.02657c-1.17744537.0029957-2.34629797-.2004748-3.45347-.60117l3.44875-2.09652 3.44507 2.11543c-1.0954156.3910973-2.25065603.5881201-3.41378.58221z" fill="currentColor"/></g></svg>
