<svg height="16" viewBox="0 0 16 16" width="16" xmlns="http://www.w3.org/2000/svg"><g fill="none" fill-rule="evenodd"><path d="m0 0h16v16h-16z" fill="#606060" fill-rule="nonzero" opacity="0"/><path d="m15.2196758 8c.0073266 3.5353983-2.5415555 6.5582866-6.02738776 7.1482601-3.48583228.5899734-6.88750094-1.4257905-8.04396648-4.766701-1.15646554-3.34091046.27103845-7.02830603 3.37563573-8.71962831 3.10459728-1.69132228 6.97685021-.8911279 9.15676271 1.89222921h-4.49227v-.21227c.02856909-.03570723.05417104-.07369042.07655-.11357h.24577s.20623-1.18839-.86377-1.26973l.003.01693c-.02753141-.00720273-.05544528-.01285494-.08361-.01693-.22192693-.00000796-.43476733.08814523-.59169806.24506658s-.24509664.36975649-.24510194.59168342c.00487337.03878615.01262815.07715556.0232.11479l-.01339.00268.06555.33863-.013-.01628c-1.40953-.13753-1.23766 1.85636-1.23766 1.85636s-.01.08907-.02681.235l-.21924-.03212c-.07690641-.01130941-.15514084.00862089-.21726244.05534781-.0621216.04672693-.10296594.11636588-.11342756.19339219l-.15792 1.1615c-.02151418.15810422.08827039.30405695.24614.32723l.25309.03715c-.05058.39775-.09636.72962-.12122.84143-.07735.34811-.15466 1.67591-.16646 1.77905s-.25171.34119-.50391.9668c-.14254735.3703149-.21678422.7634035-.21911 1.1602-.04054389.2566628-.0965153.5106497-.16761.76058-.05155.245-.1418.69621.12891.7091s.39962 0 .50277 0 .20626-.07161.1418-.35168c-.06755207-.248854-.06059815-.5120601.02-.757.08313-.25785.23779-.24495.457-.77352s.42538-.97969.55432-1.2762c.11422-.26274.4618-.91834.70057-1.58993.37204879.49657132.81842412.93282108 1.3234 1.29338-.07290038.3659649-.07290038.7427151 0 1.10868.116.67037.19332.79928.20626 1.07-.12256042.3068673-.17541706.63713-.15475.96692.0516.20963.477.1547.87663.16752s.838 0 .86373-.18046-.25781-.23194-.45117-.33509c-.2415318-.1641404-.39377753-.4305778-.41256-.722-.02576-.32223.15471-1.63717.15471-2.13993-.0680141-.57386475-.29256823-1.11796456-.64909-1.57276-.19838557-.22545899-.36616591-.47610063-.499-.74544l.2134.03133c.0769138.01127757.15514329-.00867536.21725982-.0554135.06211652-.04673813.10295972-.11637868.11343018-.1934065l.15792-1.16154c.021481-.15807209-.08826294-.30398707-.24609-.3272l-.21086-.031c.0238-.11589.046-.22278.06506-.314.81657.54956 1.02214.5415 1.29354.4504.39445-.13249.61707-.99614.74182-1.58663h2.91809c.6877392 1.12584112 1.0517477 2.41950861 1.0520258 3.73879zm-4.6947658-3.73884h-.479l-.19133.17712.41252.27507z" fill="currentColor"/></g></svg>