<svg height="20" viewBox="0 0 20 20" width="20" xmlns="http://www.w3.org/2000/svg"><g fill="none" fill-rule="evenodd"><rect fill="currentColor" height="20" rx="10" width="20"/><path d="m15.9981004 7.84068556c.0397637-1.39648968-.5475787-2.72592104-1.4965221-3.38644563-.8905404-.6202895-2.0233907-.60352496-2.6944025.03939674-.4824451.46249295-.6199093 1.11714988-.4144637 1.83488352h-2.78542406c.2054456-.71773364.0679814-1.37239066-.41446413-1.83488352-.67101182-.6429217-1.8046905-.65968633-2.69398826-.03939674-.94935732.6605245-1.53669977 1.98995586-1.49693611 3.38644563.06818847 2.36883504 1.52391118 4.51407294 3.80198602 5.64400574.24971378.51593.5187916 1.0226395.81437886 1.5153087h2.76352298c.2957422-.492774.5648719-.9994834.8146373-1.515623 2.278075-1.1302472 3.733539-3.2750659 3.8016757-5.64369144zm-3.0933248 4.15909874c.3402865-.9403688.6200395-1.9079041.8155652-2.90778042.0307603-.15609928-.0078979-.3173727-.1051672-.44069982-.0968535-.12332703-.2419261-.19404611-.3953122-.19404611h-6.43972322c-.15338613 0-.29845859.07071899-.39531221.19404611-.09726915.12332703-.13592747.28460045-.10516712.44069982.19542179.99976852.47533067 1.96741162.81577308 2.90799612-1.2713589-1.0464474-2.04894129-2.53499642-2.09399051-4.13781658-.02951334-1.06940951.39655905-2.10690922 1.06040081-2.58038164.55909033-.39930368 1.15018801-.33117198 1.42162743-.06295721.24384861.23932351.23740552.6455266.01527623 1.1274077-.26130709.02350111-.46836795.24395903-.46836795.5206903 0 .29236277.2286243.52953021.51087141.52953021h4.91750115c.2822471 0 .5108714-.23716744.5108714-.52953021 0-.27673127-.2070609-.49718919-.4683681-.5206903-.2221293-.4818811-.2285723-.88808419.0152763-1.1274077.271855-.26821477.8629528-.3354841 1.4220431.06295721.6634262.47347242 1.0894987 1.51097213 1.0599854 2.58038164-.0450496 1.60282007-.822528 3.09126128-2.093783 4.13760088zm-1.4075369 5.0002157h-2.99447708c-.27776675 0-.50276162-.2239414-.50276162-.5s.22499487-.5.50276162-.5h2.99447708c.2777664 0 .5027613.2239414.5027613.5s-.224995.5-.5027613.5z" fill="#fff" fill-rule="nonzero"/></g></svg>