<svg height="16" viewBox="0 0 16 16" width="16" xmlns="http://www.w3.org/2000/svg"><g fill="none" fill-rule="evenodd"><path d="m0 0h16v16h-16z"/><path d="m8.5293303 13.8972397c.4417972 0 .8000002.3578129.8000002.8000002s-.3582029.8000002-.8000002.8000002h-3.0585933c-.4417968 0-.8000002-.3578129-.8000002-.8000002s.3582034-.8000002.8000002-.8000002zm.6988286-12.8609371c.7511721-.6992187 2.0191403-.7101562 3.0164061-.0234375 1.0874996.7484374 1.7605467 2.2593748 1.7140627 3.8476562-.0801268 2.7632814-1.8224125 5.2685547-4.5479001 6.5476559-.2096195.4314451-.4220705.8621092-.6599121 1.2843752-.0851565.1515627-.2449227.2445307-.4183598.2445307h-2.6648436c-.1734376 0-.3332034-.092968-.4183598-.2445307-.2377438-.422266-.4501953-.8527346-.6597652-1.2839842-2.7254396-1.2791996-4.4679201-3.7845707-4.5480471-6.5480471-.0464843-1.5882811.6265625-3.0992187 1.7140625-3.8476562.9953124-.6859374 2.2632811-.6757812 3.0152342.0226564.4894533.4547851.6592288 1.0911133.5208988 1.7976563h3.4165526c-.1383305-.7061525.0312013-1.3419923.5199708-1.796875zm-5.1109376.7023436c-.3554687-.33125-1.1125001-.4210938-1.8171875.0648437-.8136718.5601564-1.335547 1.7773438-1.2992189 3.0289061.0585938 2.0195313 1.1607423 3.8774419 2.9328127 5.0886722-.519043-1.2912111-.9292483-2.610547-1.1960938-3.9535155-.028125-.1414065.0085938-.2875004.0996094-.3984375.0914061-.1109376.2273438-.1750002.3710935-.1750002h7.5835943c.1437493 0 .2796869.0640626.3710937.1750002.0910149.1109371.1277342.257031.0996094.3984375-.2668457 1.3429684-.6770515 2.6623044-1.1960945 3.9535155 1.7720709-1.2112303 2.874219-3.0691409 2.9328128-5.0886722.0363283-1.2515623-.4855471-2.4687498-1.2992182-3.0289061-.7046881-.484375-1.4625005-.3945313-1.8179693-.0648437-.27456.255664-.3314448.6501954-.1816893 1.1189454.3818846.0605469.6789551.3763671.6789551.7755859 0 .4421876-.3582029.8-.8000002.8h-5.1585937c-.4417968 0-.7999997-.3578125-.7999997-.8 0-.3992188.2971191-.7151367.6790037-.7755859.1499023-.469043.0926757-.8634766-.1825195-1.1189454z" fill="currentColor" transform="translate(1)"/></g></svg>