<svg height="16" viewBox="0 0 16 16" width="16" xmlns="http://www.w3.org/2000/svg"><g fill="none" fill-rule="evenodd"><path d="m0 0h16v16h-16z"/><path d="m4.22706655 6.7653885h7.54586745c2.3248882 0 4.2270632 1.9021816 4.2270632 4.2270699v.0000086c0 2.3248873-1.902175 4.2270689-4.2270632 4.2270689h-7.54586745c-2.3248883 0-4.2270694-1.9021817-4.2270694-4.2270699v-.0000076c0-2.3248883 1.9021811-4.2270699 4.2270694-4.2270699zm-1.5011938-.9981764.4316247-.8499691c.2336984-.4602056.7059293-.7502885 1.2220726-.7506976l4.7826958-.005054c.543396 0 .96603685-.4226418.96603685-.9660382s-.42264095-.9660375-.96603695-.9660375h-3.290566c-.4226418 0-.7245283-.3018868-.7245283-.7245283s.3018866-.7245283.7245283-.7245283h3.89434c.60377315 0 1.14716915.3622641 1.44905575.9056605l2.0589495 4.0811925z" fill="currentColor"/></g></svg>