<svg height="16" viewBox="0 0 16 16" width="16" xmlns="http://www.w3.org/2000/svg"><g fill="none" fill-rule="evenodd"><path d="m0 0h16v16h-16z"/><path d="m12.4960938 7.5411706c-.3242798 0-.5871582-.2576151-.5871582-.5754156 0-.3178.2628784-.5754151.5871582-.5754151s.5871582.2576151.5871582.5754151c0 .3178005-.2628785.5754156-.5871582.5754156m-1.2196656-1.1952667c-.3242798 0-.5871582-.2576151-.5871582-.5754151 0-.3178005.2628784-.5754151.5871582-.5754151s.5871582.2576146.5871582.5754151c0 .3178-.2628784.5754151-.5871582.5754151m0 2.3905329c-.3242798 0-.5871582-.2576151-.5871582-.5754156 0-.3178.2628784-.5754151.5871582-.5754151s.5871582.2576151.5871582.5754151c0 .3178006-.2628784.5754156-.5871582.5754156m-1.2196655-1.1952662c-.3242798 0-.5871582-.2576151-.5871582-.5754156 0-.3178.2628784-.5754151.5871582-.5754151.3243103 0 .5871582.2576151.5871582.5754151 0 .3178005-.2628479.5754156-.5871582.5754156m-5.817627.6755366c-.7048035 0-1.2764587-.5602288-1.2764587-1.2509522s.5716553-1.2509518 1.2764587-1.2509518c.7054138 0 1.2764893.5602288 1.2764893 1.2509518s-.5710754 1.2509522-1.2764893 1.2509522m11.7512207 2.5840254c0-.2401791-.6514587-7.2627201-3.3100281-8.2920551-1.2047424-.4662945-1.9072571.9089649-3.2158813.9089649h-1.4641724-1.4647217c-1.3086243 0-2.0111389-1.3752594-3.2158813-.9089649-2.6585693 1.0293353-3.3100281 8.0518761-3.3100281 8.2920551 0 .2396154-.0849304 2.7870798 1.2713318 2.7870798s3.0132751-1.9428005 3.7622681-2.4687176c.7484436-.5259171 1.8642273-.5124178 1.8642273-.5124178h1.092804 1.0922546s1.1157837-.0134993 1.8642273.5124178c.7489929.5259171 2.4060059 2.4687176 3.7622681 2.4687176s1.2713317-2.5474643 1.2713317-2.7870798" fill="currentColor"/></g></svg>