<svg height="16" viewBox="0 0 16 16" width="16" xmlns="http://www.w3.org/2000/svg"><g fill="none" fill-rule="evenodd"><path d="m0 0h16v16h-16z"/><path d="m11.3262987 6.7099886.4388666.0792966c.1244631.3847656.2093754.7872562.2093754 1.2127929-.0011721 2.1904297-1.7841797 3.9724607-3.9745607 3.9724607-2.1916018 0-3.9746094-1.7830076-3.9746094-3.9746089 0-2.1913085 1.7827635-3.9741697 3.9739747-3.9746094.4232421.0002928.8234859.0847168 1.2063479.2080078l.0787106.4454103-2.3034668 2.3035154c-.5615234.5614748-.5615234 1.4750977 0 2.0365725.2720213.2720213.6336427.4218264 1.0182614.4218264.3846192 0 .7462401-.1498051 1.0182624-.4218264zm2.1757317.3930664-.0067864-.0012207c.0478516.2939939.0792961.5936036.0792961.901123-.0016594 3.0775881-2.4970207 5.5715818-5.5745602 5.5715818-3.0788088 0-5.5746098-2.4958496-5.5746098-5.5746093s2.4958011-5.5746092 5.5746099-5.5746092c.3072262.0001464.6065426.0316894.9002437.0796385l-.0015134-.0085449.3535643-.3535643.9987307-.9987305c-.7088863-.2329591-1.4642574-.3633301-2.2510253-.3637696-3.9872561 0-7.2195802 3.2323241-7.2195802 7.2195802s3.2323241 7.2195802 7.2195802 7.2195802c3.9857426 0 7.2173824-3.2299318 7.2195797-7.2156248 0-.7880373-.1304684-1.5445805-.3637695-2.25459l-.9985839.9985836zm2.4499511-3.8075197-2.175683-.3930175.7498531-.7498047c.1875-.1875.1875-.4914062 0-.6789062-.187109-.1863282-.4910154-.1875-.6789064 0l-.7568846.7568359-.3857422-2.1824708-2.7735347 2.7735352.3856936 2.182373-2.6570315 2.656836c-.1875.1875-.1875.4914064 0 .6789064.09375.09375.2164059.140625.3394527.140625.1226563 0 .2457032-.046875.3394532-.140625l2.6639652-2.6637697 2.1758299.3930173z" fill="currentColor"/></g></svg>