<svg height="16" viewBox="0 0 16 16" width="16" xmlns="http://www.w3.org/2000/svg"><g fill="none" fill-rule="evenodd"><path d="m0 0h16v16h-16z" fill="#606060" fill-rule="nonzero" opacity="0"/><path d="m13.92 1.66664h-11.84c-.10962897 0-.21476767.04355062-.29228612.12107095-.07751845.07752032-.12106388.18266008-.12106388.29228905v11.84c0 .1096218.04355435.2147523.12107337.292262.07751903.0775096.1826548.121038.29227663.121038h11.84c.1096236 0 .2147587-.0435401.2922743-.1210557s.1210557-.1826507.1210557-.2922743v-11.83997c0-.228283-.185047-.41336-.41333-.41336zm-3.04594 2 1.126.619-.37536 2.04766-2.62728-1.7143zm-6.59058 8.66666-1.28333-1.111 1.09998-2.2223 2.56665 2.77767zm7.82356 0h-1.29467l-7.81222-8.25c.08693109-.0340452.17060519-.07588225.25-.125.1822883-.14535638.39650437-.2453216.625-.29166.13677113-.01084622.27209082.03426035.375.125.20833.16666.97664.71069.97664.71069l.13933.24767c.25366.0127.26.03569.58032.271l7.05356 4.78468c-.05429.11763-.893 2.52762-.893 2.52762z" fill="currentColor"/></g></svg>