<svg height="16" viewBox="0 0 16 16" width="16" xmlns="http://www.w3.org/2000/svg"><g fill="none" fill-rule="evenodd"><path d="m0 0h16v16h-16z"/><path d="m11.1333333 7.53333333v.46666667h-.8666666v-.46666667c0-.26666666-.2-.46666666-.4666667-.46666666-.26666667 0-.46666667.26666666-.46666667.46666666v.46666667h-.86666666v-.46666667c0-.73333333.6-1.33333333 1.33333333-1.33333333.7333333 0 1.3333333.6 1.3333333 1.33333333zm-5.3333333 0c0-.26666666.2-.46666666.46666667-.46666666.26666666 0 .4.26666666.4.46666666v.46666667h.86666666v-.46666667c0-.73333333-.6-1.33333333-1.33333333-1.33333333s-1.33333333.6-1.33333333 1.33333333v.46666667h.86666666v-.46666667zm3.66666667 1.66666667c-.4.33333333-.93333334.53333333-1.46666667.53333333s-1.06666667-.2-1.46666667-.53333333l-.33333333-.26666667-.6.66666667.33333333.26666667c.6.53333333 1.33333334.80000003 2.06666667.80000003s1.46666667-.2666667 2.0666667-.80000003l.3333333-.26666667-.6-.66666667zm3.00000003-1.2c0 2.4666667-2 4.4666667-4.4666667 4.4666667-2.46666667 0-4.46666667-2-4.46666667-4.4666667 0-2.46666667 2-4.46666667 4.46666667-4.46666667.66666667 0 1.26666667.13333334 1.8.4v-.93333333c-.53333333-.2-1.2-.33333333-1.8-.33333333-2.93333333 0-5.33333333 2.4-5.33333333 5.33333333 0 2.9333333 2.4 5.3333333 5.33333333 5.3333333 2.9333333 0 5.3333333-2.4 5.3333333-5.3333333 0-.4-.0666666-.8-.1333333-1.13333333h-.9333333c.1333333.33333333.2.73333333.2 1.13333333zm.7333333-6h-1v1.46666667h-1.5333333v1h1.4666666v1.53333333h1v-1.46666667h1.5333334v-1.06666666h-1.4666667z" fill="currentColor"/></g></svg>