<svg  viewBox="0 0 90 90" xmlns="http://www.w3.org/2000/svg">
    <path
      d="M77.636 63.963l-6.25-6.25a13.899 13.899 0 1 0-4.143 4.107l6.268 6.268a2.917 2.917 0 1 0 4.125-4.125zM51.601 50.125a8.152 8.152 0 1 1 16.305 0 8.152 8.152 0 0 1-16.305 0z"
      fill="var(--rgb-color-primary)"/>
    <path
      d="M32.627 71.055l-.907 1.83-.927 1.87a.45.45 0 1 1-.806-.4l1.834-3.7a.45.45 0 0 1 .806.4zm3.14-13.082l-9.17 2.87a.45.45 0 1 0 .269.858l9.17-2.87a.45.45 0 0 0-.268-.858zm31.124-35.717a.449.449 0 0 0 .33-.143l1.795-1.93 1.464-1.572a.45.45 0 0 0-.658-.613l-1.394 1.497-1.866 2.004a.45.45 0 0 0 .329.757zM55.785 73.428a.45.45 0 0 0-.845.309l.328.896a.45.45 0 0 0 .845-.309l-.328-.896zm19.368-38.51a2.967 2.967 0 0 0-1.731-1.493l-16.57-5.474v-8.96a2.991 2.991 0 0 0-2.988-2.988H30.183a2.991 2.991 0 0 0-2.989 2.988.45.45 0 0 0 .9 0 2.09 2.09 0 0 1 2.089-2.088h23.68a2.09 2.09 0 0 1 2.09 2.088v16.502a.45.45 0 0 0 .9 0v-6.595l16.287 5.38a2.088 2.088 0 0 1 1.327 2.639l-1.509 4.569a.45.45 0 1 0 .854.282l1.51-4.569a2.97 2.97 0 0 0-.168-2.28zm-9.23 29.297a.447.447 0 0 0-.568.286l-1.477 4.47A2.088 2.088 0 0 1 61.24 70.3l-20.451-6.756 3.937-1.232a.45.45 0 1 0-.269-.86l-19.485 6.099c-1.1.342-2.27-.27-2.616-1.37L12.273 33.963c-.343-1.1.27-2.27 1.37-2.617l13.551-4.24v12.752l-6.514 2.039a.45.45 0 0 0 .269.858l6.245-1.954v4.244l-5.039 1.577a.45.45 0 1 0 .27.859l4.77-1.493v4.26l-3.559 1.114a.45.45 0 1 0 .269.859l3.29-1.03v1.56c0 .915.42 1.78 1.14 2.344l-3.218 1.008a.45.45 0 1 0 .268.858l4.144-1.297c.215.05.435.074.655.075l15.68-.064a.45.45 0 0 0-.002-.9h-.002l-15.677.064a2.09 2.09 0 0 1-2.089-2.089V23.175a.45.45 0 0 0-.9 0v2.987l-13.82 4.326a2.992 2.992 0 0 0-1.96 3.744L21.497 66.45a2.987 2.987 0 0 0 3.744 1.96l14.075-4.405 21.641 7.149a2.987 2.987 0 0 0 3.775-1.9l1.477-4.47a.45.45 0 0 0-.286-.57zM21.72 35.733a1.883 1.883 0 0 1-1.794 2.442 1.881 1.881 0 1 1 1.794-2.442zm-.859.268a.984.984 0 0 0-1.806-.163.981.981 0 0 0-.068.748.982.982 0 0 0 1.874-.585zm12.884 13.82h2.622a.45.45 0 0 0 0-.9h-2.622a.45.45 0 0 0 0 .9zm4.95-.9a.45.45 0 0 0 0 .9h1.384a.45.45 0 0 0 0-.9h-1.384zm-5.4-14.447a.45.45 0 0 0 .45.45h16.557a.45.45 0 0 0 0-.9H33.745a.45.45 0 0 0-.45.45zm.45 5.416h4.422a.45.45 0 0 0 0-.9h-4.422a.45.45 0 0 0 0 .9zm9-.9a.45.45 0 0 0 0 .9h4.545a.45.45 0 0 0 0-.9h-4.545zm-9 5.866h9.034a.45.45 0 0 0 0-.9h-9.034a.45.45 0 0 0 0 .9zm5.021-15.612a.787.787 0 0 0 1.114 0l2.143-2.143 2.143 2.143a.787.787 0 0 0 1.114-1.113l-2.143-2.143 2.143-2.144a.787.787 0 0 0-1.114-1.113l-2.143 2.143-2.143-2.143a.787.787 0 0 0-1.114 1.113l2.144 2.144-2.144 2.143a.787.787 0 0 0 0 1.113zM18.928 19.44h.001l.677.68a.45.45 0 1 0 .637-.636l-2.308-2.315a.45.45 0 0 0-.637.635l1.63 1.636zm-4.211 36.672l-.87.332-1.545.591a.45.45 0 0 0 .321.84l2.416-.923a.45.45 0 0 0-.322-.84zm53.639-5.987a8.602 8.602 0 1 1-8.603-8.603 8.612 8.612 0 0 1 8.603 8.603zm-.9 0a7.702 7.702 0 1 0-7.703 7.702 7.711 7.711 0 0 0 7.703-7.702zm-7.703-5.982a5.95 5.95 0 0 0-2.263.443.45.45 0 1 0 .341.833 5.088 5.088 0 0 1 5.008.668.45.45 0 0 0 .548-.715 5.927 5.927 0 0 0-3.634-1.23zm4.8 3.194a.45.45 0 0 0-.211.6c.176.37.307.76.39 1.16a.45.45 0 0 0 .881-.18 5.968 5.968 0 0 0-.46-1.368.45.45 0 0 0-.6-.212z"
      fill="#000"/>
</svg>
