<svg height="16" viewBox="0 0 16 16" width="16" xmlns="http://www.w3.org/2000/svg"><g fill="none" fill-rule="evenodd"><path d="m0 0h16v16h-16z"/><path d="m8.00002672.78041192c-3.98730504 0-7.21962888 3.23232424-7.21962888 7.21953128 0 3.9873047 3.23232424 7.2196297 7.21962888 7.2196297 3.98725588 0 7.21957928-3.232325 7.21957928-7.2196297 0-3.98720704-3.2323234-7.21953128-7.21957928-7.21953128zm0 11.79257778c-.44184568 0-.8-.3581055-.8-.8 0-.4417969.35815432-.8.8-.8.44179688 0 .8.3582031.8.8 0 .4418945-.35820312.8-.8.8zm.8-3.2785157c0 .44218752-.35820312.8-.8.8s-.8-.35781248-.8-.8v-5.06718712c0-.44218752.35820312-.8.8-.8s.8.35781248.8.8z" fill="currentColor"/></g></svg>