<svg height="16" viewBox="0 0 16 16" width="16" xmlns="http://www.w3.org/2000/svg"><g fill="none" fill-rule="evenodd"><path d="m0 0h16v16h-16z" fill="#fff" fill-rule="nonzero" opacity="0"/><path d="m4.84968558 9.02863148-1.60428511 1.54184922c-.63297338-.57871561-1.17114019-1.2463621-1.59617452-1.98020448-.19967067-.37157398-.19892596-.81337599.00199633-1.18432501.0863849-.15945232 2.16354008-3.90594712 6.34877772-3.90594712.75401162-.00083677 1.50221115.12685256 2.2099098.37715149l-1.13731213 1.09313593c-.34445095-.11820233-.70690944-.18057413-1.07259767-.18457191-1.84525168 0-3.34112632 1.4390815-3.34112632 3.21428449.00422775.35064663.06870147.69821311.1908119 1.02862739zm9.49909852-1.62268027c-.4266659-.73098276-.9649026-1.39625459-1.5967425-1.97360717l-1.6016038 1.53918136c.122032.33037506.1864653.67788231.1906949 1.02847268-.0000461 1.77517861-1.49589371 3.21423412-3.34112949 3.21427852-.36558091-.0040238-.72793802-.0663394-1.07232717-.1844112l-1.138966 1.0947029c.70839174.2493471 1.45697497.3764369 2.21129317.3754257 4.20206349 0 6.26502719-3.75010475 6.35079399-3.90971778.1996457-.37158119.1988947-.81337394-.0020131-1.18432501zm-9.82415701 4.84198109 7.89508911-7.58745706c.2609236-.2510306.2609124-.65802083-.0000251-.90903812s-.6839895-.2510065-.9449132.0000241l-7.89441248 7.58743288c-.16927549.1621788-.23562472.3989851-.17400455.6210379.06162018.2220528.24182582.3955363.47259932.4549701s.47697111-.004233.6456669-.1669698z" fill="currentColor"/></g></svg>