<svg height="16" viewBox="0 0 16 16" width="16" xmlns="http://www.w3.org/2000/svg"><g fill="none" fill-rule="evenodd"><path d="m0 0h16v16h-16z" fill="#fff" fill-rule="nonzero" opacity="0"/><path d="m10.0046809 8c0 1.06512059-.89752481 1.92857143-2.00467774 1.92857143-1.10715292 0-2.0046777-.86345084-2.0046777-1.92857143s.89752478-1.92857143 2.0046777-1.92857143c1.10663961.00119127 2.00343944.86394467 2.00467774 1.92857143zm4.3461162.59027946c-.0857501.1596134-2.1487055 3.90972054-6.3507971 3.90972054-4.20208531 0-6.26504066-3.75010714-6.35077405-3.90972054-.19967067-.37157481-.19892596-.81337781.00199633-1.18432767.0863849-.15946072 2.16354006-3.90595179 6.34877772-3.90595179 4.185244 0 6.2624158 3.74649107 6.348759 3.90595179.2009235.37094406.2016931.81273781.0020631 1.18432767zm-3.0096644-.59027946c0-1.77520098-1.49587466-3.21428571-3.34112954-3.21428571-1.84525487 0-3.34112951 1.43908473-3.34112951 3.21428571s1.49587464 3.2142857 3.34112951 3.2142857c.88612264 0 1.73595201-.338647 2.36253534-.9414425.6265833-.60279548.9785942-1.42036163.9785942-2.2728432z" fill="currentColor"/></g></svg>