<svg height="20" viewBox="0 0 20 20" width="20" xmlns="http://www.w3.org/2000/svg"><g fill="none" fill-rule="evenodd"><path d="m0 0h20v20h-20z"/><path d="m11.7931289 11.7931289h3.1034531v-3.10345312h-3.1034531v-1.86208594c0-.34136718.2793164-.62068359.6206836-.62068359h2.7930938v-3.10348828h-3.1034532c-1.9241367.15517969-3.41377732 1.76895703-3.41377732 3.72413672v1.86208594h-2.48276953v3.10345317h2.48276953v6.2069062h-7.44830859c-.68273438 0-1.24136719-.5586328-1.24136719-1.2413672v-15.51726561c0-.68273438.55863281-1.24136719 1.24136719-1.24136719h15.51726561c.6827344 0 1.2413672.55863281 1.2413672 1.24136719v15.51726561c0 .6827344-.5586328 1.2413672-1.2413672 1.2413672h-4.9655039z" fill="currentColor" transform="translate(1 1)"/></g></svg>