<svg height="16" viewBox="0 0 16 16" width="16" xmlns="http://www.w3.org/2000/svg"><g fill="none" fill-rule="evenodd"><path d="m0 0h16v16h-16z" fill="#c8cad0" opacity="0"/><path d="m14.25529 7.31055c-.07886-.0916-.17705-.1707-.26558-.25625.6156528-.68267734.7550003-1.6708436.3521383-2.49714801-.402862-.82630442-1.2671887-1.32513266-2.184199-1.26056517-.9170102.06456749-1.7029097.67958961-1.9860093 1.55419318-1.59874172-.56344266-3.37197748-.30946867-4.74829.68008l-4.66335 3.36289c-.01075135.00482587-.02044353.01172797-.02852.02031-.12968374.08981764-.2092249.23569749-.21448.39336v3.67734c0 .1791632.09991344.3433729.259.42578 0 0 1.44746.75156 2.06631 1.073.12619204.0663524.27526743.0735018.40723.01953.642-.25645 1.54834-.61992 1.54834-.61992.84913282-.3390522 1.81678405-.1716951 2.50272.43285.89624014.7855263 2.04808025 1.2174308 3.23984 1.2148516.6856493-.0025655 1.3641605-.139384 1.99722-.4027416.9926969-.4136351 1.8128995-1.1561515 2.32295-2.10293 1.0156153-1.8435288.7739745-4.12478111-.60532-5.71463zm-1.94453-3.06016198c.5236358-.00090949.9967081.31241503 1.2001796.79490297.2034714.48248794.0976217 1.03995145-.2685396 1.41427901-.05859-.03789-.18771-.119-.25177-.15619-.47807-.27746-.8226-.45182-1.94183-1.05729.1411635-.5829098.6622033-.9940158 1.26196-.99570198zm2.14375 7.08200198c-.3184121 1.6128337-1.5854992 2.8700241-3.20078 3.17578-1.1888642.2232785-2.41425811-.1142732-3.32109-.91484-.95663606-.8424607-2.30575554-1.0753377-3.48946-.60233l-.90117.35859v-2.72342l4.77969-3.44531.00547-.00312c1.25643139-.7555933 2.8174162-.79564182 4.11094-.10547.4123297.2200535.781323.51307699 1.08906.86484.8178213.92731477 1.1602377 2.1810188.92734 3.39531zm-9.009-8.26406v-2.1195c0-.26503317.21485183-.479885.479885-.479885s.479885.21485183.479885.479885v2.11953c0 .26503317-.21485183.479885-.479885.479885s-.479885-.21485183-.479885-.479885zm-2.54451-.61091c-.08568837-.14848851-.08565001-.33141175.00010063-.47986431s.244186-.23988096.41562501-.23984502c.171439.00003597.329836.09153082.41552436.24001933l1.05975 1.83516c.13246274.22954335.05376335.52300726-.17578.65547s-.52300726.05376335-.65547-.17578zm-2.31954 1.34688c.06353807-.1103087.16833377-.190823.29128848-.22379625s.25397486-.01569864.36418152.04801625l1.83555 1.05937c.14938862.08524151.24173157.24391608.24204742.4159131.00031424.17199702-.09144681.33100882-.24052215.41679702-.14907534.08578821-.33266327.08523116-.48121527-.00146012l-1.83555-1.05937c-.11034534-.06350389-.19089144-.16830019-.22386851-.2912691-.03297706-.12296891-.0156752-.25400549.04808851-.3642009zm11.92041 6.77344c.0000404.7975197-.4803427 1.5165329-1.2171432 1.8217585s-1.58491459.1365531-2.14886045-.4273641c-.56394586-.5639173-.73266132-1.4120229-.4274731-2.14883884.30518822-.73681596 1.02417708-1.21723556 1.82169675-1.21723556 1.0889388 0 1.9717137.88273122 1.97178 1.97167z" fill="currentColor"/></g></svg>