<svg height="14" viewBox="0 0 14 14" width="14" xmlns="http://www.w3.org/2000/svg" xmlns:xlink="http://www.w3.org/1999/xlink"><defs><circle id="a" cx="7" cy="7" r="7"/><mask id="b" fill="#fff"><use fill="#fff" fill-rule="evenodd" xlink:href="#a"/></mask></defs><g fill="none" fill-rule="evenodd"><g mask="url(#b)"><g transform="translate(2 .5)"><path d="m.03270943 6.9443776c-.07832898-.68699187-.01305483-1.35020325.16449086-1.96321138.59007833-2.03719512 2.44125327-3.53536585 4.63707572-3.56178862v-1.33170731c0-.07398374.09138381-.11361789.15143603-.06869919l2.7075718 2.01341463c.04438643.0343496.04438643.10304878 0 .1347561l-2.70496083 2.01341464c-.06266319.04491869-.15143603.00528455-.15143603-.06869919v-1.32906504c-1.44386423.02378049-2.67624021.92479675-3.20626632 2.19837398-.20104439.48089431-.30287206 1.01199187-.27415144 1.5695122.03916449.76626016.32375979 1.47174796.77284595 2.04247967.24020888.30386179.18276763.74776423-.12793733.97764228-.29503917.21930894-.7075718.15853658-.93472585-.13211382-.55613577-.70284553-.92689295-1.55894309-1.03394256-2.49430895z" fill="#76a963"/><path d="m7.86657963 4.38665403c.45169713.56808943.73629243 1.27621951.77284596 2.04247967.02872062.5601626-.07571802 1.09126016-.27415144 1.5695122-.53002611 1.27357723-1.76240209 2.1772358-3.20626632 2.198374v-1.32906506c0-.07398374-.09138381-.11361789-.15143603-.06869919l-2.7075718 2.01341465c-.04438642.0343496-.04438642.1030488 0 .1347561l2.70496084 2.0134146c.06266318.0449187.15143603.0052846.15143603-.0686992v-1.3317073c2.19582245-.0237805 4.04960835-1.5219512 4.63707571-3.5617886.1775457-.61300813.24020892-1.27621952.16449087-1.96321139-.10443865-.93536585-.47519583-1.79146341-1.0313316-2.49430894-.22976501-.29065041-.63968668-.35142276-.93472584-.13211382-.308094.22987805-.36553525.67378049-.12532638.97764228z" fill="#f14c45"/></g></g></g></svg>