<svg height="16" viewBox="0 0 16 16" width="16" xmlns="http://www.w3.org/2000/svg"><g fill="none" fill-rule="evenodd"><path d="m0 0h16v16h-16z"/><path d="m8 4v2l2.6666667-2.66666667-2.6666667-2.66666666v2c-2.94666667 0-5.33333333 2.38666666-5.33333333 5.33333333 0 1.04666667.30666666 2.02.82666666 2.84l.97333334-.97333333c-.3-.55333334-.46666667-1.19333334-.46666667-1.86666667 0-2.20666667 1.79333333-4 4-4zm4.5066667 1.16-.9733334.97333333c.2933334.56.4666667 1.19333334.4666667 1.86666667 0 2.2066667-1.7933333 4-4 4v-2l-2.66666667 2.6666667 2.66666667 2.6666666v-2c2.9466667 0 5.3333333-2.3866666 5.3333333-5.3333333 0-1.04666667-.3066666-2.02-.8266666-2.84z" fill="currentColor"/></g></svg>