<svg height="16" viewBox="0 0 16 16" width="16" xmlns="http://www.w3.org/2000/svg"><g fill="none" fill-rule="evenodd"><path d="m0 0h16v16h-16z" fill="#c6c8ce" fill-rule="nonzero" opacity="0"/><path d="m11.892 6.797v2.33439c.0002318.53147804.431022.9622682.9625.9625h2.02973v1.22111c-.0024643 1.9703919-1.5991781 3.5671057-3.56957 3.56953h-2.83512v-4.91408c.91397909-.21847247 1.5587004-1.03546738 1.5587004-1.975195s-.64472131-1.75672253-1.5587004-1.975195v-4.9043h2.83516c1.9703919.00242433 3.5671057 1.59913808 3.56953 3.56953v1.14922h-2.02969c-.5314898.00020969-.9623027.43100025-.96254.96249zm-5.93029 1.19825c.00247928-.93878313.64600095-1.75439094 1.55845-1.9752v-4.90429h-2.83516c-1.97031489.00245776-3.56689752 1.59921486-3.56914 3.56953v1.14922h2.04688c.53162022.00017621.96265866.4308701.96326.96249v2.33439c-.00059584.53163162-.43164808.9623348-.96328.9625h-2.04686v1.22111c.00225349 1.9703073 1.59883291 3.5670523 3.56914 3.56951h2.83516v-4.91406c-.91248415-.22075431-1.55603213-1.03639547-1.55845-1.9752zm6.8897 1.13613 2.03281.002v-2.33754l-2.02969-.002zm-9.6875.00312.002-2.3375-2.05-.00176v2.3375l2.04688.00176zm4.836-2.21758c-.59553969 0-1.07833.48277031-1.07833 1.07831s.48277031 1.07833 1.07831 1.07833 1.07833-.48277031 1.07833-1.07831c-.00066678-.59524377-.48302626-1.07762562-1.07827-1.07833z" fill="currentColor"/></g></svg>