<svg height="16" viewBox="0 0 16 16" width="16" xmlns="http://www.w3.org/2000/svg"><g fill="none" fill-rule="evenodd"><path d="m0 0h16v16h-16z"/><path d="m1.9378447 9.7387343c.3028809-.5889645 1.0257813-.8221188 1.6162111-.5176268.5893063.3033208.8208985 1.0269041.5175781 1.6162109-.189209.3678227-.0386234.8381835.3288574 1.0273438.3682127.1892576.8316893.0354004 1.0269532-.3288088.1999998-.3730469.4746093-.8714352.7872558-1.4330071.4847169 1.071435.9211912 2.0235348 1.2444825 2.706933-.5893554 1.0381841-1.7358889 1.5927734-2.8744144 1.5350103-.4349609-.0220709-.8716307-.1345701-1.2829099-.3463383-1.550586-.7983399-2.1623536-2.7091303-1.3640138-4.259717zm3.0791674-8.0205707s4.2510019 7.3854474 5.5548558 9.8176831c.1952639.3642492.658741.5180635 1.026969.3288479.3674479-.1891766.5180244-.6595211.3288279-1.027359-.3032999-.5892935-.071703-1.3128967.5175905-1.6161966.5904036-.3045301 1.3133068-.0713329 1.6161966.5175896.7983541 1.5505972.1865883 3.4613981-1.3640089 4.2597532-.4112825.2117395-.8479385.3242464-1.2829256.3463182-1.2031403.0610495-2.4232979-.5548038-2.9764366-1.7103472-1.2591391-2.6304254-4.9078338-10.9162892-4.9078338-10.9162892zm7.4520335-.0000343s-1.1899693 2.70240679-2.4453167 5.51052908l-.3330523.74401182c-.369092-.6541014-.7561035-1.3366699-1.138525-2.0089841 1.2838373-2.2539063 2.4301262-4.2455568 2.4301262-4.2455568z" fill="currentColor"/></g></svg>