<svg height="24" viewBox="0 0 32 24" width="32" xmlns="http://www.w3.org/2000/svg" xmlns:xlink="http://www.w3.org/1999/xlink"><defs><linearGradient id="a" x1="55.137446%" x2="100%" y1="59.766512%" y2="40.233488%"><stop offset="0" stop-color="#090a0b" stop-opacity=".202729"/><stop offset="1" stop-color="#090a0b" stop-opacity="0"/></linearGradient><path id="b" d="m13.0614014.06436367c.0774468 0 .1543221.00086589.2305528.00257182.9563777.01096921 1.8251454.09355103 2.5000014.22319331.5621704.10799128 1.3617309.4761809 1.3617309.4761809 2.2808594.8538905 4.2981812 1.72069422 6.3063111 2.51837099 1.2071045.47953955 2.0388428 1.58472604 2.1535278 2.86164785l.3404174 3.78913304c.007483.08356842-.042517.16188932-.1222412.19143052l-5.3721313 1.9932813c-.3188355 3.3886626-.6328247 6.125559-.5993286 11.4484866h-13.62154542c.03344116-5.3158526-.279657-8.0472038-.59805908-11.4349557l-5.37385864-2.0066168c-.0795288-.0297036-.12929076-.1078591-.12177124-.19133137l.34034424-3.78942755c.11472168-1.27692181.94642336-2.38210826 2.15360108-2.86164785 2.00811768-.79767677 4.02544556-1.66448049 6.3062378-2.51837099 0 0 .80667724-.36952555 1.36126706-.47608324.7316162-.14056514 1.6911499-.22586326 2.742981-.22586326z"/><mask id="c" fill="#fff"><use fill="#fff" fill-rule="evenodd" xlink:href="#b"/></mask></defs><g fill="none" fill-rule="evenodd"><path d="m20.1602273 23.9329545 11.4911258-10.9329545h-20.3823257l-4.35500279 10.9329545z" fill="url(#a)"/><use fill="currentColor" fill-rule="nonzero" xlink:href="#b"/><g fill="currentColor" mask="url(#c)"><path d="m0 0h26v26h-26z"/></g><g stroke="#fff" stroke-linecap="round" stroke-linejoin="round" stroke-width="1.15936"><path d="m25.6135254 6.14632854c-.114685-1.27692181-.9464233-2.3821083-2.1535278-2.86164785-2.0081299-.79767677-4.0254517-1.66448049-6.3063111-2.51837099 0 0-.7995605-.36818962-1.3617309-.4761809-.731543-.14053205-1.6909424-.22576556-2.7425171-.22576556-1.0518311 0-2.0113648.08529812-2.742981.22586326-.55458982.10655769-1.36126706.47608324-1.36126706.47608324-2.28079224.8538905-4.29812012 1.72069422-6.3062378 2.51837099-1.20717772.47953959-2.0388794 1.58472604-2.15360108 2.86164785l-.34034424 3.78942755c-.00751952.08347227.04224244.16162777.12177124.19133137l5.37385864 2.0066168c.31840208 3.3877519.63150024 6.1191031.59805908 11.4349557h13.62154542c-.0334961-5.3229276.2804931-8.059824.5993286-11.4484866l5.3721313-1.9932813c.0797242-.0295412.1297242-.1078621.1222412-.19143052z"/><path d="m20.6144043 10.6791442c.3331299-4.09008766-2.9516235-7.1349189-4.8145996-8.5180738-.6590821.27474051-1.6400635.44944534-2.7384155.44944534-1.1404053 0-2.1213868-.17470479-2.7804566-.44944534-1.86298216 1.3831549-5.14774168 4.42798614-4.8146118 8.5180738.04595336.5646739.08005372.7822555.08005372.7822555.0211914.2134399.0423828.4350969.06363524.6608595.34902344 3.3991969.6621216 6.1305481.62868652 11.4464007h13.62154542c-.0335083-5.3229275.2804931-8.0598239.5993164-11.4484866.0328125-.2279175.0538086-.4473565.0747925-.6587737 0 .0000001.0341064-.2175815.0800537-.7822554z" fill="#fff" fill-rule="nonzero"/><ellipse cx="13.061401" cy="1.337439" rx="3.597793" ry="1.273076"/></g></g></svg>