<svg height="16" viewBox="0 0 16 16" width="16" xmlns="http://www.w3.org/2000/svg"><g fill="none" fill-rule="evenodd"><path d="m0 0h16v16h-16z"/><path d="m8.0000153 13.2650852c.2791996 0 .5439453-.0519037.7998047-.1254883v.8846684c0 .4417963-.3578119.8000002-.7999997.8000002s-.8000003-.3582039-.8000003-.8000002v-.8847656c.2559572.0736322.5208497.1255855.8001953.1255855zm.7998046-5.7099604v-5.5793947c0-.4417969-.3578119-.8000001-.7999997-.8000001s-.8000002.3582032-.8000002.8000001v5.5794919c.2559571-.0736327.5208497-.1255856.8001952-.1255856.2791997.0000001.5439454.0519043.7998047.1254884zm4.8819828-4.6947267v-.884668c0-.4417969-.3578129-.8000001-.8000002-.8000001s-.8000002.3582032-.8000002.8000001v.8847655c.2559576-.0736327.5208502-.1255858.8001471-.1255858.2791987 0 .543994.0519042.7998533.1254883zm-1.6000003 5.5843746v5.5794926c0 .4417963.3578129.8000002.8000002.8000002s.8000002-.3582039.8000002-.8000002v-5.5793944c-.2558594.0735836-.5206547.1254883-.7998533.1254883-.279297 0-.5441895-.0519533-.8001471-.1255865zm-8.1639159-5.5843746v-.884668c0-.4417969-.3578124-.8000001-.8-.8000001s-.8.3582032-.8.8000001v.8847655c.2559569-.0736327.5208495-.1255858.8001952-.1255858.2791992 0 .5439454.0519042.7998048.1254883zm-.7998047 5.7099611c-.2793458 0-.5442383-.0519533-.8001952-.1255865v5.5794926c0 .4417963.3578124.8000002.8.8000002s.8-.3582039.8-.8000002v-5.5793944c-.2558595.0735837-.5206057.1254883-.7998048.1254883zm6.839638 1.7770109c0-1.0812187-.8765011-1.9577188-1.9577198-1.9577188s-1.9577193.8765001-1.9577193 1.9577188.8765006 1.9577199 1.9577193 1.9577199 1.9577198-.8765011 1.9577198-1.9577199zm2.9242334-6.6524598c-1.0812187 0-1.9577188.8765008-1.9577188 1.9577196s.8765001 1.9577193 1.9577188 1.9577193 1.9577198-.8765011 1.9577198-1.9577193-.876501-1.9577196-1.9577198-1.9577196zm-9.7639067 0c-1.0812185 0-1.9577193.8765008-1.9577193 1.9577196s.8765008 1.9577193 1.9577193 1.9577193 1.9577196-.8765011 1.9577196-1.9577193-.8765011-1.9577196-1.9577196-1.9577196z" fill="currentColor"/></g></svg>