<svg height="16" viewBox="0 0 16 16" width="16" xmlns="http://www.w3.org/2000/svg">
  <g fill="none" fill-rule="evenodd">
    <path d="m0 0h16v16h-16z"/>
    <path fill="currentColor" d="m13.3140917 8.84413161c.6261202.03125064 1.1572783-.50828647 1.1846956-1.20520238.0274173-.6969159-.4128338-1.32345164-1.0394382-1.35357673l-4.15981041-.57138364s.86688441-1.58623515.86688441-3.93645592c0-1.56670349-1.02315723-1.77751294-1.62488625-1.77751294-.47335774-.00019863-.60082116 1.00313251-.60082116 1.00313251h-.00096838c-.1071879.64335283-.24675611 1.20520238-.73173445 2.23965174-.54289975 1.15945196-1.28226021 1.05067058-2.14545265 2.08339851-.15233876.18187612-.35703073.48206771-.55651764.8514477-.01628094.01953166-.03147245.04687597-.04617977.0853434-.01779404.04581663-.03909846.07759694-.05786088.1199707-.03304608.06640763-.06554743.13281525-.09750407.20253332-.53424483.58442682-1.36657006.52470631-1.72099826.52470631-.71091421 0-1.08325749.4518764-1.08325749 1.18500862l-.0002421 5.41774979c0 .8225144.30764319 1.0999301 1.08356011 1.0999301h1.0832575c.54538123 0 .97243815.3420357 1.62494676.5925043.89375703.3387252 2.22855203.5929678 4.52785654.5929678.40212109 0 1.64933789.0016552 1.64933789.0016552.3818456 0 .6885809-.1908143.9099169-.4212216.0842494-.0875945.1721301-.2148482.2097155-.463132.0061129-.0384674.0126495-.1997525.0116811-.2215353.0288699-.7102901-.3636278-.9674458-.5859928-1.0484194.0060524-.0022511.0020578-.0083424.0141626-.0078127l.7058908.0345611c.6266043.0312506 1.2450985-.4625361 1.2450985-1.3022648 0-.69632-.5159666-1.1873921-1.1405132-1.2208277l.3742801.019002c.6265438.0301251 1.1561888-.509412 1.1851798-1.2063279.0272963-.6968497-.4581662-1.28657324-1.0842864-1.31789009z"/>
  </g>
</svg>
