<svg height="16" viewBox="0 0 16 16" width="16" xmlns="http://www.w3.org/2000/svg"><g fill="none" fill-rule="evenodd"><path d="m0 0h16v16h-16z"/><path d="m13.8734627 10.0544656c-.0456543-.540088-.155908-1.09663073-.3185056-1.62207033-.7930794-2.5626774-3.2795608-5.45237607-5.69428063-7.55472947-.6084442-.52973633-1.22134207-.32114693-1.32083127.47943227-.14008267 1.12723733-.54098067 2.08801-.8040282 2.54336373-.85883807 1.48691433-2.15532273 2.2450682-2.94345727 3.8041992l-.14902353.3126462c-1.25716127 2.7668457-.18375093 5.7460619 2.01944173 7.2747243.37338607.2590701.63430567.092289.5846084-.3594462-.03717833-.3379427-.05824946-.698363-.05824946-1.0861269 0-.9419607.2388436-1.914032.5769968-2.8195191.17461966-.4675865.4898122-.4684448.69873553-.0151443.27101833.5880279.5335312 1.0608559.72780547 1.3859279.17447026.291935.46116193.2929318.63572246.0010516.30773927-.5145671.78711894-1.4004568 1.19985327-2.5286789.16452407-.4497312.47750347-.47563553.6870594-.04503947.5853354 1.20274927 1.0949701 2.64365837 1.0949701 4.02140237 0 .384641-.0208499.7421938-.0575562 1.0776342-.0495478.4527969.2110456.617733.5861003.3592491 1.1789322-.8125102 2.0104167-2.0253957 2.3595416-3.3815613.1588871-.6172372.2296879-1.2009774.1750971-1.8473149z" fill="currentColor"/></g></svg>