<svg height="16" viewBox="0 0 16 16" width="16" xmlns="http://www.w3.org/2000/svg"><g fill="none" fill-rule="evenodd"><path d="m0 0h16v16h-16z"/><path d="m9.36309828 9.061c-.2365209-.52564-.52364795-1.17-.8394877-1.88253 1.14662391-2.5909 2.44962242-5.57723 2.44962242-5.57723h1.4822235zm5.41440852 4.869c-.8783251.3564461-1.8235998.516415-2.7698987.46875-1.149002-.0261705-2.27085149-.3555132-3.25260103-.95487-.43815787-.27743-.55138363-.60376-.93157772-1.52087l-4.27888086-10.32165h1.48228339s3.26302937 7.47884 4.00382712 9.0293c1.8878536.9545329 4.11635.9488496 5.9993401-.0153.0639769-.0323243.1345686-.0492907.2062031-.04956.2655688.0237042.4872918.2129725.5530884.47213l.0270977.07813c.4692774 1.0654387.0090401 2.3120488-1.0388815 2.81394zm.1752871-2.18209c-1.8233568.7690763-3.8741636.7929797-5.71484513.06661l-.25545334.295c.16181802.3739.20871544.428.30465376.48873.82254141.4983191 1.75987511.7741323 2.72044901.8005.8017431.0439244 1.6035897-.0844713 2.3518496-.37659.482247-.2216368.7334251-.7610542.5933461-1.27425zm-8.59317411-.85262 1.0241064 2.44938c-.04439671.0355946-.09071281.0687113-.13873819.0992-.98174725.599362-2.10359821.9287052-3.25260108.95487-.94629695.0476481-1.89156737-.1123166-2.76989865-.46874-1.04794769-.5018995-1.50817476-1.7485563-1.03884159-2.814l.02705773-.07808c.06578216-.2591732.28750846-.4484603.55308844-.47217.07164781.0003036.14224769.0172824.20624296.0496.937686.4739087 1.97231712.7228288 3.02230126.72713.80966579-.0031504 1.61194046-.1547002 2.36728272-.44718zm-.23790669 2.01658-.33114322-.792c-.58817421.1470423-1.19199569.2217811-1.79816302.22257-1.01119009-.0015277-2.01209981-.2035893-2.94514584-.59456-.14008437.5131727.11106422 1.0525854.59328622 1.27425.74826224.29211 1.55010702.4205054 2.35184965.37659.73494354-.0189875 1.45877239-.1844848 2.12931621-.48685z" fill="currentColor"/></g></svg>