<svg height="16" viewBox="0 0 16 16" width="16" xmlns="http://www.w3.org/2000/svg"><g fill="none" fill-rule="evenodd"><path d="m0 0h16v16h-16z"/><path d="m13.921484 8.3899069c.1035156-.0921879.2566414-.1015625.3714848-.0218754.3420897.2391109.6231937.4754887.8582029.6962404.0509281-.3459959.0859861-.6971197.0859861-1.0572271 0-2.6415524-1.423193-4.9450679-3.540185-6.2035637l-.2188482.7801757c.0621099.171875.1941414.5601563.3183594 1.0765626.03125.1312499-.0281248.2671874-.1460934.3328123-.0457029.0250001-.0957031.0374999-.1457033.0374999-.078125 0-.1554689-.0304685-.2132807-.0890622-.0058594-.0054688-.5671883-.5726564-1.0347662-.9304688-.0085936 0-.7621088-.3898437-1.5648432-.5351562-.1464844-.0265625-.2511721-.15625-.2464848-.3054688.0050783-.1484375.1187496-.2710937.2664061-.2882812.0390625-.0039062.9230471-.1 1.6492186-.0875001l.6256838-.3632812c-.9064455-.4100097-1.9095697-.6438965-2.9690914-.6438965s-2.0625491.2338865-2.9689942.6438962l.6256834.3632812c.7253909-.0132812 1.609375.0835938 1.648828.0875001.1476564.0171875.2613282.1398437.2664065.2882812.0046873.1492188-.0999999.2789063-.2464843.3054688-.8277344.1499999-1.5968751.5570312-1.6046877.5609374-.4265623.33125-.9886718.8992188-.9945312.9046876-.0578126.0585938-.1351561.0890623-.2132811.0890623-.0500002 0-.1000004-.0124998-.1457033-.0374999-.1179686-.065625-.1773438-.2015624-.1460938-.3328123.1242189-.5164063.2562499-.9046876.3183594-1.0765626l-.2188478-.7802246c-2.116992 1.2585449-3.5402341 3.5620604-3.5402341 6.2036128 0 .360157.0350586.7112799.0859864 1.0572758.2350585-.2207518.5161133-.4571781.8582519-.6962891.1132812-.0789061.2671875-.0703125.3714842.0218754.1039064.092968.1304688.2445307.0644531.3671875-.006201.0109367-.5593749 1.0521478-.7871581 2.1135254 1.1087891 2.5620604 3.6571774 4.3560057 6.6265626 4.3560057 2.9694338 0 5.5178709-1.7940922 6.6266603-4.3562498-.2279787-1.0636721-.7809572-2.1023445-.787159-2.1132812-.0660151-.1226569-.0394524-.2742196.0644533-.3671876zm-8.4789057-.5921879c-.0757813.1015625-.2070312.1468749-.328516.1078124-.6445312-.1976561-1.0632811-.2890625-1.2097654-.3179684-.4890626.1195312-1.0480469.335156-1.0539062.3374997-.0351563.0140628-.0718751.0203127-.1082032.0203127-.0399902 0-.0795898-.0084963-.1166015-.0241699-.0121584-.005176-.0215821-.0155272-.0330567-.0223145-.0218263-.0129395-.0448241-.0238281-.0632324-.0425782-.0009277-.0009275-.0007813-.0023437-.0016601-.0032716-.0015626-.0016113-.0038088-.0020995-.0053711-.0037594-.0270508-.0291019-.0361817-.0668459-.0496583-.1026368-.0070801-.0187011-.0226074-.0335937-.0257812-.0532718-.0096681-.0589843-.0025391-.1205564.0242675-.1769042.3253908-.6851563.7160158-1.1445312.859375-1.3007812.2550783-.8601561.594922-1.4312501.6097657-1.4562498.0683591-.1132812.2035158-.1671877.33125-.1359377.1285157.0328126.2203126.1460939.2253904.2789064.0218754.5395017.1061039 1.1342773.1351075 1.3268552l.8191895 1.2223635c.0707031.1054687.0671874.2445311-.0085935.3460936zm.6367188.4117184c.0664062-.109375.195703-.1648436.3199215-.1367188l1.6125002.3507814 1.6113281-.3578119c.124609-.0281258.2550783.0281248.3214846.1374998.0667962.1101561.0554685.2507811-.0277348.3492184l-1.0445309 1.234375-.5816412 1.4328127c-.046093.1117191-.1816406.1828127-.2781248.1867189-.1203122 0-.2289062-.0718756-.2761717-.1828127l-.6058593-1.422656-1.0261721-1.2445316c-.0816403-.0984373-.0914059-.2375002-.0249996-.3468752zm3.9234371 6.3312502c-.0472651.1109381-.1566401.1820316-.2757807.1820316-.0109377 0-.0218754-.0007811-.0332031-.0015631l-1.7296877-.1921873-1.6332035.1914062c-.1343746.0070314-.2546873-.0570307-.3078122-.1773434-.0531249-.1195316-.0222659-.2593756.0761719-.3460941.5374999-.4734373.9492188-.7976561 1.0617185-.8851557.0933595-.1875.2726564-.4945316.5875001-1.0351562.1078124-.1843758.4113278-.1835938.5183597-.000782 0 .000782.4941406.8476562.6125002 1.0492191l1.0398436.8671875c.1015623.0851565.1355465.2265626.0835932.3484374zm3.5097656-6.6914058c-.0582027.0625-.1382809.0960937-.2199221.0960937-.0363274 0-.0730467-.0062499-.108593-.0203128-.0054693-.0023437-.5640631-.2179685-1.0531254-.3374996-.1464844.0289059-.5652342.1203122-1.2097654.3179684-.1199217.0390625-.2531252-.0062499-.328516-.1078124-.0757809-.1015625-.0792971-.2406249-.0085936-.3460937l.8199215-1.2234373c.0292969-.1820316.1125002-.7398438.1343756-1.2757816.0050783-.1312499.0949221-.2437496.2214842-.2781248.1273441-.0335937.2613277.0179687.3312502.1289062.0148439.0234375.3570309.5664062.6128902 1.4117188.1429691.15625.5339842.6156249.859766 1.3015623.0527344.1109376.0324221.242969-.0511722.3328128z" fill="currentColor"/></g></svg>