<svg height="16" viewBox="0 0 16 16" width="16" xmlns="http://www.w3.org/2000/svg"><g fill="none" fill-rule="evenodd"><path d="m0 0h16v16h-16z"/><path d="m8.0512362.7830059c.4797849.003418.9491214.0512695 1.4023437.1438476v.898291c0 .429004.2613277.8123048.6590329.9731445.0121097.0049317.0241699.0098634.036231.0147951.3930664.1622069.8430176.0742188 1.1437006-.2264161l.6376951-.6377441c.295557.1923828.5739746.4070313.8375006.6394532l.6437502.64375c.2226563.2525391.4305658.5175781.616601.7996094l-.6331539.6332521c-.3029299.3029294-.3896971.7570801-.2229986 1.1517086l.0201178.0482912c.1620111.3937988.5439453.6509275.9697752.6509275h.9036131c.0565434.2707033.0957518.547266.1210452.828125v1.3119148c-.024951.2765626-.0626469.5494136-.1179686.8162107h-.9018068c-.4267092 0-.8092775.2581539-.9707031.6531248-.0070801.0173339-.0142088.0345706-.0214844.0518064-.1657228.3940926-.0783691.8472176.2239256 1.1495123l.6341801.6342287c-.1546392.2349605-.3214359.4607419-.5016603.6755857l-.8943357.8943357c-.2217779.1860352-.4557133.3571291-.6989746.5158205l-.6368656-.6368656c-.3009272-.3009768-.7515135-.3890133-1.1446772-.2260256l-.0444832.0182133c-.3973627.1607418-.6580563.5440922-.6580563.9727049v.8985357c-.3774414.0771484-.7679692.1161127-1.1643553.1318359h-.578516c-.413867-.016407-.8202634-.0611334-1.2133789-.1443367v-.9061518c0-.4250489-.2563963-.8059082-.6488767-.9690428-.0100589-.0041504-.0200686-.0083504-.0300293-.0125494-.3953615-.1669922-.8502932-.0812006-1.15376.2222662l-.6328611.6328611c-.8309573-.5480471-1.5397953-1.2632819-2.0829592-2.0978518l.6376463-.6376467c.301172-.3011227.3881836-.7517576.2258301-1.1454592-.0024414-.005908-.0048339-.011816-.0072753-.017724-.1619141-.396533-.5441894-.6571779-.9725097-.6571779h-.9010742c-.0985351-.4753905-.1510742-.967578-.1510742-1.472168 0-.5088868.0540039-1.0049806.1541504-1.4840822h.9028808c.4273926 0 .8090822-.2596188.9715821-.6549316l.0059082-.0143065c.163379-.3942871.0769043-.8459959-.2249024-1.1478028l-.6366211-.6365724c.5440918-.8337889 1.254248-1.5477538 2.0858401-2.0949217l.63374.6337403c.3032226.3032226.7575683.3889649 1.1528811.2227538.0071774-.0030273.0144043-.0060547.0216794-.009082.3928223-.1632325.6498046-.544043.6498046-.9694825v-.905957c.4687014-.0992187.9539552-.152832 1.4513674-.1563476zm-.0509282 3.2115233c-2.2089839 0-4.0058594 1.7968755-4.0058594 4.0054689s1.7968755 4.0054684 4.0058594 4.0054684c2.2085944 0 4.0046883-1.7968747 4.0046883-4.0054685s-1.796094-4.0054688-4.0046883-4.0054688zm-.0000972.9596682c1.68214928 0 3.0458007 1.36365142 3.0458007 3.0458007s-1.36365142 3.0458007-3.0458007 3.0458007-3.0458007-1.36365142-3.0458007-3.0458007 1.36365142-3.0458007 3.0458007-3.0458007z" fill="currentColor"/></g></svg>