<svg height="16" viewBox="0 0 16 16" width="16" xmlns="http://www.w3.org/2000/svg"><g fill="none" fill-rule="evenodd"><path d="m0 0h16v16h-16z" fill="#fff" fill-rule="nonzero" opacity="0"/><path d="m2.13 8h4.87v7.31h-3.78c-.60199038 0-1.09-.4880096-1.09-1.09zm6.87 7.34h3.81c.6019904 0 1.09-.4880096 1.09-1.09v-6.25h-4.9zm5.8-9.94v1.19c0 .26509668-.2149033.48-.48.48h-12.61c-.26509668 0-.48-.21490332-.48-.48v-1.19c0-.59646753.48353247-1.08 1.08-1.08h2.69c-.72150635-.2892314-1.26566213-.9000185-1.47-1.65-.13406645-.48178266-.03810866-.99847843.26-1.4.24743227-.31348378.6050305-.52089075 1-.58.10973661-.01076536.22026339-.01076536.33 0 .78689326 0 1.52786405.37048539 2 1 .34275454.47993536.63750491.99239907.88 1.53.25845482-.53856219.56291837-1.05380819.91-1.54.4561963-.61136409 1.1674538-.97989127 1.93-1h.36c.368921.06530257.7023279.26038109.94.55.3101567.40740171.4136014.93570858.28 1.43-.2028551.74194758-.7384943 1.34777403-1.45 1.64h2.77c.5846829.02698524 1.0414614.51480692 1.03 1.1zm-6.14-1.4c.65024592-.1188521 1.28681425-.30312188 1.9-.55.4315511-.18020705.7561235-.54903927.88-1 .0596444-.20155213.0227281-.41935847-.1-.59-.0844125-.11052015-.2045955-.1882856-.34-.22-.0596344-.00936707-.1203656-.00936707-.18 0-.4660011.01937408-.89731096.25161785-1.17.63-.39262325.53850036-.724632 1.11867727-.99 1.73zm-3.32-.58c.61483184.25904219 1.25494354.45342166 1.91.58-.26558774-.61013084-.60117142-1.18733477-1-1.72-.2737913-.38226735-.71003167-.61517534-1.18-.63h-.13c-.15166444.0256467-.28960809.10346107-.39.22-.11587285.1661249-.14905136.37625548-.09.57.12921847.44339307.45301722.80398713.88.98z" fill="currentColor"/></g></svg>