<svg height="16" viewBox="0 0 16 16" width="16" xmlns="http://www.w3.org/2000/svg"><g fill="none" fill-rule="evenodd"><path d="m0 0h16v16h-16z"/><path d="m8.2379427 6.6271696 2.2148924-1.3062987c.3467283.1305175 1.1341791.4853029 1.947607 1.2539554.0796881.3441405.2781248 1.4109373.0015631 2.5527344-.231348.2087402-.9143562.773633-1.9659672 1.225976l-2.1973142-1.2986327c-.076416-.0450191-.1620121-.0665522-.24751-.0660152-.0009766 0-.0019045-.0007811-.0028811-.0007811-.0847654 0-.1695309.0226555-.2449217.0671873l-2.1875 1.2980471c-1.0390138-.4459477-1.7136719-.999219-1.9545898-1.2151375-.2850096-1.1654291-.0814941-2.2456541-.0044434-2.5720701.8048341-.7572265 1.5961917-1.115625 1.9426272-1.2471676l2.2035155 1.3078122c.0762205.0451174.1619139.0666995.2476564.0662112.0012207 0 .0022945.0009766.0035152.0009766.0843754 0 .1687498-.0222659.2437506-.0667973zm-1.390235-4.6609373c.0042973-.001416.0112796-.0026855.015625-.0041015.1210452-.0402345.2668458-.0804688.4333988-.1143556.0124512-.0024902.0222168-.0052246.034863-.007666.1816406-.0351074.3843265-.0612793.605176-.066455.0070314-.0003906.0144529 0 .0210938-.0003906l.1734376.0035156c.2076654.0095704.3951654.0361817.564209.0698242.0609369.0121094.1044922.0268066.1596679.0404785.1001463.0248047.1986322.0479981.2780275.0742676.0059566.0019531.0153313.003711.021142.0056641.2059088-.2349122.5328617-.5770997.9103031-.8820801-.6547364-.1958496-1.3468751-.3044434-2.0645017-.3044434-.716846 0-1.4082522.1084961-2.0624027.3039551.3773437.3052246.7040529.6474121.9099607.8817871zm1.1441408 8.0616207-1.8746095 1.1122074c.1361818.810791.4888673 1.4638672.645752 1.7247066.2041993.0626469.6318851.1707525 1.1854982.176856h.109375c.5509768-.0060549.9744139-.112793 1.1812496-.1767578.1571779-.2615728.5079107-.9122562.6438484-1.7193851zm1.9280276-7.4766109c.2554197.353662.6248045.984082.8741207 1.8731935.4144049.1567869 1.2441893.5458493 2.1116209 1.3204589.437891-.242383.956934-.6034179 1.50459-1.0524416-.7213373-1.3922362-1.8821287-2.5165527-3.2982912-3.1969237-.0243645.0233399-.0440426.0504395-.0739746.06875-.4418945.2705078-.8642578.7024413-1.1180658.9869629zm-7.3135743 6.5556152c-.0018556-.0095215-.0018068-.0181637-.0036132-.0276852-.2028809-1.0591802-.0921388-2.0048341.005908-2.5085454-.5307618-.2997555-1.0217773-.6549315-1.4122558-.9628906-.2645996.7499514-.4159668 1.5527835-.4159668 2.392139 0 .7312498.1111816 1.4366693.3143067 2.1023922.2914062-.236084.6887695-.5252438 1.2065428-.8270502.116797-.0675784.217969-.1230469.3050783-.1683598zm10.8885741-1.4376464c.0020504.0712399.0018559.1444335.001709.2190428-.0005369.084424-.0005856.1659179-.0043459.2541013-.0072756.1863775-.0202637.3780766-.0460939.5778322-.0088377.0683594-.0152826.1346684-.0267086.2041998-.0102053.0625-.0116215.1207027-.0240726.1840324.0871096.0449219.188282.1007814.3046875.1687508.5166998.3009758.9138184.5897942 1.2051277.8256836.2031736-.6658697.3144035-1.3715334.3144035-2.1029787 0-.8392582-.1513176-1.6419435-.4157715-2.3917971-.409277.3244143-.910058.68999-1.4143066.9714355.0499028.2598143.0947761.6441408.1053714 1.0896974zm-4.667285-4.797461c-.0195312-.0064454-.0428228-.0128417-.0644044-.0193849-.0614262-.0185547-.1332522-.0363281-.2094727-.0531249-.0306644-.0067382-.0604496-.0135255-.0932131-.0195312-.1107416-.0203126-.2303219-.0374513-.3612299-.0435548l-.1514163-.0025878c-.0244141.0007324-.045166.0047851-.068994.0061035-.1033692.0052247-.2019043.015625-.2932129.0308595-.0515628.0085936-.0987797.01875-.1455078.0291014-.0582032.013135-.1149416.0263186-.1646976.0407715-.0355469.0102538-.0721679.0203125-.1028319.03042-.0572753.0192382-.1094728.0378418-.1473632.0533202-.0079103.0032227-.0207033.0075684-.0276856.010498-.0019045.0008302-.0013671.0006838-.0032225.0014649-.1438966.1722168-.5619631.7246093-.8356934 1.6305174l1.8332028 1.0875978 1.8493657-1.0904298c-.2729006-.9009764-.6888676-1.452539-.834424-1.6266112-.0411138-.0174317-.1035156-.0404295-.1791992-.0654296zm-3.6187014 1.5458007c.2493167-.8862305.6175294-1.5146484.8725586-1.8675292-.253613-.2843263-.6754394-.7158692-1.1169434-.9865235-.0300293-.0184082-.0497556-.0455567-.0741696-.0689453-1.4171388.6802247-2.5788577 1.805078-3.3005861 3.1980958.3851074.3159666.9250489.7169433 1.502832 1.0418458.8723634-.7761722 1.7074221-1.1636233 2.1163085-1.3169436zm7.7145018 5.5285153c-.3476076.2973146-1.0583496.8281746-2.0867186 1.2742195-.1316891.8659172-.4587889 1.5765619-.6803226 1.9740715.28335.2748537.777442.7170906 1.3190918 1.0281258.0275393.0158691.045557.0402832.0686531.0603514 1.3043451-.7387695 2.3529778-1.8716307 2.9916496-3.2357426-.2564449-.2291012-.6877928-.5728025-1.3192863-.9406252-.1227541-.0717278-.2146492-.1205072-.293067-.1604004zm-7.0783691 3.2467289c-.2209473-.3965816-.5469723-1.1049318-.6795406-1.9682131-1.0312014-.4453125-1.7444336-.9766111-2.0951662-1.2759762-.0770996.0394039-.1669922.0871582-.2858887.1562986-.6326172.3687496-1.0641114.7126465-1.320166.9421873.6386231 1.3638678 1.6872071 2.4965334 2.9913087 3.2353516.0231447-.0201168.041162-.0445309.0687013-.0603514.5423826-.3111819 1.037207-.7541017 1.3207515-1.0292968zm2.2183104.8089848h-.1199217c-.5874996-.0066414-1.0652342-.1070318-1.3585935-.1886721-.2336917.2319336-.6364746.6039057-1.1142092.9402828.7885742.2964354 1.6386232.4663086 2.5295415.4663086.8906736 0 1.7404785-.1698236 2.5288572-.4661131-.4774904-.3366699-.8800297-.7084961-1.1137209-.9400883-.2933597.0820313-.7679691.1816407-1.3519534.1882821z" fill="currentColor"/></g></svg>