<svg height="16" viewBox="0 0 16 16" width="16" xmlns="http://www.w3.org/2000/svg"><g fill="none" fill-rule="evenodd"><path d="m0 0h16v16h-16z"/><path d="m6.5063477 11.2558594.8114747 1.9515629c.0292968.0780754.0692868.1647453.1132812.2534666-.288721.3709469-.7589845.7698727-1.4507813.7698727h-5.3122559c-.1780762 0-.3537109-.0612793-.4823242-.1838379-.0714356-.0678225-.1362793-.1585445-.1711426-.2790041-.0323731-.1111326-.009375-.230566.0540527-.3271484.2558106-.3887692.6018555-.9194822.8158692-1.2473631.2875-.4410152.7479004-.7519045 1.2717285-.8246088.080127-.0110846.1637695-.017334.2509277-.017334l3.8499113-.0001578c.02863687-.0013588.12490987-.0123593.2492587-.0954481zm-1.4885726-9.6557554s3.8549237 8.8088531 4.1490703 9.2928295c.24859865.4098113.49520079.454517.56519438.4585729l3.86078712.0001311c.0871296 0 .1707735.0062323.2505827.0173101.5241671.0727005.9842062.3835802 1.2720795.8246288.2136402.3278437.5600634.8582096.8158741 1.2473288.0634289.0965881.0864325.2160254.054019.3268051-.0351992.1204758-.0996752.211524-.1711197.2793779-.128603.1222057-.3042545.1834822-.4826937.1834822h-5.3119068c-1.2915964 0-1.8154144-1.3916912-1.8154144-1.3916912l-4.6732374-11.2387752zm7.4512677-.000104-3.1018067 7.4597659c-.2372064-.5256347-.5252437-1.169971-.842041-1.8825197 1.1500979-2.5909181 2.4570799-5.5772462 2.4570799-5.5772462z" fill="currentColor"/></g></svg>