<svg height="16" viewBox="0 0 16 16" width="16" xmlns="http://www.w3.org/2000/svg"><g fill="none" fill-rule="evenodd"><path d="m0 0h16v16h-16z" opacity="0"/><path d="m6.47648 7.62088c.08911967-.47796491-.21489367-.94106949-.68888-1.04937333l-.42364-.09678c-.1829969-.04171317-.30544402-.21425282-.28441043-.40076138.0210336-.18650856.17883294-.32744328.36652376-.32735464h3.47646c.20313099-.0005658.39595733.08938361.52604805.24539299.13009073.15600937.18392271.36186128.14685862.56158303-.31628 1.69845333-.6772 3.63660003-1.00814667 5.40967333l-.00542.02738c-.08289153.2498688.00445865.5246989.2164.68086.30940129.1356589.65572489.1621242.98214667.0750533.11082701-.0208749.2224314.0323153.2760156.131548s.0368463.2217259-.0413956.3029454c-.5725458.5940179-1.33528417.9684301-2.15542667 1.0580533-.17212219.0137384-.34520155.0097172-.5165-.012-.47148756-.041822-.9124798-.2508618-1.24333333-.5893667-.23034937-.2479684-.3855628-.5562406-.44758667-.88896-.03834279-.2138712-.04224089-.4324978-.01154666-.6476.04616666-.36954.83583333-4.4802933.83583333-4.4802933zm1.79266667-5.86770667c-.89331885 0-1.61748.72419671-1.61748 1.61751556s.72419226 1.61748444 1.61751111 1.61748444c.89331884 0 1.61748889-.72418782 1.61748889-1.61750666 0-.42898768-.17041816-.84040443-.4737595-1.14374327s-.7147595-.47375007-1.14374717-.47375007z" fill="currentColor"/></g></svg>