<svg height="20" viewBox="0 0 20 20" width="20"
	xmlns="http://www.w3.org/2000/svg"
	xmlns:xlink="http://www.w3.org/1999/xlink">
	<path fill="currentColor" id="c" d="m6.6672 10c0-1.84088 1.49192-3.3336 3.3328-3.3336s3.3336 1.49272 3.3336 3.3336-1.49272 3.3336-3.3336 3.3336-3.3328-1.49272-3.3328-3.3336m-1.80208 0c0 2.836 2.29888 5.13488 5.13488 5.13488s5.13488-2.29888 5.13488-5.13488-2.29888-5.13488-5.13488-5.13488-5.13488 2.29888-5.13488 5.13488m9.2730399-5.33848c-.0002649.66274162.5367784 1.20021473 1.19952 1.20047991.6627417.00026498 1.2002148-.53677835 1.20048-1.19951997.000265-.66274163-.5367783-1.20021479-1.1995199-1.20047994h-.00048c-.6624264.00030874-1.1994262.5370938-1.2000001 1.19952m-8.1781599 13.47824c-.97496-.0444-1.50488-.2068-1.85704-.344-.46688-.18176-.8-.39824-1.15024-.748s-.56704-.68256-.748-1.14944c-.13728-.352-.29968-.88208-.344-1.85704-.04848-1.05408-.05816-1.37072-.05816-4.0412s.01048-2.98624.05816-4.0412c.0444-.97496.208-1.504.344-1.85704.18176-.46688.39824-.8.748-1.15024s.68256-.56704 1.15024-.748c.352-.13728.88208-.29968 1.85704-.344 1.05408-.04848 1.37072-.05816 4.04-.05816s2.98624.01048 4.0412.05816c.97496.0444 1.504.208 1.85704.344.46688.18096.8.39824 1.15024.748s.56624.68336.748 1.15024c.13728.352.29968.88208.344 1.85704.04848 1.05496.05816 1.37072.05816 4.0412s-.00968 2.98624-.05816 4.0412c-.0444.97496-.2076 1.50488-.344 1.85704-.18176.46688-.39824.8-.748 1.14944s-.68336.56624-1.15024.748c-.352.13728-.88208.29968-1.85704.344-1.05408.04848-1.37072.05816-4.0412.05816s-2.98624-.00968-4.04-.05816m-.0828-18.0792c-1.06456.04848-1.792.21728-2.42728.46448-.65792.25528-1.21488.59776-1.77144 1.15344s-.89816 1.11352-1.15344 1.77144c-.2472.63568-.416 1.36272-.46448 2.42728-.04928 1.06624-.06056 1.40712-.06056 4.1228s.01128 3.05656.06056 4.1228c.04848 1.06464.21728 1.7916.46448 2.42728.25528.65752.59696 1.216 1.15344 1.77144s1.11352.89744 1.77144 1.15344c.63648.2472 1.36272.416 2.42728.46448 1.0668.04848 1.40712.06056 4.1228.06056s3.05656-.01128 4.1228-.06056c1.06464-.04848 1.7916-.21728 2.42728-.46448.65752-.256 1.21488-.59776 1.77144-1.15344s.89744-1.11392 1.15344-1.77144c.2472-.63568.4168-1.36272.46448-2.42728.04848-1.06704.05976-1.40712.05976-4.1228s-.01128-3.05656-.05976-4.1228c-.04848-1.06464-.21728-1.792-.46448-2.42728-.256-.65752-.59776-1.21488-1.15344-1.77144s-1.11392-.89816-1.77064-1.15344c-.63648-.2472-1.36352-.4168-2.42728-.46448-1.06624-.04848-1.40712-.06056-4.1228-.06056s-3.0568.01128-4.1236.06056"/>
</svg>