<svg height="16" viewBox="0 0 16 16" width="16" xmlns="http://www.w3.org/2000/svg"><g fill="none" fill-rule="evenodd"><path d="m0 0h16v16h-16z"/><path d="m12.6544924 14.5113277h-9.3089845c-1.0238283 0-1.8570313-.8328123-1.8570313-1.8570309v-9.3085937c0-1.0242188.8332031-1.8570312 1.8570313-1.8570312h9.3089848c1.0238276 0 1.8570309.8328124 1.8570309 1.8570312v9.3085938c0 1.0242185-.8332037 1.8570308-1.8570312 1.8570308zm-9.3089845-11.4226558c-.1394532 0-.2570312.1179688-.2570312.2570312v9.3085938c0 .1390629.117578.2570314.2570312.2570314h9.3089848c.1394529 0 .2570314-.1179686.2570314-.2570314v-9.3085938c0-.1390624-.1175785-.2570312-.2570314-.2570312zm3.4719894 1.4402492c0-.2652345-.2148438-.4800782-.4796877-.4800782h-1.8093748c-.2648439 0-.4796877.2148438-.4796877.4800782s.2148438.4800782.4796877.4800782h1.8093748c.2648439 0 .4796877-.2148437.4796877-.4800782zm4.7336311 2.0800782h-7.1023812c-.2209139 0-.4000001.1790862-.4000001.4000001v4.5425782c0 .2209139.1790862.3999996.4000001.3999996h7.1023812c.2209139 0 .4000006-.1790857.4000006-.3999996v-4.5425783c0-.2209138-.1790867-.4-.4000006-.4z" fill="currentColor"/></g></svg>