<svg height="16" viewBox="0 0 16 16" width="16" xmlns="http://www.w3.org/2000/svg"><g fill="none" fill-rule="evenodd"><path d="m0 0h16v16h-16z"/><path d="m8.583 2.89053.01921 3.41992.00894 1.591h3.3824l-4.4927 5.17055.03447-3.29473.01694-1.618-1.618.00117-1.92773.00137zm.75769-2.89047795c-.23694468 0-.46190468.1042115-.61482.28520795l-7.04453 8.11425c-.21147562.24355752-.26129755.58815215-.12746782.88163436s.42667209.48181977.74922782.48185564h.00076l3.63157-.00254-.05657 5.40566c-.00319171.2215884.08322396.435078.23965081.5920565s.36961093.2441451.59120919.2417822c.2367604 0 .46153138-.1041949.61433-.2850487l6.99441-8.0498c.2116017-.24353411.2615113-.58819777.1276834-.88175232-.1338278-.29355455-.4267426-.48192889-.7493634-.48191768h-3.49464l-.03081-5.48083c-.0003234-.21927402-.0882672-.42932484-.24426582-.58342101-.15599864-.15409616-.3671127-.23945603-.58637418-.23713694z" fill="currentColor"/></g></svg>