<svg xmlns="http://www.w3.org/2000/svg" viewBox="0 0 131 30">
  <path fill="var(--rgb-color-primary)"
        d="M115.17 0c-8.284 0-15 6.716-15 15s6.716 15 15 15 15-6.716 15-15a15 15 0 0 0-15-15zm0 27.8A12.82 12.82 0 1 1 128 15c-.022 7.072-5.758 12.795-12.83 12.8z"/>
  <path fill="var(--rgb-text-color)"
        d="M121.4 13.93v1.55H119l2.29-5.75h-2.59l-3.24 8.12h5.95v2.4h2.37v-6.32zm-6.53 6.31v-2.36h-4.17l1.68-1.29c1.36-1.06 2.48-2.06 2.38-3.71a3.6 3.6 0 0 0-3.87-3.31 5 5 0 0 0-4.26 2.27l1.83 1.51a3 3 0 0 1 2.45-1.35 1.13 1.13 0 0 1 1.13 1.1c0 .63-.53 1.2-1.55 2l-3.92 3v2.19h8.3zM0 20.32L1.95 18a6.88 6.88 0 0 0 4.48 1.81c1.35 0 2.16-.54 2.16-1.46s-.52-1.26-3-1.9c-3-.77-5-1.6-5-4.62 0-2.72 2.18-4.52 5.24-4.53a8.68 8.68 0 0 1 5.57 1.9l-1.71 2.46a7 7 0 0 0-3.9-1.47c-1.26 0-1.93.58-1.93 1.35 0 1 .64 1.31 3.24 2 3 .79 4.76 1.88 4.76 4.54 0 3-2.26 4.65-5.5 4.66A9.55 9.55 0 0 1 0 20.32zM14.62 15a7.62 7.62 0 0 1 7.81-7.77 7.55 7.55 0 0 1 5.81 2.43l-2 2.27a5.19 5.19 0 0 0-3.86-1.67A4.46 4.46 0 0 0 18.07 15a4.46 4.46 0 0 0 4.36 4.71 5.41 5.41 0 0 0 3.94-1.76l2.1 2.25a7.59 7.59 0 0 1-6.15 2.56 7.58 7.58 0 0 1-7.7-7.76zm15.92 0a7.76 7.76 0 0 1 8-7.77 7.76 7.76 0 1 1 0 15.51 7.69 7.69 0 0 1-8-7.74zm12.49 0a4.56 4.56 0 0 0-4.55-4.71A4.5 4.5 0 0 0 34 14.95a4.56 4.56 0 0 0 4.55 4.71A4.5 4.5 0 0 0 43 14.94zm7.14-7.51H57A6 6 0 0 1 61.37 9a4.74 4.74 0 0 1 1.33 3.4 4.66 4.66 0 0 1-3.21 4.66l3.67 5.35h-3.85L56 17.62h-2.51v4.8H50.2zm6.65 7.28c1.61 0 2.53-.86 2.53-2.17s-1-2.14-2.6-2.14h-3.27v4.24zm9.72-7.3h11.31v2.94h-8v3h7.07v2.89h-7.08v3.15H78v2.94H66.58zm14.2 12.79l1.95-2.34a6.88 6.88 0 0 0 4.48 1.81c1.35 0 2.16-.54 2.16-1.46s-.52-1.26-3-1.9c-3-.77-5-1.6-5-4.62 0-2.72 2.18-4.52 5.24-4.53a8.68 8.68 0 0 1 5.57 1.9l-1.71 2.49a7 7 0 0 0-3.9-1.47c-1.26 0-1.93.58-1.93 1.35 0 1 .64 1.31 3.24 2 3 .79 4.76 1.88 4.76 4.54 0 3-2.26 4.65-5.5 4.66a9.54 9.54 0 0 1-6.35-2.5z"/>
</svg>
