<svg height="16" viewBox="0 0 16 16" width="16" xmlns="http://www.w3.org/2000/svg"><g fill="none" fill-rule="evenodd"><path d="m0 0h16v16h-16z" fill="#606060" fill-rule="nonzero" opacity="0"/><path d="m7.539 3.43027v-1.33342c.15292-.01074.30538-.023276.461-.023276 2.3668758-.00320223 4.5481843 1.28114824 5.6936217 3.35240012 1.1454375 2.07125188 1.0737063 4.60157148-.1872317 6.60460588h-1.6665c1.3690029-1.5153977 1.7160748-3.6953494.885366-5.56096508-.8307089-1.86561569-2.6830546-3.06622542-4.725256-3.06270492-.15561 0-.30889.00985-.461.02336zm-6.04393144 5.14823c-.00088605 1.33621923.41202522 2.6399289 1.18200144 3.732v-7.464c-.76998038 1.09206902-1.18289208 2.39578006-1.18200144 3.732zm10.55841144 6.35227 1.52629-1.94024h-7.00077v-11.90707h-3.97241l1.0305 1.33643v10.571l-1.15931 1.93988z" fill="currentColor"/></g></svg>