<svg height="16" viewBox="0 0 16 16" width="16" xmlns="http://www.w3.org/2000/svg"><g fill="none" fill-rule="evenodd"><path d="m0 0h16v16h-16z"/><path d="m12.1051998 4.7710938c.3355474-.0199709.670166.0576658.9643068.1639647l.7093754.3714843c1.3650389.7148438 2.2204103 2.1283202 2.2204103 3.6691899v.0000486c0 1.5280275-.8413086 2.9319334-2.1887703 3.652441l-3.6460447 1.9496584c-.1742678.0931644-.3540039.169385-.5359373.2357426-.0575199.0209961-.1162109.0364742-.174365.0548334-.1273928.0401373-.255518.0755863-.3850584.1030273-.0664558.0140629-.1331062.0260258-.1999025.0368166-.1276369.0205564-.2557621.0342283-.3841314.0427246-.0630369.004199-.125927.0102053-.1890135.0114746-.0845213.0017576-.1685057-.0062504-.2528811-.009717-.150146-.0061035-.2998533-.0173826-.4484372-.0397463-.0848632-.0127439-.1688962-.0298824-.2528319-.0478516-.1419921-.0305176-.2821288-.0689449-.4206543-.1143551-.0810547-.0265627-.162158-.0528316-.2416506-.0844727-.0843749-.0335941-.1645017-.0782223-.2469234-.1174803l-.0345216-2.427783c-.0015626-.1367188-.0617189-.265625-.1640625-.3554688l-2.5273438-2.201367v-.1254396-1.8262697c0-.3424315.0481443-.6769528.1299803-1.0002441.5957034.5223632 1.436084 1.2565918 1.820801 1.5802732.0765624.0644531.2398434.2015629.4562497.2015629.0445313 0 .0906253-.0058594.1390624-.0187502.2757816-.0753908.3609376-.3171873.4015627-.4332027.0140624-.0382814.0304689-.086719.0578127-.1429691.1601562-.3249998.3257809-.6613278 1.1796875-1.1937499l2.9132814-1.5652342c.4117184-.2164065.7257806-.3332034 1.2999993-.3691408zm-4.694531 1.1042967 2.9437499-1.5828123c.2733402-.1439452.5378418-.2570314.8382816-.3402834l-.6270513-.3283691c-.1374016-.0719726-.2785149-.1335936-.4213371-.1888671-.0997562-.0380371-.2014656-.0686524-.3032722-.0984376-.038086-.0114257-.0755854-.0249512-.1139155-.0352537-.133399-.0348146-.2680664-.063086-.4036627-.0843751-.0040521-.0006836-.0081052-.0015624-.0121088-.0021973-.142725-.0219238-.2863283-.0366211-.4302244-.0440429l-.0005379-.000293c-.0697746-.0035646-.1393547-.0125-.2091789-.0125-.662159 0-1.3240728.1608887-1.9254885.4824708l-.881299.4712402c-.7154298.3825684-1.2793455.9642091-1.6537108 1.6515136.462451.4061522 1.2261228 1.0757322 1.7403807 1.5180664.2320314-.4265623.5648437-.8492188 1.4593749-1.4058595zm-3.6853513 5.0787111c.08916 1.0704594.5873046 2.0706053 1.4041505 2.7819824l.3348632.2916012-.0224123-1.5788574zm1.6866212-7.6889649.8812985-.4712892c.3390136-.1812987.699512-.3184569 1.069922-.4180174l-1.5138183-.7927247c-.8980956-.4703124-1.970752-.4656738-2.8647461.0123536l-1.3654786.7301268c-.9963379.5327638-1.6184082 1.5708008-1.6184082 2.700635v.0000486c0 .8164554.3534668 1.5929689.9691895 2.1291504l1.7768555 1.5473638v-.9902349c0-1.8642087 1.0212402-3.5683593 2.6651857-4.447412z" fill="currentColor"/></g></svg>