<svg height="16" viewBox="0 0 16 16" width="16" xmlns="http://www.w3.org/2000/svg"><g fill="none" fill-rule="evenodd"><path d="m0 0h16v16h-16z" fill="#fff" fill-rule="nonzero" opacity="0"/><path d="m11.7120333.49990667h-7.4240333c-.5007449 0-.98097924.19892652-1.3350506.55301539-.35407137.35408887-.5529494.83433304-.5529494 1.33507794v11.224c0 .5007222.1989031.9809376.55297715 1.3349916.35407405.3540541.83430067.5529017 1.33502285.5529017h7.424c.50072 0 .9809425-.198857 1.335015-.5529095.3540726-.3540525.552985-.8342638.552985-1.3349838v-11.224c0-1.04272636-.8452403-1.88809333-1.8879667-1.88809333zm.2879667 13.11209333c-.0001911.1589615-.1290384.2877611-.288.2878933h-7.424c-.15896156-.0001322-.28780887-.1289318-.288-.2878933v-11.224c.00017626-.15899898.12900108-.28786257.288-.28809333h1.41544v.68222666c-.00001945.2456856.09756696.48131481.27128854.65504514.17372157.17373032.40934587.2713286.65503146.27132153h2.74048c.24568559.00000707.48130989-.09759121.6550315-.27132153.1737215-.17373033.271308-.40935954.2712885-.65504514v-.68222666h1.41548c.1589859.00024613.2877875.12910734.28796.28809333z" fill="currentColor"/></g></svg>