<svg height="16" viewBox="0 0 16 16" width="16" xmlns="http://www.w3.org/2000/svg"><g fill="none" fill-rule="evenodd"><path d="m0 0h16v16h-16z"/><path d="m8.910742 10.7911692h6.1220703c-.1620598 1.1191406-.4170895 2.2191896-.6822748 2.879199-.4292479 1.0683594-1.5824709 1.6519537-2.6897955 1.336524l-.7255363-.206543-8.5882816-2.4456062h-.0000489l-.015918-.0045891.0012696-.0172853c-.8545411-1.1861334-1.3650391-2.6355467-1.3650391-4.2057619 0-3.980957 3.2389159-7.2194333 7.2197757-7.2194333 1.2022457 0 2.353076.265332 3.3348627.8173828 1.7192879.9666994 2.7511721 2.4995606 3.269434 4.2107906h-8.2832032c-.6772461 0-1.2263184.5490723-1.2263184 1.2263184v.0000491c0 2.004199 1.6247559 3.6289549 3.6290035 3.6289549zm-1.5807428-3.8260746c-.4418278 0-.8000002.3581724-.8000002.8000002s.3581724.8000002.8000002.8000002.8000002-.3581724.8000002-.8000002-.3581724-.8000002-.8000002-.8000002z" fill="currentColor"/></g></svg>