<svg height="16" viewBox="0 0 16 16" width="16" xmlns="http://www.w3.org/2000/svg"><g fill="none" fill-rule="evenodd"><path d="m0 0h16v16h-16z"/><path d="m15.87155 6.18326c-.1562059-.33604765-.4605735-.57971265-.82266-.65859-.5923585-.13453931-1.1631706-.35066571-1.69609-.64219-.7093869-.34543383-1.3506523-.81598647-1.893-1.38906-.6589152-.68663644-1.4324546-1.25318581-2.2859-1.67422-.29541-.15273-.57212-.28164-.83984-.39141-.01965667-.26940937-.17609301-.50991892-.4144-.63711-.18843448-.09754606-.40791046-.11620775-.6101091-.05187659-.20219864.06433115-.37054291.20638104-.4679709.39487659l-6.73878 12.99724c-.13139336.2536711-.11747392.5581703.036515.7987959.15398891.2406255.42465273.3808205.71003501.367775.28538227-.0130456.54212664-.1773498.67351999-.4310209l2.24595-4.32539c.22676.093.463.202.71914.33437.70952407.3455723 1.35101252.8161022 1.89375 1.38906.65861151.6863208 1.4315943 1.2528391 2.28438 1.67422.72496522.3947935 1.5065851.6751855 2.31719.83125.5249814.1012086 1.0541482-.1541621 1.30156-.62812v.00078l3.56641-6.89219c.1739691-.33280664.1814866-.72800805.0203-1.06719zm-2.61435 2.58516-1.87319.5957.59561 1.873-.97993 1.89375c-.5558122-.1371212-1.09170769-.3450729-1.59453-.61875-.1627-.08437-.30508-.16406-.43911-.24258l-.61705-1.94054 3.035-.96484-.96494-3.03516-3.03506.96481.9649 3.03519-1.2499.39727c-.56193573-.5104742-1.19208612-.9403793-1.87237-1.27738-.248-.12813-.48281-.23984-.71016-.3375.17764-.34258.37031-.71484.56187-1.08437l2.30566-.73321-.7331-2.30586c.36812-.71172.73232-1.416 1.073-2.075.22422.09219.45859.20234.71172.33281.44712718.22217478.86912286.49168759 1.25874.80391l.72471 2.2793 1.43169-.45508c.22319.14023.473.28477.76377.43516.5037922.26742071 1.0319693.4861233 1.57734.65313z" fill="currentColor"/></g></svg>