<svg height="16" viewBox="0 0 16 16" width="16" xmlns="http://www.w3.org/2000/svg"><g fill="none" fill-rule="evenodd"><path d="m0 0h16v16h-16z" fill="#c8cad0" fill-rule="nonzero" opacity="0"/><path d="m14.07527 13.93141c-.0556622.5417392-.5101121.954781-1.05469.95859h-10.04116c-.54457795-.003809-.99902776-.4168508-1.05469-.95859zm.40031-1.91988c-.0549606.5424334-.5097326.9563508-1.05493.96016h-10.8413c-.5452012-.0038041-.99997894-.4177228-1.05494-.96016zm-.72958-10.90117c.631841 0 1.144.51229902 1.144 1.14414v7.65313c0 .631841-.512159 1.14414-1.144 1.14414h-11.492c-.63184097 0-1.144-.512299-1.144-1.14414v-7.65313c0-.63184098.51215903-1.14414 1.144-1.14414zm-8.5335 3.38964h-.565c-.0200001.133334-.06166635.24499955-.125.335s-.14083287.16249972-.2325.2175c-.09166712.05500027-.19499942.09333322-.31.115-.07666705.01444452-.15518517.02333339-.23555541.0266667l-.12194459.0008333v.535h.88v2.27h.71zm1.8-.07h-.91l1.15 1.7-1.245 1.87h.88l.795-1.235.78 1.235h.935l-1.245-1.865 1.145-1.705h-.86l-.725 1.14zm3.81 0c-.210001 0-.3958325.03583297-.5575.1075-.1616675.07166702-.2958328.17166602-.4025.3-.1066672.12833397-.1866664.27833247-.24.45-.0400002.12875064-.06312512.26546851-.06937505.41015595l-.00062495.14734405h.68c0-.0933338.0091666-.18749953.0275-.2825.0183334-.09500048.0491665-.18166628.0925-.26.0433336-.07833373.100833-.14166643.1725-.19.071667-.04833358.1591662-.0725.2625-.0725.1533341 0 .2791662.04749952.3775.1425.0983338.09500047.1475.22749915.1475.3975 0 .1066672-.0241664.20166625-.0725.285s-.108333.158333-.18.225-.1508329.12749972-.2375.1825c-.0866671.05500027-.1683329.1091664-.245.1625-.1500007.10333385-.2924993.2049995-.4275.305s-.2524995.20916607-.3525.3275c-.1000005.11833392-.17916637.25249925-.2375.4025-.04375022.11250056-.07109386.23999971-.08203129.38249968l-.00546871.14750032h2.57v-.61h-1.655c.0866671-.1200006.1866661-.22499955.3-.315s.2299994-.17416628.35-.2525c.1200006-.07833373.2391661-.1574996.3575-.2375s.2241662-.16916618.3175-.2675c.0933338-.09833383.1683331-.2108327.225-.3375.056667-.1266673.085-.27833245.085-.455 0-.17000085-.0324997-.32333265-.0975-.46s-.1524994-.2516662-.2625-.345c-.1100005-.0933338-.2374993-.16499975-.3825-.215s-.2974992-.075-.4575-.075z" fill="currentColor"/></g></svg>