<svg height="16" viewBox="0 0 16 16" width="16" xmlns="http://www.w3.org/2000/svg"><g fill="none" fill-rule="evenodd"><path d="m0 0h16v16h-16z" opacity=".052"/><path d="m12.6098146 2.3022788c.1648436.1378417.3270016.280664.4818354.435498 2.8194342 2.8194336 2.8194342 7.3906736 0 10.2100582-2.8194332 2.8194342-7.3906245 2.8194332-10.2100582 0-2.8194337-2.8194332-2.8194337-7.3906245 0-10.2100582.1211426-.1211427.2496095-.2299805.3769531-.3407228.1099611.0813965.250293.1809082.4227052.3015136l.089453.0625c.0621095.0496094.6078126.5027344.5367186 1.1242189-.0121093.1074219-.077734.315625-.1667967.4781249l-.0578127.1054688c-.0861325.1555662-.1577635.2909178-.2336423.4515137l-.2218263-.0745606c-.2519532-.0839844-.5238281.0503907-.608203.3019533-.0843751.2515621.0507813.523828.3019531.608203l.2105467.0707521c-.0830564.3492675-.1286621.7073727-.1273436 1.0733886.0028319.805664.2304198 1.57168.6205077 2.2559566l-.2416015.175684c-.2144532.155859-.2617187.4562502-.1058593.670703.0941406.1289062.2402344.1976566.3886719.1976566.0980468 0 .1968751-.030078.2820311-.0917969l.2354493-.1712408c.0631347.0712404.1126466.1513672.1805662.2192878.7460938.7464352 1.7049804 1.1865234 2.734375 1.3071289v.2264643c0 .2652349.2148438.4800787.4796877.4800787.2648434 0 .4796872-.2148438.4796872-.4800787v-.214551c1.0610838-.0972652 2.0504399-.535449 2.8140631-1.2987299.0630855-.0630866.108593-.1378909.1675291-.2039557l.1863766.1355963c.0851564.061719.1835938.0917969.28125.0917969.1484375 0 .2953129-.0687504.3890629-.1976566.155469-.2144527.108594-.5144529-.1062498-.6707029l-.1912117-.1391115c.390625-.6856442.6153813-1.4557615.6123047-2.2671385-.001318-.3783694-.0525389-.747705-.1433592-1.1074219l.1847657-.0621095c.2507811-.0843749.3859377-.3566408.3015623-.6082029-.0843744-.2511721-.3562498-.3851566-.6078119-.3019533l-.2104492.0707521c-.0625982-.1244144-.1271973-.2437992-.1965828-.3613772l-.1218748-.211328c-.0867186-.157031-.1203127-.3367185-.1328125-.461328-.0679683-.6433594.5265627-1.1656251.5718756-1.2066407.0922852-.0944336.2301751-.2412598.3535643-.3736327zm-8.5548343-.5137209c2.3541016-1.5319336 5.4021978-1.5474121 7.7734375-.0531248-.0817385.0884276-.1599121.1727538-.2081051.2240722-.0101566.0078125-1.0179691.8199219-.890625 2.0226564.0218744.2117185.0820312.5265622.2468748.8257813l.1351566.234375c.0355949.0602049.0672846.1236324.1012201.1844234l-.1090326.0366702c-.2507821.0847654-.3859377.3566403-.3015633.6082029.0671883.2003908.2539063.3269534.4546881.3269534.0507812 0 .1023436-.0082035.1531248-.0250001l.1464844-.0492678c.0604.2619629.0937014.5304689.0949221.8047366.0019531.6039062-.1584959 1.1776366-.4333496 1.6958499l-.0877447-.0638189c-.2156248-.1554689-.515625-.1085939-.6703119.1058598-.155469.2144527-.108594.5144529.1062498.6707029l.0989742.0720215c-.0262689.0279789-.0451164.0608883-.0724115.0881348-.5800781.5803709-1.342822.9084959-2.1351566 1.0113773v-.1297369c0-.2652339-.2148437-.4800777-.4796872-.4800777-.2648439 0-.4796877.2148437-.4796877.4800777v.1236334c-.7726074-.1146002-1.4908204-.4603033-2.0554686-1.0255861-.0320316-.0320311-.0544925-.0704108-.0852051-.1034184l.0500487-.0364256c.2140622-.155859.2617188-.4562502.1058593-.6707029-.15625-.2140627-.4566407-.2609377-.6707029-.1058598l-.0379395.0275879c-.2757325-.5186519-.438623-1.090918-.4405761-1.6920409-.0009765-.2595702.0251465-.5146971.0778809-.7637206l.1209468.0406738c.0507813.0167966.1023441.0250001.1531253.0250001.2003904 0 .3874999-.1265626.4550782-.3269534.0843749-.2515626-.0507813-.5234375-.3019534-.6082029l-.1031737-.034668c.0497561-.098682.0998049-.1926761.1566897-.2961917l.0597653-.108203c.1414065-.258203.2507815-.5843749.2785158-.8304687.1273436-1.1113281-.7218752-1.848047-.9015627-1.9906251l-.1285157-.0914062c-.0488281-.0341308-.1113281-.0776855-.1762695-.123291z" fill="currentColor"/></g></svg>