<svg height="24" viewBox="0 0 24 24" width="24" xmlns="http://www.w3.org/2000/svg"><g fill="none" fill-rule="evenodd"><path d="m0 0h24v24h-24z"/><path d="m12 6c-.66 0-1.2.54-1.2 1.2v3.6h-3.6c-.66 0-1.2.54-1.2 1.2s.54 1.2 1.2 1.2h3.6v3.6c0 .66.54 1.2 1.2 1.2s1.2-.54 1.2-1.2v-3.6h3.6c.66 0 1.2-.54 1.2-1.2s-.54-1.2-1.2-1.2h-3.6v-3.6c0-.66-.54-1.2-1.2-1.2zm0-6c-6.624 0-12 5.376-12 12s5.376 12 12 12 12-5.376 12-12-5.376-12-12-12zm0 21.6c-5.292 0-9.6-4.308-9.6-9.6s4.308-9.6 9.6-9.6 9.6 4.308 9.6 9.6-4.308 9.6-9.6 9.6z" fill="currentColor"/></g></svg>