<svg height="16" viewBox="0 0 16 16" width="16" xmlns="http://www.w3.org/2000/svg"><g fill="none" fill-rule="evenodd"><path d="m0 0h16v16h-16z"/><path d="m7.9715414 15.2349129c-3.9808595 0-7.2195311-3.2382812-7.2195311-7.2195311 0-2.0273438.8632812-3.9750004 2.3687501-5.34375.3277342-.296875.8332031-.2718749 1.1300781.0539064.2972655.3273437.2734375.8328123-.0535159 1.1304686-1.1726563 1.065625-1.8453126 2.5820311-1.8453126 4.159375 0 3.0984373 2.5210936 5.6195307 5.6195316 5.6195307 3.0992184 0 5.6203127-2.5210934 5.6203127-5.6195307 0-1.578125-.6726561-3.09375-1.8453131-4.1593752-.327343-.296875-.3515625-.8031249-.0546875-1.1296875.2984381-.328125.8039064-.3499999 1.1296883-.0546875 1.5062494 1.3679688 2.3703117 3.315625 2.3703117 5.34375 0 3.98125-3.2390625 7.2195313-7.2203123 7.2195313zm.8000002-7.2195311v-6.539844c0-.4421875-.3578129-.8-.8000002-.8-.4421878 0-.8000002.3578125-.8000002.8v6.539844c0 .4421873.3578124.8000002.8000002.8000002.4421873 0 .8000002-.3578129.8000002-.8000002z" fill="currentColor"/></g></svg>