<svg height="16" viewBox="0 0 16 16" width="16" xmlns="http://www.w3.org/2000/svg"><g fill="none" fill-rule="evenodd"><path d="m0 0h16v16h-16z"/><path d="m8.0000019.7765808c-3.9526362 0-7.1568842 2.9733398-7.1568842 6.641211 0 2.1229491 1.0765625 4.0099607 2.7473145 5.2255855v1.8486328c0 .304493.3430176.4827156.5921876.3076668l1.5469723-1.0869637c.7139649.2218752 1.4759769.3461914 2.2704101.3461914 3.9525881 0 7.1568365-2.9732418 7.1568365-6.6411128s-3.2042487-6.641211-7.1568368-6.641211zm-.1161616 10.1530275c-.2650883 0-.4799807-.2148924-.4799807-.4799804 0-.2650882.2148924-.4799805.4799807-.4799805.2650874 0 .4799807.2148924.4799807.4799805s-.2148933.4799804-.4799807.4799804zm1.5343745-3.6415529c-.1265621.1343751-.2671871.2570315-.4078121.3789063-.4117184.3570308-.6453123.5812502-.6453123 1.0421877 0 .2648439-.2148438.4796877-.4796877.4796877s-.4796877-.2148438-.4796877-.4796877c0-.921875.5414062-1.390625.9765625-1.7679691.1164064-.100781.2328129-.2007809.3375006-.3117185.2695312-.2859378.3085937-.5820313.3085937-.733594-.0023441-.5679688-.4632816-1.0304684-1.0281258-1.0304684-.5671873 0-1.0289059.4617186-1.0289059 1.0289059 0 .2648439-.2148438.4796877-.4796877.4796877-.2648435 0-.4796872-.2148438-.4796872-.4796877 0-1.0968747.8914061-1.988281 1.9882808-1.988281 1.0921879 0 1.9835939.8906248 1.98752449 1.9867189.00153881.2937497-.07111779.8671874-.56955569 1.3953122z" fill="currentColor"/></g></svg>