<svg height="16" viewBox="0 0 16 16" width="16" xmlns="http://www.w3.org/2000/svg"><g fill="none" fill-rule="evenodd"><path d="m0 0h16v16h-16z"/><path d="m14.7944384 1.6782961c.1788578.7826173 1.314063 6.5091305-2.6422367 10.4550292-2.4171868 2.4117184-5.4464841 2.9406252-7.6398435 2.9406252-1.3917968 0-2.4401856-.2118655-2.7887695-.2925301l.0735352-.0176268c.4949216-.0414057 4.5503907-.4968748 8.5222654-4.4632807 4.0957032-4.0898437 4.4539061-8.3820312 4.4648438-8.5390625zm-10.9176269 2.1800294c3.5141602-3.5256837 8.4172854-3.0135743 10.0175774-2.72876l-.0656242.5381347c-.0027351.0406251-.3425789 4.1140628-4.1875 7.9531255-3.8781252 3.8726559-7.9101564 4.1851559-7.9503908 4.1882811-.0269531.0015621-.0546875.0062495-.0808595.0124993l-.4580078.1101561c-.3008787-1.5340328-.9024412-6.4342279 2.7248049-10.0734367z" fill="currentColor"/></g></svg>