<svg height="16" viewBox="0 0 16 16" width="16" xmlns="http://www.w3.org/2000/svg"><g fill="none" fill-rule="evenodd"><path d="m0 0h16v16h-16z"/><path d="m14.7982912 13.6218748-3.287158-3.2864742c1.6952143-2.2880859 1.5127439-5.5390625-.5604982-7.6119633-2.28125-2.28125-5.9921875-2.28125-8.2726564 0-2.2808595 2.2808592-2.2808595 5.9921875 0 8.2726564 1.1402345 1.140625 2.6382813 1.7109375 4.1363282 1.7109375 1.2659183 0 2.5291018-.4122066 3.579248-1.2267094l3.2734861 3.2728033c.15625.15625.3609381.234375.5656252.234375s.4093752-.078125.5656252-.234375c.3124999-.3124999.3124999-.8187503-.0000001-1.1312503zm-10.9890628-3.7570314c-1.6570311-1.6570311-1.6570311-4.3531246 0-6.0101557.8285155-.8285155 1.9167972-1.242578 3.0050783-1.242578s2.1761718.4140625 3.0050778 1.242578c1.6570311 1.6570313 1.6570311 4.3531246 0 6.0101557-1.657812 1.65625-4.3531245 1.65625-6.0101561 0z" fill="currentColor"/></g></svg>