<svg height="16" viewBox="0 0 16 16" width="16" xmlns="http://www.w3.org/2000/svg"><g fill="none" fill-rule="evenodd"><path d="m0 0h16v16h-16z"/><path d="m12 10.72c-.5066667 0-.96.2-1.3066667.5133333l-4.7533333-2.76666663c.03333333-.15333334.06-.30666667.06-.46666667s-.02666667-.31333333-.06-.46666667l4.7-2.74c.36.33333334.8333333.54 1.36.54 1.1066667 0 2-.89333333 2-2 0-1.10666666-.8933333-2-2-2s-2 .89333334-2 2c0 .16.0266667.31333334.06.46666667l-4.7 2.74c-.36-.33333333-.83333333-.54-1.36-.54-1.10666667 0-2 .89333333-2 2s.89333333 2 2 2c.52666667 0 1-.20666667 1.36-.54l4.7466667 2.7733333c-.0333334.14-.0533334.2866667-.0533334.4333334 0 1.0733333.8733334 1.9466666 1.9466667 1.9466666s1.9466667-.8733333 1.9466667-1.9466666c0-1.0733334-.8733334-1.9466667-1.9466667-1.9466667z" fill="currentColor"/></g></svg>