<svg height="16" viewBox="0 0 16 16" width="16" xmlns="http://www.w3.org/2000/svg"><g fill="none" fill-rule="evenodd"><path d="m0 0h16v16h-16z"/><path d="m7.9999895 3.1942585 3.855957 1.5134766v3.2314453c0 1.4474611-.7068357 2.8185549-1.8906736 3.6679688-.7414551.5318356-1.424365.9093752-1.9652834 1.1677732-.5409179-.2583981-1.2237792-.6359377-1.9651365-1.1677732-1.1839843-.8494139-1.8908205-2.2205076-1.8908205-3.6679688v-3.2314453zm.0000014-1.0313678-4.8159485 1.8904297v3.8859372c0 1.7559576.8565125 3.4187498 2.2911682 4.4480467.995636.7142582 1.897162 1.1708012 2.5247922 1.4421883.6275816-.2713871 1.5291386-.7279301 2.5248289-1.4422855 1.4346132-1.0291996 2.2911263-2.6919918 2.2911263-4.4479494v-3.8859373zm.0000062-1.6314454c.1458254 0 .2916498.0270508.4297791.0813476l5.2397213 2.0567384c.4502869.1766601.74646.6111326.74646 1.0948241v4.174902c0 2.2794924-1.1063414 4.4192381-2.9584713 5.7480469-1.2165775.8727541-2.3139524 1.4030275-3.0204344 1.6944342-.1403017.0578117-.2886782.0868158-.4370546.0868158-.1483707 0-.2967472-.0290041-.4370484-.0868158-.7064819-.2914066-1.8038635-.8216801-3.0204349-1.6944342-1.8521362-1.3288086-2.9584716-3.4685543-2.9584716-5.7480467v-4.174902c0-.4836915.296167-.918164.746454-1.0948241l5.2397218-2.0567385c.1381345-.0542969.2839599-.0813477.429779-.0813477z" fill="currentColor"/></g></svg>