<svg height="20" viewBox="0 0 20 20" width="20" xmlns="http://www.w3.org/2000/svg"><g fill="none" fill-rule="evenodd"><rect fill="currentColor" height="20" rx="10" width="20"/><path d="m9.99977884 7 4.00022116 1.72207418v1.27452643c0 1.37542489-.6862582 2.70811049-1.8825612 3.65614349-.8257236.6556581-1.5739663 1.08305-2.11765996 1.3472559-.54325084-.2642059-1.2919364-.6925692-2.11766039-1.3472559-1.19586029-.948033-1.88211845-2.2807187-1.88211845-3.65614349v-1.27464778zm0-2-3.99977884 1.64898275v1.35101725l3.80098532-1.56678939c.1275112-.05208293.27007588-.05208293.39758708 0l3.8014276 1.56678939v-1.35101725zm.18022776 11.9680325c.5884082-.2142681 1.7751173-.7196989 3.1158105-1.6925443 1.7183412-1.2467292 2.7041829-3.0593681 2.7041829-4.9730933v-4.61540415c0-.218588-.1333381-.41471243-.3354959-.49419903l-5.4715939-2.15650438c-.1238754-.04838312-.26237499-.04838312-.3862504 0l-5.47116389 2.15650438c-.20215779.0794866-.33549591.27561103-.33549591.49419903v4.61540425c0 1.9137251.98584157 3.726364 2.70418269 4.9730933 1.33983295.9728454 2.52697264 1.4782762 3.11495072 1.6925443.05849667.0215996.11957418.0319674.18065161.0319674.06107738 0 .12215498-.0103679.18022158-.0319675zm-.18022394-12.9680325 5.00021734 1.98096621v4.32474449c0 1.5953148-.8354 3.1185946-2.292564 4.1815521-1.123439.8196194-2.1228733 1.2825761-2.70765334 1.5127372-.58478003-.2301611-1.58421433-.6931178-2.70721868-1.5127372-1.45716393-1.0629575-2.29256398-2.5862373-2.29256398-4.1815521v-4.32474449z" fill="#fff" fill-rule="nonzero"/></g></svg>