<svg height="16" viewBox="0 0 16 16" width="16" xmlns="http://www.w3.org/2000/svg"><g fill="none" fill-rule="evenodd"><path d="m0 0h16v16h-16z"/><path d="m14.88365 8.458c0 2.193-1.1363 3.42852-3.11764 4.85948-.8122874.5888375-1.6782395 1.0998449-2.58638 1.52625-.14882436.0704503-.32336769.0597329-.46245495-.0283958s-.22331971-.2413773-.22317524-.4060342v-12.81884c0-.15872871.07847287-.30719286.2096248-.3966019.13115193-.08940903.29802371-.10820022.44577539-.0501981l5.294 2.07821c.2655304.10423903.4401701.36041194.44017.64567zm-8.93905-5.22466-3.1896 1.25195v3.97266c0 1.37168.57349 2.20391 2.45444 3.5625.2417.1746067.48675333.3408833.73516.49883zm1.1204-2.12324c.26490808.00052924.47941373.21536142.47954122.48027v12.81895c.00028575.1274264-.05014964.2497287-.14017514.3399118s-.21223933.1407683-.33966608.1407683c-.0711184-.000162-.14133065-.0159654-.20566-.0462901-.90815154-.4263528-1.77410603-.9373348-2.58638-1.52617-1.98135-1.43108-3.11766-2.66643-3.11766-4.85959v-4.59043c0-.28524598.17464414-.54140609.44014-.6457l5.294-2.07812c.05598177-.02217206.11564739-.0336.17586-.0336z" fill="currentColor"/></g></svg>