<svg height="16" viewBox="0 0 16 16" width="16" xmlns="http://www.w3.org/2000/svg"><g fill="none" fill-rule="evenodd"><path d="m0 0h16v16h-16z"/><path d="m7.9999986 5.3690629 4.4550786 1.7484374v1.2078123c0 1.3992195-.7585936 2.75-2.0812502 3.7054691-.9386721.6781254-1.7839842 1.1062498-2.3726559 1.3601561-.5640631-.2445307-1.4281254-.6757812-2.3750005-1.3601561-1.3226562-.9554691-2.08125-2.3062496-2.08125-3.7054691v-1.2078123zm0-2.7624998-4.4550779 1.7492185v1.7302737l4.2796879-1.6794925c.1124997-.0437498.2382808-.0437498.350781 0l4.2796879 1.6794925v-1.7302737zm.1636729 12.785234c.6285162-.2289066 1.8976564-.7664061 3.3347664-1.8046875 1.828125-1.3203125 2.8765621-3.2382813 2.8765621-5.2617188v-4.9515626c0-.1976564-.1210938-.375-.3046875-.4468751l-5.8949223-2.3140625c-.1124992-.04375-.2382808-.04375-.350781 0l-5.8949217 2.3140625c-.1835937.0718751-.3046875.2492187-.3046875.4468751v4.9515629c0 2.0226564 1.0484376 3.9406252 2.8765626 5.2617188 1.4378905 1.0382814 2.7066407 1.5765619 3.3347654 1.8046875.0527344.0187499.1082034.0281245.163672.0281245s.1109371-.0093746.1636715-.0281248zm-.1636715-13.8164065 5.4148436 2.1257813v4.6242189c0 1.7109375-.9035158 3.3453121-2.4789057 4.4835939-1.2261725.8859368-2.3136721 1.3789063-2.9359379 1.6187497-.6218748-.2390623-1.7089844-.7320309-2.9359374-1.6187496-1.5753908-1.1382818-2.4789064-2.7726564-2.4789064-4.4835939v-4.624219z" fill="currentColor"/></g></svg>