<svg height="16" viewBox="0 0 16 16" width="16" xmlns="http://www.w3.org/2000/svg"><g fill="none" fill-rule="evenodd"><path d="m0 0h16v16h-16z"/><path d="m1.13481 4.35844 1.4045 2.28726-.34361 4.05224c-.03541191.4154062-.38269743.7346999-.79961.735171-.02295436.0001198-.04590056-.0009148-.06875-.003111-.21223678-.0179594-.40864345-.1195042-.54600284-.2822905-.1373594-.1627863-.20441687-.3734761-.18641716-.5857095l.51367-6.05782c.00425-.05018.02017-.09608.02622-.14574zm13.757.14575c-.1624236-2.04994799-1.8792199-3.62717797-3.93556-3.61568311h-5.91211c-.57738953.00291526-1.14713728.13228392-1.66914.37906311l.84585 1.37743c.26330389-.09866412.54210838-.14952548.82329-.15019h5.91211c1.2201351-.00707442 2.2388018.9289427 2.33475 2.14532l.51328 6.05781c.037536.4420432.4263118.769961.868355.732425s.769961-.4263118.732425-.868355zm-11.96729-.591c-.18165179.11126739-.40006459.14581611-.60718947.09604575s-.38599502-.17978281-.49726053-.36143575l-.00418-.0068c-.22960173-.37814765-.11020036-.87076447.26706105-1.10181952.3772614-.23105505.87033399-.11355004 1.10283895.26281952l.00421.00678c.11125588.1816646.14578762.40008542.09599838.60721081-.04978924.2071254-.17982082.38598814-.36148838.49723919zm1.48742 2.42881c-.181657.1112598-.40007184.145799-.60719496.09601924-.20712311-.04977976-.38598774-.17980071-.49724504-.36145924l-.0042-.00684c-.2312918-.37825873-.1123434-.87238503.26574808-1.10395015.37809147-.23156512.8723036-.11297386 1.10414192.26495015l.0042.00683c.11125941.18165975.14579733.40007701.09601572.60720189-.04978161.20712487-.17980484.38599054-.36146572.49724811zm1.4874 2.4287c-.18165579.11126068-.40006974.14580143-.60719273.09602357-.20712298-.04977785-.38598834-.17979671-.49724727-.36145357l-.00418-.00684c-.22960173-.37814765-.11020036-.87076447.26706105-1.10181952.3772614-.23105505.87033399-.11355004 1.10283895.26281952l.00417.00683c.23167903.37828494.11283331.87275832-.26545 1.10444zm2.10075.68553c-1.56164036 0-2.8276 1.2659596-2.8276 2.8276s1.26595964 2.8276 2.8276 2.8276 2.8276-1.2659596 2.8276-2.8276-1.26595964-2.8276-2.8276-2.8276z" fill="currentColor"/></g></svg>