<svg height="16" viewBox="0 0 16 16" width="16" xmlns="http://www.w3.org/2000/svg"><g fill="none" fill-rule="evenodd"><path d="m0 0h16v16h-16z"/><path d="m8.80056006 4.49838v-.00722c-.0001126-.28695929-.15330755-.55206058-.40187786-.69544276-.24857031-.14338219-.55475223-.14326211-.80321.000315-.24845777.1435771-.40144474.40879847-.40133226.69575776v.00721c.00011438.28695929.15331099.55205963.40188219.69544026.2485712.14338064.55475312.14325866.80321-.00032.24845687-.14357865.40144219-.40880097.40132793-.69576026zm.00112 2.89453v-.00722c-.00017403-.44360063-.35992443-.80306897-.80352506-.80289506-.44360063.00017403-.80306897.35992443-.80289506.80352506v.00723c.00011438.28695929.15331099.55205963.40188219.69544026.2485712.14338064.55475312.14325866.80321-.00032.24845687-.14357865.40144219-.40880097.40132793-.69576026zm2.02613994 4.89092c0 1.5616404-1.26595964 2.8276-2.8276 2.8276s-2.8276-1.2659596-2.8276-2.8276 1.26595964-2.8276 2.8276-2.8276 2.8276 1.2659596 2.8276 2.8276zm-9.43173-.8507189c-.02295437.0001199-.04590058-.0009147-.06875-.0031111-.21223678-.0179594-.40864345-.1195042-.54600284-.2822905-.1373594-.1627863-.20441687-.3734761-.18641716-.5857095l.51367-6.05782c.162682-2.04981651 1.87931905-3.62689979 3.93555-3.61567049h5.91172c2.0563125-.01125314 3.7730733 1.56579587 3.93593 3.61568049l.51329 6.05782c.0242816.2858125-.1057605.5628681-.3411406.7268028s-.5403383.1898428-.8.067965c-.2596616-.1218778-.4345778-.3730253-.4588594-.6588378l-.51329-6.05781c-.0970291-1.21632013-1.1157638-2.15192254-2.33593-2.14531h-5.91172c-1.21999102-.00652873-2.23845216.92913889-2.33514 2.14531l-.5133 6.05781c-.03554481.415341-.38275129.734562-.79961.7351711z" fill="currentColor"/></g></svg>