<svg height="16" viewBox="0 0 16 16" width="16" xmlns="http://www.w3.org/2000/svg"><g fill="none" fill-rule="evenodd"><path d="m0 0h16v16h-16z"/><path d="m8.072197.845383c3.9652338 0 7.1914062 3.2261721 7.1914062 7.1914058 0 3.9656258-3.2261724 7.1917973-7.1914062 7.1917973-3.9656253 0-7.1917973-3.2261715-7.1917973-7.1917973 0-3.9652338 3.226172-7.1914058 7.1917973-7.1914058zm.3787594 3.6662599c-1.9468751-.2092285-3.6947264 1.1994634-3.903955 3.146338s1.1994137 3.6947757 3.1462888 3.9040042 3.6947761-1.1994629 3.9040046-3.1463385c.2092285-1.9468747-1.1994142-3.6947752-3.1463384-3.9040037zm-.4475604 1.4439717c.3698588.0010414.6648894.1018543.8808089.3023224.220376.2039403.3321848.4481592.3320685.7257127.0005789.2513948-.0667839.4608908-.1988478.623395-.0254631.0314822-.0549775.0618072-.0878487.0916691.0486698.0353017.0921898.0731501.1313686.1131973.182354.1922498.2745438.4392467.27443012.7356668.00051898.3421383-.11690312.6377468-.34839042.8776836-.2330494.2414417-.5603151.3640137-.9724779.3642454-.0669579 0-.132874-.0032405-.1969957-.0101852-.2846137-.0305567-.5342727-.1291704-.7450419-.2939892-.2705507-.212737-.4079385-.5206146-.40840301-.9148378-.00034559-.2343808.05914651-.4412146.17523721-.6155243.0616913-.0921321.1386609-.1724582.23033-.241673-.018403-.0155096-.0353016-.0314822-.051506-.0476861-.1568904-.1588006-.2368693-.3655186-.2371006-.6136732-.0002894-.2993131.1090884-.5591574.3240242-.7736302.2163248-.2137784.5178947-.3222303.8983445-.3226933zm-.0111117 2.1456551c-.1594367.0002317-.2833981.0421314-.3782501.1282444-.0902224.0813675-.1342049.1953755-.13357511.3497772-.00028269.131485.04167471.2419043.12946621.3372774.0815416.0891219.2208967.1349564.4141884.1349564.1553278-.0002308.2790003-.0393524.376688-.1200256l.04795672-.04790328c.05572184-.06985019.08269582-.16576006.08237596-.29122622.00057342-.1656284-.04468228-.2843818-.13837698-.3630876-.0815992-.0692148-.1828746-.109725-.3057365-.1229191-.030036-.0032416-.0615759-.0049773-.0947366-.0050936zm-.0109377-1.4074421c-.1498298.0002313-.2541151.0328708-.3093829.0973401-.063138.0736132-.0942731.157527-.0938101.2563725-.0002313.1048636.0326977.1770878.1073523.234149.0874443.0663213.1890092.0975723.3104825.0982666.1387763-.0002318.2412095-.0351863.313086-.1064844.0719347-.0716453.1053267-.1512766.1056166-.2507005.0002317-.0789371-.0332184-.1530132-.1020861-.2252374-.0521421-.0542836-.1321211-.0877333-.2392416-.099308-.0286474-.0030093-.0596085-.0042825-.0920167-.0043979z" fill="currentColor"/></g></svg>