<svg height="16" viewBox="0 0 16 16" width="16" xmlns="http://www.w3.org/2000/svg"><g fill="none" fill-rule="evenodd"><path d="m0 0h16v16h-16z"/><path d="m5.834816 7.3775086.7644339 2.4800906h2.6973257l.8697605-2.4800906-2.16576-1.6062174zm6.8900299 4.0118404-.4706745-.7520914-1.8629484.5842285-1.2145376 1.5691881.6903782.7175322c-.5858756.198308-1.2137147.3061018-1.8670636.3061018-.6895547 0-1.3511314-.1201372-1.965806-.340663l.6574631-.682971-1.2145371-1.5691881-1.8629484-.5842285-.4081371.6525249c-.6426516-.9355879-1.01952-2.0686626-1.01952-3.2889595l.741394.3044577 1.1742172-1.5601377.0732346-1.9822631-.889509-.1645713c.7257602-1.0047086 1.7650287-1.7674971 2.9738061-2.1468342l-.1077948.9166625 1.9147887.5159318 1.8382626-.6607544-.0666513-.7405715c1.1585836.38592 2.1550636 1.1264915 2.8610744 2.0933485l-1.0063534.1867886.0732336 1.9822631 1.1742172 1.5601377.8730516-.3587666c.0008222.0181032.0008222.0353828.0008222.0534859 0 1.2647314-.4040223 2.4348345-1.0894623 3.389349zm-4.7248459-10.589349c-3.9760456 0-7.2 3.2239544-7.2 7.2 0 3.9768686 3.2239544 7.1999998 7.2 7.1999998 3.9768686 0 7.1999998-3.2231312 7.1999998-7.1999998 0-3.9760456-3.2231312-7.2-7.1999998-7.2z" fill="currentColor"/></g></svg>