<svg height="16" viewBox="0 0 16 16" width="16" xmlns="http://www.w3.org/2000/svg"><g fill="none" fill-rule="evenodd"><path d="m0 0h16v16h-16z"/><path d="m8 .7804746c-3.9872069 0-7.2195311 3.2322755-7.2195311 7.2195311 0 3.9872074 3.2323244 7.2195311 7.2195311 7.2195311 3.9872561 0 7.2195311-3.2323236 7.2195311-7.2195311 0-3.9872556-3.232275-7.2195311-7.2195311-7.2195311zm1.0488281 9.0012208h-2.1937499c-.1136718 0-.2140627-.0741215-.2475586-.1826658l-.6186037-2.0049806c-.0323729-.1050296.0049806-.2190433.0933109-.2845216l1.7621579-1.3056154c.0916505-.0679197.216846-.0679197.308496 0l1.7560549 1.3010745c.09126.067627.1278324.1868649.0901852.2940917l-.7058593 2.0093746c-.0364742.1038094-.1344232.1732426-.2444334.1732426zm-7.2934081-2.0762697c.0530761-1.131494.4041991-2.1844725.9820311-3.0818357l1.4166994.2554197c.1253905.0243163.2143555.136426.2095704.2640138l-.0596681 1.5854492c-.0020022.0526366-.0200195.1035156-.0516114.1456542l-.9525878 1.2700687c-.0709474.0945797-.1968263.1291503-.3060549.0840816zm9.981055-2.8139162 1.5374508-.2492185c.5760746.9016113.9246578 1.9586425.9722652 3.0941892l-1.3516111.5040526c-.1090326.0445318-.2344236.0098639-.3050776-.0843744l-.9530763-1.270801c-.031641-.0421877-.0496588-.0930176-.0516605-.1457033l-.0595703-1.5837889c-.0048343-.1283202.0850591-.2408204.2112798-.2643557zm-2.0500488-2.9137205.0925779 1.2858888c.0105953.1175292-.0595703.2273436-.1706057.2670899l-1.4870119.532666c-.0506344.0180664-.1057615.0200195-.1575679.0054688l-1.513721-.4262698c-.1224122-.0344238-.2017088-.1527343-.1871095-.2790527l.1178226-1.4031249c.5174804-.1389649 1.0584469-.2199707 1.6191893-.2199707.5849609 0 1.1489744.0865234 1.6864262.2373046zm-6.6679204 9.7969236.6952636-1.0748043c.0615723-.1022949.1851563-.1491699.2990723-.113574l1.5115724.4722166c.0505857.0157223.0950685.0466309.1275392.0885258l1.0458984 1.3495598c.0362792.0468264.0327148.1132326-.0084472.1558599l-1.103467 1.1217279c-1.0235353-.4295407-1.9046388-1.1269531-2.5674317-1.9995117zm7.2802737 2.0417976-1.0158691-1.0769539c-.0891113-.0926266-.0968266-.2366695-.0180664-.338232l.972558-1.2548828c.0321293-.0414553.0761232-.072217.1261721-.0881348l1.4812498-.4716311c.112793-.0358887.2355471.0092287.2982426.1096191l.7827635 1.152832c-.6810542.8696777-1.5847655 1.5539066-2.6270505 1.9673835z" fill="currentColor"/></g></svg>