<svg xmlns="http://www.w3.org/2000/svg" viewBox="0 0 30 30" >
  <path
        d="M20.924 28.909H9.076c-4.403 0-7.984-3.582-7.984-7.985V9.076c0-4.403 3.581-7.984 7.984-7.984h11.848c4.402 0 7.985 3.581 7.985 7.984v11.848c0 4.403-3.583 7.985-7.985 7.985zM9.076 3.519A5.562 5.562 0 0 0 3.52 9.076v11.848a5.563 5.563 0 0 0 5.556 5.557h11.848a5.564 5.564 0 0 0 5.557-5.557V9.076a5.563 5.563 0 0 0-5.557-5.557H9.076z" fill="currentColor"></path>
  <path d="M19.975 22.424c-.671 0-1.214-.543-1.214-1.214v-3.12a1.213 1.213 0 1 1 2.428 0v3.12c0 .671-.543 1.214-1.214 1.214zM9.343 22.424c-.67 0-1.214-.543-1.214-1.214V9.626a1.213 1.213 0 1 1 2.428 0V21.21c0 .671-.543 1.214-1.214 1.214zM14.66 22.424c-.671 0-1.214-.543-1.214-1.214v-7.786a1.213 1.213 0 1 1 2.427 0v7.786c0 .671-.543 1.214-1.214 1.214z" fill="currentColor"></path>
</svg>
