<svg xmlns="http://www.w3.org/2000/svg"  viewBox="0 0 30 30" >
  <path
    d="M14.992 28.83c-7.63 0-13.837-6.208-13.837-13.838a1.213 1.213 0 1 1 2.428 0c0 6.291 5.118 11.41 11.409 11.41 6.292 0 11.41-5.119 11.41-11.41 0-5.958-4.651-10.957-10.59-11.38a1.214 1.214 0 0 1-1.124-1.298c.049-.668.587-1.165 1.298-1.125 7.202.515 12.844 6.578 12.844 13.803 0 7.63-6.208 13.837-13.838 13.837zM4.507 10.492a1.214 1.214 0 0 0-2.21-1.002 1.214 1.214 0 0 0 2.21 1.002zm2.707-3.84A1.215 1.215 0 1 0 5.387 5.08a1.214 1.214 0 0 0 1.827 1.572zm4.4-2.668a1.215 1.215 0 1 0-1.826-1.573 1.214 1.214 0 0 0 1.826 1.573zm4.592 11.006V9.206a1.213 1.213 0 1 0-2.428 0v4.571H9.207a1.213 1.213 0 1 0 0 2.428h5.785c.67 0 1.214-.543 1.214-1.214z" fill="currentColor"></path>
</svg>
