<svg xmlns="http://www.w3.org/2000/svg" viewBox="0 0 30 30" >
  <path d="M20.924 1.092H9.076c-4.402 0-7.984 3.582-7.984 7.984v11.848c0 4.402 3.582 7.984 7.984 7.984h11.848c4.402 0 7.984-3.582 7.984-7.984V9.076c0-4.402-3.582-7.984-7.984-7.984zM3.519 20.924v-1.895a2.06 2.06 0 0 0 2.033-2.056v-4.091a2.06 2.06 0 0 0-2.033-2.057V9.076A5.564 5.564 0 0 1 9.076 3.52h4.71v6.225c-2.39.554-4.182 2.69-4.182 5.246s1.791 4.692 4.182 5.246v6.244h-4.71a5.564 5.564 0 0 1-5.557-5.556zm17.405 5.556h-4.71v-6.244c2.39-.554 4.181-2.69 4.181-5.246s-1.79-4.692-4.181-5.246V3.52h4.71a5.564 5.564 0 0 1 5.556 5.557v1.749a2.06 2.06 0 0 0-2.031 2.057v4.09a2.06 2.06 0 0 0 2.031 2.057v1.895a5.564 5.564 0 0 1-5.556 5.556z" fill="currentColor"></path>
</svg>
