<svg xmlns="http://www.w3.org/2000/svg"  viewBox="0 0 30 30" >
  <path d="M21.878 27.821H8.122C3.66 27.821.03 24.191.03 19.73V10.27c0-4.462 3.63-8.092 8.092-8.092h13.756c4.462 0 8.092 3.63 8.092 8.092v9.458c0 4.463-3.63 8.092-8.092 8.092zM8.122 4.607a5.67 5.67 0 0 0-5.665 5.664v9.458a5.67 5.67 0 0 0 5.665 5.665h13.756a5.67 5.67 0 0 0 5.664-5.665V10.27a5.67 5.67 0 0 0-5.664-5.664H8.122z" fill="currentColor"></path>
  <path d="M7.675 10.852a1.097 1.097 0 0 0-.837.09c-.01.004-.02.01-.029.016l-1.275.778a1.06 1.06 0 0 0-.54.635c-.087.283-.056.585.1.872.237.413.79.613 1.189.514v4.534a1.087 1.087 0 0 0 2.172 0v-6.295a1.16 1.16 0 0 0-.132-.627 1.073 1.073 0 0 0-.648-.517zM14.813 15.096l1.838-2.514a1.075 1.075 0 0 0-.21-1.554 1.054 1.054 0 0 0-.753-.214c-.291.028-.555.172-.772.44l-1.452 1.995-1.424-1.953a1.059 1.059 0 0 0-.73-.475 1.081 1.081 0 0 0-.822.207c-.228.162-.383.41-.429.688-.052.307.032.622.203.834l1.855 2.546-1.828 2.512a1.094 1.094 0 0 0-.236.826c.038.29.196.557.505.777.53.313 1.17.148 1.47-.315l1.436-1.965 1.445 1.977c.21.298.535.47.891.47.292 0 .497-.124.636-.21.244-.177.406-.447.445-.742a1.057 1.057 0 0 0-.206-.785l-1.862-2.545zM23.221 17.195h-1.056l1.128-1.02a3.14 3.14 0 0 0 1.014-2.302c0-.78-.29-1.52-.805-2.07-1.08-1.224-3.119-1.353-4.405-.215l-.284.272c-.234.188-.379.47-.396.773-.016.307.1.607.255.757.188.233.47.378.772.395.289.012.606-.095.8-.289l.326-.298c.37-.327.984-.312 1.323.067a.9.9 0 0 1 .241.608c0 .261-.113.508-.311.692l-3.256 2.938a1.105 1.105 0 0 0-.072 1.487c.197.247.503.387.88.387h3.846c.599 0 1.086-.487 1.086-1.086 0-.604-.487-1.096-1.086-1.096z" fill="currentColor"></path>
</svg>
