<svg height="16" viewBox="0 0 16 16" width="16" xmlns="http://www.w3.org/2000/svg"><g fill="none" fill-rule="evenodd"><path d="m0 .00003h15.99997v15.99997h-15.99997z"/><path d="m11.12822 0c1.2527277.0852887 2.4204501.66408436 3.24691 1.60937 3.0074 3.08451 1.45153 5.64155-1.73809 7.79115-.23274.15686-.48883.30847-.75683.45666-.02071.0144-.04228.02177-.06364.03316-1.7907089.9084409-3.67918585 1.6096824-5.62882 2.09013-.12130732.0287059-.24528608.044636-.36991.04753l-3.557 3.5677c-.22959088.2589867-.55974474.406343-.90584.404321-.35805059-.003079-.70014964-.1485697-.95072-.404351-.25793069-.2397974-.404461-.5760996-.404461-.92828s.14653031-.6884826.404461-.92828l3.55121-3.56493c.0037095-.1268391.02080431-.25293174.051-.37618.48177479-1.9521057 1.18482996-3.84283027 2.09551-5.63545l.02624-.05591c.15075-.26729.30232-.52324.4591-.75586 1.34444-1.99495 2.8483-3.35078 4.54088-3.35078zm2.90439 12.0825c1.0798271 0 1.9552.8753729 1.9552 1.9552s-.8753729 1.9552-1.9552 1.9552-1.9552-.8753729-1.9552-1.9552.8753729-1.9552 1.9552-1.9552zm-8.25663-4.66325c-.29041.81975-.56266 1.70626-.80135 2.62915-.06337538.2349702-.01212594.4860687.13826.67741.14806215.1941326.37708291.3095076.62121.31295.0687606-.0002513.13721467-.0091785.20374-.02657.927-.23926 1.81771-.51245 2.64063-.80409-1.32441036-.43121207-2.36482134-1.46655926-2.80249-2.78885zm3.68452-.18505-1.53385 1.5338c.54421854.4115816 1.20656372.6368681 1.88887.64247.5072296-.00527301 1.0060113-.13050901 1.45557-.36547zm2.27844-2.27836-1.57141 1.57133 1.98847 1.98868c.6215789-.41276955 1.198262-.88944479 1.72063-1.42224zm-4.79565-.23917c-.50638223.95947832-.47720317 2.11328401.07703 3.04594.0618792.10221343.12902635.2011434.20117.29639l1.53202-1.53187zm7.06305-2.02812-1.56034 1.56026 2.06133 2.06144c.2507762-.36685049.4114811-.78768244.46906-1.22831.018602-.89707654-.3321202-1.76240828-.97005-2.39339zm-5.11395-.57942c-.53191882.52326994-1.00783769 1.10056673-1.42004 1.72253l1.98819 1.98844 1.57146-1.57133zm2.23587-1.10913c-.5187674.01895141-1.0210762.18703808-1.44677.48413l2.05751 2.0577 1.561-1.561c-.5851301-.57350102-1.3546086-.92102308-2.17174-.98083z" fill="currentColor"/></g></svg>