<svg height="16" viewBox="0 0 16 16" width="16" xmlns="http://www.w3.org/2000/svg"><g fill="none" fill-rule="evenodd"><path d="m0 0h16v16h-16z" fill="#fff" fill-rule="nonzero" opacity="0" transform="matrix(0 1 -1 0 16 0)"/><path d="m4.67377 10.34083c.37875136 0 .68579.3070386.68579.68579v3.42842c0 .3787514-.30703864.68579-.68579.68579h-3.42797c-.37875136 0-.68579-.3070386-.68579-.68579v-3.42842c0-.3787514.30703864-.68579.68579-.68579zm3.32623-7.65892c.15311468 0 .29994299.06089936.40818235.16919685.10823936.1082975.16902274.25515847.16897765.40827315v4.16341h1.10408v1.15495h-1.10409v4.16342c.00004509.1531129-.06073691.2999724-.16897411.4082696s-.25506294.1692004-.40817589.1692004h-1.68123v-1.15495h1.10409v-8.32682h-1.10409v-1.15495zm6.7542 2.90205c.3787514 0 .68579.30703864.68579.68579v3.42842c0 .3787514-.3070386.68579-.68579.68579h-3.42797c-.3787514 0-.68579-.3070386-.68579-.68579v-3.42842c0-.37875136.3070386-.68579.68579-.68579zm-10.08043-4.72479c.37875136 0 .68579.30703864.68579.68579v3.42842c0 .37875136-.30703864.68579-.68579.68579h-3.42797c-.37875136 0-.68579-.30703864-.68579-.68579v-3.42842c0-.37875136.30703864-.68579.68579-.68579z" fill="currentColor"/></g></svg>