<svg height="16" viewBox="0 0 16 16" width="16" xmlns="http://www.w3.org/2000/svg"><g fill="none" fill-rule="evenodd"><path d="m16 16h-16v-16h16z" opacity=".87"/><path d="m12.1933333 10.4733333-3.0533333 3.0533334c-.26.26-.68666667.26-.94666667 0s-.26-.6866667 0-.9466667l1.91999997-1.9133333h-6.77999997c-.36666666 0-.66666666-.3-.66666666-.6666667v-6.66666667c0-.36666666.3-.66666666.66666666-.66666666.36666667 0 .66666667.3.66666667.66666666v6h6.1133333l-1.91999997-1.91333333c-.26-.26-.26-.68666667 0-.94666667s.68666667-.26.94666667 0l3.0533333 3.05333334c.26.26.26.68666663 0 .94666663z" fill="currentColor"/></g></svg>