<svg height="16" viewBox="0 0 16 16" width="16" xmlns="http://www.w3.org/2000/svg"><g fill="none" fill-rule="evenodd"><path d="m0 0h16v16h-16z"/><path d="m2.9689453 7.8496065 5.60376 5.6182614c-.8152347.0323734-1.6176758-.0806637-2.3527832-.3733397-.5229492-.2082034-1.1171875-.0691891-1.4503422.3844728-.4551754.6197758-1.069531 1.4563961-1.4742186 2.0074215-.223242.3039551-.6633301.3354989-.9299805.0688477l-1.4512206-1.4512691c-.2666992-.2666989-.2330566-.7083006.0709473-.9315434l1.9910645-1.4619627c.4566893-.335351.594824-.93501.3813963-1.4598627-.3044434-.748682-.4231933-1.5682621-.388623-2.4010258zm6.5965816-6.7667969c1.5890141-.1091308 3.1378908.3885254 4.2685547 1.5191894 2.2571774 2.2571776 1.9931641 6.1808103-.5895498 8.763574-1.0103521 1.0103521-2.2258796 1.6631841-3.4664068 1.9513187l-6.6569824-6.6742678c.2274902-.9708004.6881347-1.9217281 1.3600585-2.7747069.5262208.7632813 1.4046388 1.2660155 2.3998046 1.2660155 1.6074224 0 2.9151855-1.3077635 2.9151855-2.9152343 0-.4027832-.0823241-.7866211-.2306643-1.1358886zm-2.6845331-.8192994c1.07982725 0 1.9552002.87537295 1.9552002 1.9552002s-.87537295 1.9552002-1.9552002 1.9552002-1.9552002-.87537295-1.9552002-1.9552002.87537295-1.9552002 1.9552002-1.9552002z" fill="currentColor"/></g></svg>