<svg height="16" viewBox="0 0 16 16" width="16" xmlns="http://www.w3.org/2000/svg"><g fill="none" fill-rule="evenodd"><path d="m0 0h16v16h-16z"/><path d="m11.31485 1.11539h-6.62969c-1.97039192.00242433-3.56710567 1.59913808-3.56953 3.56953v6.62968c.00242433 1.9703919 1.59913808 3.5671057 3.56953 3.56953h6.62969c1.9703919-.0024243 3.5671057-1.5991381 3.56953-3.56953v-6.62968c-.0024243-1.97039192-1.5991381-3.56710567-3.56953-3.56953zm-8.59922 5.65625h4.80469v2.45625h-4.80469zm5.76406 0h4.80469v2.45625h-4.80469zm4.80469-2.08672v.48672h-4.80469v-2.45625h2.83516c1.0872114.00127842 1.9682516.8823186 1.96953 1.96953zm-8.59922-1.96953h2.83516v2.45625h-4.80469v-.48672c.00127842-1.0872114.8823186-1.96825158 1.96953-1.96953zm-1.96953 8.59921v-.48672h4.80469v2.45625h-2.83516c-1.0872114-.0012784-1.96825158-.8823186-1.96953-1.96953zm8.59922 1.96954h-2.83516v-2.45625h4.80469v.48672c-.0012784 1.0872114-.8823186 1.9682516-1.96953 1.96953z" fill="currentColor"/></g></svg>