<svg height="16" viewBox="0 0 16 16" width="16" xmlns="http://www.w3.org/2000/svg"><g fill="none" fill-rule="evenodd"><path d="m0 0h16v16h-16z"/><path d="m8 .78047c-3.98722981 0-7.21948 3.23233352-7.21948 7.21956333 0 3.98722977 3.23231686 7.21949667 7.21954667 7.21949667 3.98722983 0 7.21951333-3.2323002 7.21951333-7.21953 0-1.91474788-.7606302-3.7510727-2.1145661-5.10499923-1.3539359-1.35392652-3.19026602-2.11453077-5.1050139-2.11453077zm-1.8957 2.84473c.53232098-.01659011 1.04636415.19506935 1.41266867.58167233.36630452.38660297.54995934.91130385.50471133 1.44195767 0 1.30059-.85845 2.68594-1.91738 2.68594s-1.91739-1.38536-1.91739-2.68594c-.04524825-.53065561.13840788-1.05535818.50471465-1.44196151s.88035265-.59826151 1.41267535-.58166849zm3.76587 9.66758c-1.41396841.505767-2.9719196.4217222-4.32327261-.233222-1.35135302-.6549443-2.3825873-1.8257693-2.86164739-3.249008.13203089-.18270373.30037387-.33616929.49448-.45078l1.20083-.67812 1.74165 1.7418 1.72867-1.72892 1.178.66523c.51976952.29367396.84120145.8444136.84129 1.44141zm-1.32256-5.80372c.27897182-.57377365.42724066-1.20226917.43413-1.84023.00305234-.53855281-.13088021-1.06903872-.38921-1.5416.35815995-.31906259.8235422-.49119889 1.30312-.482.5323102-.01658044 1.0463398.19507885 1.4126365.5816739.3662968.38659506.5499517.9112826.5047135 1.4419261 0 1.30059-.85845 2.68594-1.91738 2.68594-.56100892-.04326154-1.06494662-.35942028-1.34801-.84571zm2.28257 5.35782v-2.04571c-.0009935-.3669475-.0794798-.7295475-.23032-1.06406l1.04233-1.04258 1.178.66523c.1940704.11459761.3624204.26798937.49453.45059-.4381521 1.2768653-1.3196933 2.3542585-2.48454 3.03653z" fill="currentColor"/></g></svg>