<svg height="16" viewBox="0 0 16 16" width="16" xmlns="http://www.w3.org/2000/svg"><g fill="none" fill-rule="evenodd"><path d="m0 0h16v16h-16z"/><path d="m11.5342417 14.291728c-1.0452156.5884285-2.2493172.927784-3.5342293.927784-1.6456537 0-3.1578121-.5568361-4.3720703-1.4838867.5964844-.1916018 1.1487305-.4633303 1.6736329-.72295 1.3695312-.6777344 2.5519533-1.2624998 4.226563-.577343 1.0479976.4289551 1.6096679 1.0775385 2.0061037 1.8563957zm-.5553227-5.4005365c-2.0761718-.8496094-2.6476564-2.4957032-3.1523437-3.9484377-.5011721-1.4429688-.9339843-2.6894531-2.6089845-3.375-.0969725-.0396973-.1958494-.0605469-.293652-.0918458-2.4465824 1.1558595-4.1434573 3.6386717-4.1434573 6.5240724 0 1.9268069.7595214 3.6728511 1.9895995 4.9675288.715625-.133935 1.3856444-.4589348 2.1057129-.81499 1.3773437-.6820307 2.9414062-1.4550781 5.0156255-.6054688 1.2651854.517725 1.9683104 1.3325195 2.4414549 2.2178717 1.5816889-1.1907721 2.6603518-3.0109863 2.8527346-5.0930672-.724268.3247566-1.5083504.5927734-2.3941898.5927734-.5605469.0000001-1.1613284-.1066398-1.8125001-.3734368zm-2.2453127-4.2632814c.5011721 1.4429684.9339848 2.6894531 2.6085939 3.3749995 1.5226078.621973 2.639307.1944342 3.8574705-.3968749-.2057619-3.8028805-3.345459-6.8255858-7.1996584-6.8255858-.6092281 0-1.1975584.0836914-1.7626948.2257813 1.5461913.902588 2.0498539 2.3369142 2.4962888 3.6216799z" fill="currentColor"/></g></svg>