<?xml version="1.0" encoding="UTF-8"?>
<svg width="20px" height="20px" viewBox="0 0 20 20" version="1.1" xmlns="http://www.w3.org/2000/svg" xmlns:xlink="http://www.w3.org/1999/xlink">
    <!-- Generator: sketchtool 64 (101010) - https://sketch.com -->
    <title>f1c8a072-a5e1-433d-afd1-79cbe1602c18@1.00x</title>
    <desc>Created with sketchtool.</desc>
    <g id="Symbols" stroke="none" stroke-width="1" fill="none" fill-rule="evenodd">
        <g id="Interface-/-20-px-/--telegram" fill="currentColor">
            <g transform="translate(0.000000, 2.000000)" id="Combined-Shape">
                <path d="M19.2608325,0.0364160704 C19.6621749,-0.114777434 20.0757584,0.227892036 19.9881452,0.638907414 L19.9881452,0.638907414 L16.5943401,16.5772003 C16.5141541,16.9539756 16.0623345,17.1245046 15.7433787,16.8983858 L15.7433787,16.8983858 L11.1097859,13.6141567 C10.8286537,13.4148928 10.4454666,13.4253662 10.1761628,13.6396689 L10.1761628,13.6396689 L7.60732396,15.6841381 C7.30913675,15.9215361 6.85965528,15.7892753 6.74535935,15.4306271 L6.74535935,15.4306271 L4.96146257,9.83029085 L0.353177191,8.15091504 C-0.11500975,7.98025168 -0.118585795,7.33492666 0.347675582,7.15929513 L0.347675582,7.15929513 Z M15.6542526,3.76388648 C15.7933058,3.6376681 15.6264695,3.42376823 15.4648597,3.52084896 L15.4648597,3.52084896 L6.45817535,8.93669159 C6.11253675,9.14454909 5.95051436,9.55153622 6.06164687,9.93274258 L6.06164687,9.93274258 L7.03543169,13.27283 C7.10447688,13.5099594 7.45671741,13.4853871 7.49041477,13.2410068 L7.49041477,13.2410068 L7.74335125,11.4093633 C7.79107771,11.0644112 7.95983957,10.7461797 8.22102847,10.5091846 L8.22102847,10.5091846 Z"></path>
            </g>
        </g>
    </g>
</svg>