<svg height="20" viewBox="0 0 20 20" width="20" xmlns="http://www.w3.org/2000/svg" xmlns:xlink="http://www.w3.org/1999/xlink"><mask id="a" fill="#fff"><path d="m0 0h20v20h-20z" fill="#fff" fill-rule="evenodd"/></mask><path d="m20 3.92370872c-.7348713.32629147-1.5260904.54694859-2.3560488.64554019.8475671-.50704225 1.4979163-1.31103294 1.8043084-2.2687795-.7935667.46948362-1.6704817.81103303-2.6072663.99413153-.7466104-.79694835-1.8137-1.29460094-2.9946587-1.29460094-2.2644834 0-4.10166127 1.8368545-4.10166127 4.10211263 0 .32159643.0352175.63380281.1056525.93427221-3.410225-.17136153-6.4330575-1.80281684-8.45806208-4.28755843-.35334833.60798115-.55526208 1.31338025-.55526208 2.06455397 0 1.42253515.72430625 2.67840381 1.82543875 3.41431918-.67147959-.01995297-1.30539417-.20657284-1.85948209-.51173728v.05046966c0 1.98826306 1.41456834 3.64671366 3.29283334 4.02230036-.3439575.0962443-.7066975.1443662-1.08117625.1443662-.26413125 0-.5223925-.0246476-.77243667-.0727699.5223925 1.629108 2.03674375 2.8157277 3.83283458 2.847418-1.40400333 1.1009387-3.17426791 1.7570422-5.09596791 1.7570422-.33104417 0-.65856667-.0187793-.97904542-.0563379 1.8160475 1.1619717 3.97370417 1.8415491 6.28983958 1.8415491 7.54827752 0 11.67459082-6.25 11.67459082-11.67136141 0-.17840387-.0035217-.35680775-.0105654-.53169025.8017846-.57863853 1.4979162-1.30046962 2.046135-2.12323962" fill="currentColor" fill-rule="evenodd" mask="url(#a)"/></svg>