<svg height="16" viewBox="0 0 16 16" width="16" xmlns="http://www.w3.org/2000/svg"><g fill="none" fill-rule="evenodd"><path d="m0 0h16v16h-16z"/><path d="m13.3684211 9h-10.73684215c-.34736842 0-.63157895.28125-.63157895.625v3.75c0 .34375.28421053.625.63157895.625h10.73684215c.3473684 0 .6315789-.28125.6315789-.625v-3.75c0-.34375-.2842105-.625-.6315789-.625zm0-7h-10.73684215c-.34736842 0-.63157895.28125-.63157895.625v3.75c0 .34375.28421053.625.63157895.625h10.73684215c.3473684 0 .6315789-.28125.6315789-.625v-3.75c0-.34375-.2842105-.625-.6315789-.625z" fill="currentColor"/></g></svg>