<svg height="20" viewBox="0 0 20 20" width="20" xmlns="http://www.w3.org/2000/svg"><defs><mask id='vk' ><rect x="0" y="0" width="20" height="20" fill="white" /><path d="m16.3496503 6.95104895c.0979021-.30769231 0-.53146853-.4335664-.53146853h-1.4405594c-.3636364 0-.5314686.1958042-.6293707.40559441 0 0-.7412587 1.79020979-1.7762237 2.95104895-.3356644.33566432-.4895105.44755242-.6713287.44755242-.0979021 0-.2237762-.1118881-.2237762-.4195804v-2.86713286c0-.36363637-.1118881-.53146853-.4195804-.53146853h-2.26573431c-.22377622 0-.36363636.16783216-.36363636.33566433 0 .34965035.51748251.43356643.57342657 1.41258741v2.12587415c0 .4615384-.08391608.5454545-.26573427.5454545-.48951049 0-1.67832167-1.80419578-2.39160839-3.86013983-.13986014-.40559441-.27972028-.55944056-.64335664-.55944056h-1.45454546c-.41958042 0-.48951049.19580419-.48951049.4055944 0 .37762238.48951049 2.27972028 2.27972028 4.79720279 1.18881119 1.7202797 2.88111889 2.6433567 4.40559437 2.6433567.923077 0 1.0349651-.2097903 1.0349651-.5594406v-1.3006993c0-.4195804.0839161-.4895105.3776224-.4895105.2097902 0 .5874125.1118881 1.4405594.9370629.979021.979021 1.1468531 1.4265735 1.6923077 1.4265735h1.4405594c.4195804 0 .6153846-.2097902.5034965-.6153846-.1258741-.4055945-.6013986-.993007-1.2167832-1.6923077-.3356643-.3916084-.8391608-.8251749-.993007-1.0349651-.2097902-.2797203-.1538461-.3916084 0-.6433566-.013986 0 1.7482518-2.48951051 1.9300699-3.32867135" /></mask></defs><path mask="url(#vk)" d="m6.99300699.12587413h6.08391611c5.5524475 0 6.8671328 1.31468531 6.8671328 6.86713286v6.08391611c0 5.5524475-1.3146853 6.8671328-6.8671328 6.8671328h-6.08391611c-5.55244755 0-6.86713286-1.3146853-6.86713286-6.8671328v-6.08391611c0-5.55244755 1.31468531-6.86713286 6.86713286-6.86713286" fill="currentColor"/></svg>