<svg height="16" viewBox="0 0 16 16" width="16" xmlns="http://www.w3.org/2000/svg"><g fill="none" fill-rule="evenodd"><path d="m0 0h16v16h-16z" opacity="0"/><path d="m11.7890205 9.8506403c.8352538.5997076 1.5744629 1.3278322 2.2020015 2.1552734-1.3775386 2.0822268-3.6749019 3.2577639-6.0461907 3.2577639-1.008789 0-2.0256347-.2244138-2.9896488-.6643066 2.8514652-.5422364 5.3163571-2.2560053 6.833838-4.7487307zm-3.6963377-1.668457c1.0264645.2387209 2.0019532.6219244 2.8935061 1.1443367-1.558692 2.5800781-4.2379398 4.2498531-7.2757328 4.4777831-.0283692.0020991-.0521972.0153809-.0788574.0221186-.8880858-.6583004-1.608789-1.4992676-2.1122558-2.4751463 1.1714842-.1412601 2.3061034-.4668941 3.3701658-.9566402.0215821-.0083503.0448246-.0055179.0654788-.0172853.0153318-.0086432.0243163-.0231447.0383301-.0331545 1.1366696-.5373049 2.1853027-1.2624998 3.0993652-2.1620121zm.1133786-4.2784665c2.5757322.560498 4.9704103 1.754492 6.9693851 3.4832518.1126461 1.2781248-.1152831 2.5585937-.669385 3.727149-.7245121-.8882332-1.5747557-1.6551761-2.5241213-2.2825689-.0317383-.0313473-.0623531-.0639649-.1035156-.0862303-.0172853-.009326-.0360346-.0094729-.0538082-.0165043-1.0485354-.6681633-2.2062502-1.1651363-3.4394045-1.4608397-.2463378-1.1139646-.3019046-2.248828-.1791505-3.3642576zm-4.8539548-1.4782226c-.6677735 2.4216309-.4251955 5.0000977.7137695 7.2852049-.9360352.3808593-1.9270995.6162109-2.940625.7115726-.0524902-.1495609-.1075684-.2979498-.1507324-.4519529-.5226563-1.8652344-.2882813-3.8222661.6609374-5.5105472.4428711-.7874024 1.031836-1.4701173 1.7166505-2.0342774zm4.655127-1.6572266c-.3175783.7814941-.5427246 1.5946777-.6793456 2.423291-.0041995.0148437-.0138187.0265136-.0166507.0420411-.0051269.0279295.001709.0541503.0014649.081592-.2105469 1.3705073-.168457 2.7782221.1355472 4.1553221-.7485352.7420898-1.5933109 1.3638187-2.5112305 1.8402343-1.2227543-2.4331546-1.3196292-5.2394533-.2754398-7.7462403.5246582-.2687012 1.0797363-.4823731 1.6629396-.6172363.5567384-.1285645 1.120996-.182666 1.6827149-.1790039zm1.0227537.0735839c.8634282.1291992 1.7040043.4131347 2.4804688.8499512 1.3445311.7558594 2.3945312 1.8945313 3.0359373 3.2921875.1400394.3052244.2521.6235838.3486328.9459472-1.9377441-1.4538575-4.1679201-2.4682615-6.5416994-2.9764159.1485843-.7246094.3755865-1.4313478.6766605-2.11167z" fill="currentColor"/></g></svg>