<svg height="16" viewBox="0 0 16 16" width="16" xmlns="http://www.w3.org/2000/svg"><g fill="none" fill-rule="evenodd"><path d="m0 0h16v16h-16z"/><path d="m10.9007816 12.9469051v1.6616211c-.7488289.3292485-1.5645027.5302735-2.4207039.5867682v-2.2483893zm-3.3808598 0v2.2483893c-.8563476-.0564948-1.6721192-.2576666-2.4210935-.5869637v-1.6614256zm4.3410154-11.0401368c2.016407 1.2805176 3.3585939 3.5276857 3.3585939 6.0932131s-1.342187 4.8127446-3.3585939 6.0932622v-1.4088383c1.4128418-1.1633787 2.2250004-2.8524904 2.2250004-4.6843748 0-1.832227-.8121586-3.5213382-2.2250004-4.6844244zm-7.7222652.0002933v1.4085936c-1.4125489 1.163086-2.2246095 2.8521485-2.2246095 4.6843753 0 1.8318844.8120606 3.5208979 2.2246095 4.6839839v1.4089355c-2.0162111-1.2805176-3.3582032-3.5275879-3.3582032-6.0929685 0-2.5653319 1.341992-4.8123534 3.3582032-6.0929198zm8.6994141 7.7902832c-.3113776.8871584-.8670416 1.6783199-1.6263676 2.2894039h-6.4238281c-.758984-.6112786-1.3145506-1.4023924-1.6259274-2.2893553 1.5825682.333643 3.1975589.5147467 4.838037.5147467s3.2554684-.1811037 4.8380861-.5147953zm-9.9177737-2.3586426c3.3312011-.7657227 6.8281741-.7657227 10.1593745 0 .0279789.2176757.0460939.4377928.0460939.6613283 0 .2235346-.018115.4436521-.0460939.6613283-3.331152.7657223-6.8281734.7657223-10.1593256 0-.0279784-.2177248-.0461426-.4377937-.0461426-.6613283 0-.2235355.0181153-.4436526.0460937-.6613283zm8.2914061-3.3253908c.7593756.6109376 1.3151369 1.4020996 1.6265135 2.2894044-1.5825681-.3336916-3.1977048-.5147948-4.838232-.5147948s-3.2555175.1811032-4.8381348.5147948c.3113282-.8871584.8669434-1.6783204 1.6260252-2.2894044zm-2.7316408-3.2086424c.8562012.0564941 1.671875.2575195 2.4207039.5867676v1.6617186h-2.4207039zm-.9601559 0v2.2484861h-2.4210935v-1.6615233c.7489743-.3293457 1.5647459-.5304687 2.4210935-.5869628z" fill="currentColor"/></g></svg>