<svg height="16" viewBox="0 0 16 16" width="16" xmlns="http://www.w3.org/2000/svg"><g fill="none" fill-rule="evenodd"><path d="m0 0h16v16h-16z" fill="none"/><path d="m13.2 9.8c-.4 0-.8.4-.8.8v1.5c0 .1-.1.3-.3.3h-8.2c-.1 0-.3-.1-.3-.3v-8.2c0-.1.1-.3.3-.3h1.6c.4 0 .8-.4.8-.8s-.4-.8-.8-.8h-1.6c-1.1 0-1.9.8-1.9 1.9v8.3c0 1 .8 1.9 1.9 1.9h8.3c1 0 1.9-.8 1.9-1.9v-1.5c-.1-.5-.5-.9-.9-.9zm0-7.8h-3.9c-.4 0-.8.4-.8.8s.4.8.8.8h1.9l-3.8 3.8c-.3.3-.3.8 0 1.1s.8.3 1.1 0l3.8-3.9v2c0 .4.4.8.8.8s.9-.3.9-.7v-3.9c0-.4-.4-.8-.8-.8z" fill="currentColor"/></g></svg>