<svg height="20" viewBox="0 0 20 20" width="20" xmlns="http://www.w3.org/2000/svg"><defs><mask id="youtube"><g transform="translate(1 4)"><path d="m17.6238409 2.02999194c-.207-.79908065-.8169545-1.42832259-1.5913636-1.64187904-1.4036932-.3881129-7.0324773-.3881129-7.0324773-.3881129s-5.62878409 0-7.03247727.3881129c-.77440909.21355645-1.38436364.84279839-1.59136364 1.64187904-.37615909 1.44824193-.37615909 4.47000806-.37615909 4.47000806s0 3.02166129.37615909 4.4700081c.207.7990806.81695455 1.4283225 1.59136364 1.6419838 1.40369318.3880081 7.03247727.3880081 7.03247727.3880081s5.6287841 0 7.0324773-.3880081c.7744091-.2136613 1.3843636-.8429032 1.5913636-1.6419838.3761591-1.44834681.3761591-4.4700081.3761591-4.4700081s0-3.02176613-.3761591-4.47000806" fill="white" fill-rule="nonzero"></path><path d="m7.15909091 9.24352419v-5.48704838l4.70454549 2.74362903z"></path></g></mask></defs><g mask="url(#youtube)" fill="currentColor" fill-rule="evenodd"><path d="m0 0h20v20h-20z"/></g></svg>